<?xml version="1.0" encoding="UTF-8"?>
<!-- Created with Inkscape (http://www.inkscape.org/) -->
<svg width="105" height="105" version="1.1" viewBox="0 0 27.781 27.781" xml:space="preserve" xmlns="http://www.w3.org/2000/svg"><rect x="3.4819" y="13.617" width="16.009" height="10.081" ry="2.4435" fill="#87938e" stroke-width=".39366" style="paint-order:stroke fill markers"/><rect x="8.3657" y="4.1931" width="15.639" height="10.752" ry="2.7892" fill="#577e6e" stroke-width=".39366" style="paint-order:stroke fill markers"/><path d="m8.9613 15.67 5.0358 0.0074-0.0032 2.1581c-5.51e-4 0.34817 0.26871 0.71978 0.71832 0.72041 0.33162 5.12e-4 0.50027-0.20571 0.71994-0.38739l3.8715-3.2026c0.27585-0.22474 0.4502-0.39859 0.45067-0.71872 5.12e-4 -0.32013-0.17336-0.49519-0.44854-0.72005l-3.8618-3.2141c-0.21915-0.18233-0.38718-0.38904-0.71879-0.38951-0.4496-6.298e-4 -0.71994 0.37013-0.72041 0.71832l-0.0032 2.1581-5.0358-0.0074c-0.39567-6.3e-4 -0.71986 0.32265-0.72041 0.71832l-0.00217 1.4388c-6.298e-4 0.39567 0.32265 0.71986 0.71832 0.72041z" fill="#ebebeb" stroke-width=".71934"/></svg>
