<svg width="105" height="105" version="1.1" viewBox="0 0 27.781 27.781" xml:space="preserve" xmlns="http://www.w3.org/2000/svg"><g transform="matrix(.26458 0 0 .26458 -.28723 -.52894)"><path d="m13.871 21.68h77.59c2.0625 0 3.7344 1.6719 3.7344 3.7344v61.125c0 2.0625-1.6719 3.7344-3.7344 3.7344h-77.59c-2.0625 0-3.7344-1.6719-3.7344-3.7344v-61.125c0-2.0625 1.6719-3.7344 3.7344-3.7344z" fill="#45687d"/><path d="m17.816 38.332h69.699c1.4297 0 2.5938 1.1641 2.5938 2.5977v42.496c0 1.4336-1.1641 2.5977-2.5938 2.5977h-69.699c-1.4336 0-2.5938-1.1641-2.5938-2.5977v-42.496c0-1.4336 1.1602-2.5977 2.5938-2.5977z" fill="#7391a1"/><path transform="matrix(1.6021 0 0 1.6021 -2.4656 -2.9053)" d="m16.444 31.834s6.9369 9.6702 12.182 9.5312c5.2447-0.14142 5.7592-11.465 13.113-11.345 8.6998 0.14386 10.767 11.221 10.767 11.221" fill="none" stroke="#dedede" stroke-linecap="round" stroke-linejoin="round" stroke-width="2.318"/><path transform="matrix(1.6021 0 0 1.6021 -2.4656 -2.9053)" d="m16.444 41.104s6.9369 9.6726 12.182 9.5337c5.2447-0.14142 5.5666-10.419 13.113-10.377 8.8948 0.0512 10.767 10.251 10.767 10.251" fill="none" stroke="#e3e6e3" stroke-linecap="round" stroke-linejoin="round" stroke-width="2.218"/><g fill="#badceb"><path d="m84.637 26.664c1.2109 0 2.1914 0.98438 2.1914 2.1953s-0.98047 2.1914-2.1914 2.1914c-1.2109 0-2.1953-0.98047-2.1953-2.1914s0.98438-2.1953 2.1953-2.1953z"/><path d="m76.562 26.664c1.2109 0 2.1953 0.98438 2.1953 2.1953s-0.98437 2.1914-2.1953 2.1914-2.1953-0.98047-2.1953-2.1914 0.98437-2.1953 2.1953-2.1953z"/><path d="m67.754 26.664c1.2109 0 2.1914 0.98438 2.1914 2.1953s-0.98047 2.1914-2.1914 2.1914c-1.2109 0-2.1953-0.98047-2.1953-2.1914s0.98438-2.1953 2.1953-2.1953z"/></g></g></svg>
