<?xml version="1.0" encoding="UTF-8"?>
<!-- Created with Inkscape (http://www.inkscape.org/) -->
<svg width="105" height="105" version="1.1" viewBox="0 0 27.781 27.781" xml:space="preserve" xmlns="http://www.w3.org/2000/svg"><path d="m14.032 6.7192v15.928" fill="#93a59e" stroke="#c6c6c6" stroke-dasharray="2.53744, 9.82533" stroke-dashoffset="296.49" stroke-linecap="round" stroke-linejoin="bevel" stroke-width="1.5626" style="paint-order:stroke fill markers"/><path d="m18.287 7.2904 5.9168-1.4069c0.3822-0.080495 1.4567 0.58878 1.4567 1.3202v14.282c0 0.73136-1.0745 1.4007-1.4567 1.3202l-5.9168-1.4069c-0.3822-0.08049-0.69406-0.58878-0.69406-1.3202v-11.468c0-0.73136 0.31188-1.2397 0.69406-1.3202z" fill="#466d5d" stroke-width=".343" style="paint-order:stroke fill markers"/><path d="m10.16 21.399-5.9871 1.4069c-0.38621 0.08049-1.4645-0.58878-1.4645-1.3202v-14.282c0-0.73136 1.0782-1.4007 1.4645-1.3202l5.9871 1.4069c0.3862 0.080494 0.70139 0.58878 0.70139 1.3202v11.468c0 0.73136-0.31518 1.2397-0.70139 1.3202z" fill="#73a18e" stroke-dasharray="1.7116, 3.42321" stroke-dashoffset="71.203" stroke-linecap="round" stroke-linejoin="bevel" stroke-width=".59015" style="paint-order:stroke fill markers"/></svg>
