<?xml version="1.0" encoding="UTF-8"?>
<!-- Created with Inkscape (http://www.inkscape.org/) -->
<svg width="105" height="105" version="1.1" viewBox="0 0 27.781 27.781" xml:space="preserve" xmlns="http://www.w3.org/2000/svg"><path d="m23.141 14.186a1.3468 1.3468 0 0 1-1.3468 1.3468h-2.5769a3.1569 3.1569 0 0 1-2.6936-1.5264l-1.0999-1.8263-1.6072 3.9174 2.347 1.3351a3.1488 3.1488 0 0 1 1.5901 2.7358v2.9962a1.3468 1.3468 0 0 1-2.6936 0v-2.9962a0.44892 0.44892 0 0 0-0.22626-0.38968l-3.6651-2.0857a3.1524 3.1524 0 0 1-1.2813-3.8806l1.1322-2.769h-1.5838a0.44892 0.44892 0 0 0-0.40135 0.24871l-1.2992 2.5984a1.3472 1.3472 0 0 1-2.4099-1.205l1.2992-2.5984a3.1273 3.1273 0 0 1 2.8112-1.7374h5.0498a3.1569 3.1569 0 0 1 2.6936 1.5264l1.6521 2.7457a0.44892 0.44892 0 0 0 0.38608 0.21728h2.5769a1.3468 1.3468 0 0 1 1.3468 1.3468zm-13.417 3.9057a1.3468 1.3468 0 0 0-1.7508 0.7506 0.44892 0.44892 0 0 1-0.41662 0.28193h-1.9241a1.3468 1.3468 0 0 0 0 2.6936h1.9241a3.1282 3.1282 0 0 0 2.9181-1.9753 1.3468 1.3468 0 0 0-0.7506-1.7508zm5.7849-10.64a2.2447 2.2447 0 1 0-2.2447-2.2447 2.2447 2.2447 0 0 0 2.2447 2.2447z" fill="#b2a466" stroke-width=".89788"/></svg>
