<?xml version="1.0" encoding="UTF-8"?>
<!-- Created with Inkscape (http://www.inkscape.org/) -->
<svg width="105" height="105" version="1.1" viewBox="0 0 27.781 27.781" xml:space="preserve" xmlns="http://www.w3.org/2000/svg"><g transform="matrix(.47079 0 0 .47079 1.0852 1.1378)" fill="#b2a466">
	<g fill="#b2a466">
		<circle cx="26.677" cy="4.383" r="4.383"/>
		<path d="m40.201 28.096c-1.236-13.887-7.854-16.657-7.854-16.657s-6.396-3.845-13.129 1.052c-4.365 3.973-5.373 10.038-6.063 15.896-0.349 2.977 4.307 2.941 4.653 0 0.412-3.496 1-7.008 2.735-9.999l-8e-3 3.375-0.032 16.219v12.867c0 1.383 1.014 2.506 2.438 2.506 1.423 0 2.578-1.123 2.578-2.506v-18.392h2.278v18.451c0 3 4.652 3 4.652 0v-12.927l0.197-16.251c2e-3 -1.551 4e-3 -2.937 4e-3 -3.901 1.859 3.046 2.473 6.664 2.896 10.265 0.349 2.943 5.004 2.979 4.655 2e-3z"/>
	</g>
</g></svg>
