<?xml version="1.0" encoding="UTF-8"?>
<!-- Created with Inkscape (http://www.inkscape.org/) -->
<svg width="105" height="105" version="1.1" viewBox="0 0 27.781 27.781" xml:space="preserve" xmlns="http://www.w3.org/2000/svg"><g><rect x="8.639" y="13.136" width="10.592" height="8.9349" ry="2.9177" display="none" fill="#ffffff" style="paint-order:stroke fill markers"/><path d="m25.903 10.97v8.9896c0 2.7538-2.2404 4.9942-4.9942 4.9942h-13.984c-2.7538 0-4.9942-2.2404-4.9942-4.9942v-8.9896zm-8.9427 6.1928-4.6286-2.4771c-0.62128-0.37258-1.4114 0.0749-1.4114 0.79907v4.9553c0 0.72416 0.79009 1.1716 1.4114 0.79907l4.6286-2.4771c0.6033-0.36159 0.6033-1.2366 0-1.5982z" fill="#5f848d" stroke-width=".99885"/><path d="m18.826 2.9797h2.0836c0.62028 0 1.2136 0.11386 1.762 0.32161l-5.6714 5.6714h-4.1672zm7.0778 5.9931v-0.99885c0-1.3984-0.57833-2.6649-1.5083-3.5719l-4.5707 4.5707zm-13.462-5.9931-6.077 5.9931h3.6438l5.9931-5.9931zm-8.9217 5.9931 6.077-5.9931h-2.6709c-2.7538 0-4.9942 2.2404-4.9942 4.9942v0.99885z" fill="#ececec"/></g></svg>
