<svg width="105" height="105" version="1.1" viewBox="0 0 27.781 27.781" xml:space="preserve" xmlns="http://www.w3.org/2000/svg"><path d="m25.309 23.601-1.0023-0.89339-1.556-1.4098 1.5843-1.8002c0.23814-0.27042 0.13635-0.75208-0.2273-1.0758-0.09579-0.08532-0.20417-0.15402-0.31752-0.20137l-7.4324-3.0927c-0.86058-0.35713-1.6579-0.02701-1.7809 0.73729-0.05198 0.32303 0.02493 0.68872 0.21735 1.0336l3.9504 7.0475c0.14114 0.25226 0.38926 0.45314 0.65806 0.53276 0.05742 0.01661 0.11472 0.02755 0.17088 0.03246 0.20436 0.01824 0.38344-0.04445 0.49787-0.17422l1.6304-1.8551 2.6097 2.326c0.36755 0.3192 0.92276 0.27602 1.1548 2.45e-4 0.22634-0.269 0.1927-0.88867-0.15775-1.2092z" fill="#b05757" stroke-width=".049093"/><path d="m12.706 2.9598c5.8039-0.26855 10.744 4.2348 11.013 10.039 0.02567 0.55471 0.0073 1.1157-0.05369 1.667-0.03201 0.2884-0.29237 0.4977-0.58183 0.46573-0.28945-0.03197-0.50225-0.29954-0.46573-0.58184 0.05505-0.49726 0.07071-1.0022 0.04757-1.5022-0.2417-5.224-4.6886-9.2764-9.9116-9.0347-5.2229 0.24166-9.2753 4.6875-9.0336 9.9116 0.24171 5.224 4.6887 9.2764 9.9116 9.0347 0.50208-0.02322 1.0034-0.08546 1.4914-0.18609 0.28526-0.05855 0.56382 0.1258 0.62236 0.41002 0.05831 0.28-0.12476 0.56377-0.41002 0.62236-0.54227 0.1116-1.0982 0.18056-1.655 0.20632-5.8039 0.26855-10.744-4.2348-11.013-10.039-0.26855-5.8039 4.2348-10.744 10.039-11.013zm0.24351 5.2629c-2.902 0.13427-5.1537 2.6045-5.0194 5.5063 0.12687 2.742 2.2879 4.9014 5.0265 5.0195 0.29068 0.01297 0.51552 0.26728 0.50326 0.54951-0.01297 0.28962-0.25881 0.51619-0.54951 0.50326-3.2871-0.14221-5.8805-2.7331-6.0328-6.0247-0.16116-3.483 2.5403-6.4466 6.0231-6.6079 3.2904-0.15224 6.1089 2.191 6.5559 5.4506 2e-3 0.01682 0.0036 0.03148 0.0043 0.04832 0.01236 0.26946-0.18216 0.50842-0.45472 0.54527-0.28829 0.03866-0.55391-0.16212-0.59363-0.45037-0.37249-2.7159-2.7212-4.6683-5.4624-4.5415z" fill="#6e6e6e" stroke-width="1.0537"/></svg>
