<svg width="105" height="105" version="1.1" viewBox="0 0 27.781 27.781" xml:space="preserve" xmlns="http://www.w3.org/2000/svg"><g stroke="#ea6d81" stroke-linecap="round" stroke-linejoin="round" stroke-width=".040276"><path d="m15.93 6.6816a2.0318 2.0318 0 0 1-2.0298 2.0318 2.0318 2.0318 0 0 1-2.0337-2.0278 2.0318 2.0318 0 0 1 2.0258-2.0357 2.0318 2.0318 0 0 1 2.0377 2.0238" fill="#577d6e" style="paint-order:stroke fill markers"/><path d="m15.93 21.665a2.0318 2.0318 0 0 1-2.0298 2.0318 2.0318 2.0318 0 0 1-2.0337-2.0278 2.0318 2.0318 0 0 1 2.0258-2.0357 2.0318 2.0318 0 0 1 2.0377 2.0238" fill="#798d9d" style="paint-order:stroke fill markers"/><path transform="rotate(-90)" d="m-12.141 6.407a2.0318 2.0318 0 0 1-2.0298 2.0318 2.0318 2.0318 0 0 1-2.0337-2.0278 2.0318 2.0318 0 0 1 2.0258-2.0357 2.0318 2.0318 0 0 1 2.0377 2.0238" fill="#8787aa" style="paint-order:stroke fill markers"/><path transform="rotate(-90)" d="m-12.141 21.39a2.0318 2.0318 0 0 1-2.0298 2.0318 2.0318 2.0318 0 0 1-2.0337-2.0278 2.0318 2.0318 0 0 1 2.0258-2.0357 2.0318 2.0318 0 0 1 2.0377 2.0238" fill="#688a84" style="paint-order:stroke fill markers"/><path transform="rotate(-44.607)" d="m1.9737 12.359a2.0318 2.0318 0 0 1-2.0298 2.0318 2.0318 2.0318 0 0 1-2.0337-2.0278 2.0318 2.0318 0 0 1 2.0258-2.0357 2.0318 2.0318 0 0 1 2.0377 2.0238" fill="#918cb1" style="paint-order:stroke fill markers"/><path transform="rotate(-44.607)" d="m1.9737 27.342a2.0318 2.0318 0 0 1-2.0298 2.0318 2.0318 2.0318 0 0 1-2.0337-2.0278 2.0318 2.0318 0 0 1 2.0258-2.0357 2.0318 2.0318 0 0 1 2.0377 2.0238" fill="#758e92" style="paint-order:stroke fill markers"/><path transform="rotate(225.39)" d="m-17.819-7.5496a2.0318 2.0318 0 0 1-2.0298 2.0318 2.0318 2.0318 0 0 1-2.0337-2.0278 2.0318 2.0318 0 0 1 2.0258-2.0357 2.0318 2.0318 0 0 1 2.0377 2.0238" fill="#848aa7" style="paint-order:stroke fill markers"/><path transform="rotate(225.39)" d="m-17.819 7.4335a2.0318 2.0318 0 0 1-2.0298 2.0318 2.0318 2.0318 0 0 1-2.0337-2.0278 2.0318 2.0318 0 0 1 2.0258-2.0357 2.0318 2.0318 0 0 1 2.0377 2.0238" fill="#5d867b" style="paint-order:stroke fill markers"/></g></svg>
