<?xml version="1.0" encoding="UTF-8"?>
<!-- Created with Inkscape (http://www.inkscape.org/) -->
<svg width="105" height="105" version="1.1" viewBox="0 0 27.781 27.781" xml:space="preserve" xmlns="http://www.w3.org/2000/svg"><rect x="9.4245" y="12.877" width="8.5751" height="8.0281" ry=".33334" fill="#ededed" stroke="#ebebeb" stroke-dashoffset="29.075" stroke-linecap="round" stroke-linejoin="round" stroke-width=".5708" style="paint-order:stroke fill markers"/><path d="m23.803 9.6444-20.228 0.094091v-0.84001a4.2434 4.2434 0 0 1 4.2383-4.2383h2.1428a2.5548 2.5548 0 0 1 1.1367 0.26785l2.6752 1.3426a0.86376 0.86376 0 0 0 0.3789 0.084764h5.5335a4.2383 4.2383 0 0 1 4.1221 3.2889zm0.11613 1.6953v7.7309a4.2434 4.2434 0 0 1-4.2383 4.2383h-11.867a4.2434 4.2434 0 0 1-4.2383-4.2383v-7.6365zm-6.7809 6.0354a0.84764 0.84764 0 0 0-0.84764-0.84764h-1.6953v-1.6953a0.84764 0.84764 0 0 0-1.6953 0v1.6953h-1.6953a0.84764 0.84764 0 0 0 0 1.6953h1.6953v1.6953a0.84764 0.84764 0 0 0 1.6953 0v-1.6953h1.6953a0.84764 0.84764 0 0 0 0.84764-0.84764z" enable-background="new 0 0 512 512" fill="#6f6f6f" stroke-width=".84764"/></svg>
