<svg width="105" height="105" version="1.1" viewBox="0 0 27.781 27.781" xml:space="preserve" xmlns="http://www.w3.org/2000/svg"><path d="m25.758 23.714c-1.0383-11.54-6.5976-13.838-6.5976-13.838s-5.3773-3.1981-11.034 0.87324c-3.6688 3.3015-4.5172 8.338-5.0945 13.206-0.29443 2.4742 3.6184 2.4436 3.909 0 0.3448-2.907 0.84069-5.8217 2.2973-8.3074l-0.0077 2.8036-0.02712 13.474v-4.5337l10.042 0.05 0.1025 0.02542 0.06021-9.0431c0.0038-1.2907 0.0038-2.4398 0.0038-3.2402 1.5651 2.5278 2.0804 5.5344 2.4329 8.5257 0.29444 2.4474 4.2073 2.4742 3.9129 0.0038z" fill="#6e6e6e"/><path d="m18.33 4.1209c0 2.2213-1.7602 4.0237-3.9345 4.0237-2.1744 0-3.9386-1.8025-3.9386-4.0237 0-2.2212 1.7644-4.0237 3.9386-4.0237 2.1744 0 3.9345 1.8025 3.9345 4.0237z" fill="#6e6e6e" stroke-width="1.0716"/><g fill="#fff2f2"><path d="m6.71 22.284a1.632 1.7516 0 0 1-1.6304 1.7516 1.632 1.7516 0 0 1-1.6336-1.7482 1.632 1.7516 0 0 1 1.6272-1.7551 1.632 1.7516 0 0 1 1.6368 1.7447" style="paint-order:stroke fill markers"/><path d="m25.356 22.115a1.632 1.7516 0 0 1-1.6304 1.7516 1.632 1.7516 0 0 1-1.6336-1.7482 1.632 1.7516 0 0 1 1.6272-1.7551 1.632 1.7516 0 0 1 1.6368 1.7447" style="paint-order:stroke fill markers"/><path d="m15.863 13.385a1.632 1.7516 0 0 1-1.6304 1.7516 1.632 1.7516 0 0 1-1.6336-1.7482 1.632 1.7516 0 0 1 1.6272-1.7551 1.632 1.7516 0 0 1 1.6368 1.7447" style="paint-order:stroke fill markers"/><path d="m15.99 4.3588a1.632 1.7516 0 0 1-1.6304 1.7516 1.632 1.7516 0 0 1-1.6336-1.7482 1.632 1.7516 0 0 1 1.6272-1.7551 1.632 1.7516 0 0 1 1.6368 1.7447" style="paint-order:stroke fill markers"/></g></svg>
