<?xml version="1.0" encoding="UTF-8"?>
<!-- Created with Inkscape (http://www.inkscape.org/) -->
<svg width="105" height="105" version="1.1" viewBox="0 0 27.781 27.781" xml:space="preserve" xmlns="http://www.w3.org/2000/svg"><rect transform="matrix(.77101 .63682 -.63661 .77119 0 0)" x="16.879" y="-10.121" width="5.1755" height="22.714" ry="3.0189" fill="#81bda4" stroke-dashoffset="12.523" stroke-linecap="round" stroke-linejoin="bevel" stroke-width=".54798" style="paint-order:stroke fill markers"/><g transform="matrix(.39367 0 0 .39367 .12785 .12785)" fill="#577e6e" stroke-dashoffset="12.523" stroke-linecap="round" stroke-linejoin="bevel"><path d="m22.785 48.683c3.6879 3.061 6.9273 5.7085 6.9273 5.7085l-3.3275 4.0089c-3.061 3.6879-8.4942 4.1926-12.182 1.1316-3.6879-3.061-4.1926-8.4942-1.1316-12.182l3.3275-4.0089s2.6986 2.281 6.3865 5.3421z" stroke-width=".99746" style="paint-order:stroke fill markers"/><path d="m45.748 22.344c-3.7311-3.0968-7.0084-5.7754-7.0084-5.7754l3.3665-4.0559c3.0969-3.7311 8.5937-4.2417 12.325-1.1448 3.7311 3.0968 4.2417 8.5937 1.1448 12.325l-3.3665 4.0559s-2.7302-2.3077-6.4613-5.4047z" stroke-width="1.0091" style="paint-order:stroke fill markers"/><rect transform="rotate(39.693)" x="40.155" y="-.83753" width="17.456" height="11.691" ry="0" stroke-width="2.3578" style="paint-order:stroke fill markers"/></g></svg>
