<?xml version="1.0" encoding="UTF-8"?>
<!-- Generator: Adobe Illustrator 25.0.0, SVG Export Plug-In . SVG Version: 6.00 Build 0)  -->
<svg width="105" height="105" enable-background="new 0 0 512 512" version="1.1" viewBox="0 0 105 105" xml:space="preserve" xmlns="http://www.w3.org/2000/svg"><g transform="matrix(.77845 0 0 .77845 14.189 16.576)" fill="#a3a2a2">
	<g fill="#a3a2a2">
		<path d="m93.5 40.899c0-2.453-1.995-4.447-4.448-4.447h-7.072c-0.74-2.545-1.756-5.001-3.035-7.331l4.998-5c0.826-0.827 1.303-1.973 1.303-3.146 0-1.19-0.462-2.306-1.303-3.146l-8.273-8.274c-1.613-1.615-4.673-1.618-6.29 0l-5 5c-2.327-1.28-4.786-2.296-7.332-3.037v-7.07c0-2.453-1.995-4.448-4.446-4.448h-11.703c-2.453 0-4.447 1.995-4.447 4.448v7.071c-2.546 0.741-5.005 1.757-7.333 3.037l-5-5c-1.68-1.679-4.609-1.679-6.288 0l-8.276 8.274c-1.734 1.734-1.734 4.555 0 6.289l4.999 5c-1.279 2.33-2.295 4.788-3.036 7.333h-7.07c-2.453 0-4.448 1.995-4.448 4.447v11.701c0 2.453 1.995 4.447 4.448 4.447h7.071c0.74 2.545 1.757 5.003 3.036 7.332l-4.998 4.999c-0.827 0.827-1.303 1.974-1.303 3.146 0 1.189 0.462 2.307 1.302 3.146l8.274 8.273c1.614 1.615 4.674 1.619 6.29 0l5-5c2.328 1.279 4.786 2.297 7.333 3.037v7.071c0 2.453 1.995 4.448 4.447 4.448h11.702c2.453 0 4.446-1.995 4.446-4.448v-7.071c2.546-0.74 5.005-1.756 7.332-3.037l5 5c1.681 1.68 4.608 1.68 6.288 0l8.275-8.273c1.734-1.734 1.734-4.555 0-6.289l-4.998-5.001c1.279-2.329 2.295-4.787 3.035-7.332h7.071c2.453 0 4.448-1.995 4.448-4.446v-11.703zm-30.553 5.851c0 8.932-7.266 16.197-16.197 16.197s-16.197-7.266-16.197-16.197 7.266-16.197 16.197-16.197c8.932 0 16.197 7.266 16.197 16.197z" fill="#a3a2a2"/>
	</g>
</g><g transform="matrix(.77845 0 0 .77845 14.189 15.768)" fill="#6f6f6f">
	<g transform="translate(1.5563,2.5939)" fill="#6f6f6f">
		<path d="m93.5 40.899c0-2.453-1.995-4.447-4.448-4.447h-7.072c-0.74-2.545-1.756-5.001-3.035-7.331l4.998-5c0.826-0.827 1.303-1.973 1.303-3.146 0-1.19-0.462-2.306-1.303-3.146l-8.273-8.274c-1.613-1.615-4.673-1.618-6.29 0l-5 5c-2.327-1.28-4.786-2.296-7.332-3.037v-7.07c0-2.453-1.995-4.448-4.446-4.448h-11.703c-2.453 0-4.447 1.995-4.447 4.448v7.071c-2.546 0.741-5.005 1.757-7.333 3.037l-5-5c-1.68-1.679-4.609-1.679-6.288 0l-8.276 8.274c-1.734 1.734-1.734 4.555 0 6.289l4.999 5c-1.279 2.33-2.295 4.788-3.036 7.333h-7.07c-2.453 0-4.448 1.995-4.448 4.447v11.701c0 2.453 1.995 4.447 4.448 4.447h7.071c0.74 2.545 1.757 5.003 3.036 7.332l-4.998 4.999c-0.827 0.827-1.303 1.974-1.303 3.146 0 1.189 0.462 2.307 1.302 3.146l8.274 8.273c1.614 1.615 4.674 1.619 6.29 0l5-5c2.328 1.279 4.786 2.297 7.333 3.037v7.071c0 2.453 1.995 4.448 4.447 4.448h11.702c2.453 0 4.446-1.995 4.446-4.448v-7.071c2.546-0.74 5.005-1.756 7.332-3.037l5 5c1.681 1.68 4.608 1.68 6.288 0l8.275-8.273c1.734-1.734 1.734-4.555 0-6.289l-4.998-5.001c1.279-2.329 2.295-4.787 3.035-7.332h7.071c2.453 0 4.448-1.995 4.448-4.446v-11.703zm-30.553 5.851c0 8.932-7.266 16.197-16.197 16.197s-16.197-7.266-16.197-16.197 7.266-16.197 16.197-16.197c8.932 0 16.197 7.266 16.197 16.197z" fill="#6f6f6f"/>
	</g>
</g><circle cx="85.689" cy="88.9" r="10.127" fill="#b5d7a0" stroke-width=".20224" style="paint-order:stroke fill markers"/><circle cx="86.67" cy="89.553" r="10.127" fill="#8ad25b" stroke-width=".20224" style="paint-order:stroke fill markers"/></svg>
