<?xml version="1.0" encoding="UTF-8"?>
<!-- Created with Inkscape (http://www.inkscape.org/) -->
<svg width="105" height="105" version="1.1" viewBox="0 0 27.781 27.781" xml:space="preserve" xmlns="http://www.w3.org/2000/svg"><g transform="matrix(.039147 0 0 .039147 3.9391 3.8174)" fill="#5e5e5e">
	<path d="m405.33 179.71v-30.379c0-82.474-66.858-149.33-149.33-149.33s-149.33 66.859-149.33 149.33v30.379c-38.826 16.945-63.944 55.259-64 97.621v128c0.07 58.881 47.785 106.6 106.67 106.67h213.33c58.881-0.07 106.6-47.786 106.67-106.67v-128c-0.055-42.362-25.174-80.676-64-97.621zm-128 182.96c0 11.782-9.551 21.333-21.333 21.333s-21.333-9.551-21.333-21.333v-42.667c0-11.782 9.551-21.333 21.333-21.333s21.333 9.551 21.333 21.333zm85.334-192h-213.33v-21.333c0-58.91 47.756-106.67 106.67-106.67s106.67 47.756 106.67 106.67z" fill="#5e5e5e"/>
</g></svg>
