<?xml version="1.0" encoding="UTF-8"?>
<!-- Created with Inkscape (http://www.inkscape.org/) -->
<svg width="105" height="105" version="1.1" viewBox="0 0 27.781 27.781" xml:space="preserve" xmlns="http://www.w3.org/2000/svg"><rect x="8.8702" y="9.456" width="10.544" height="9.5396" ry="3.3113" fill="#ffffff" style="paint-order:stroke fill markers"/><g id="Icons" transform="matrix(.42253 0 0 .42253 3.5833 6.9295)" fill="none" fill-rule="evenodd"><g id="Color-" transform="translate(-200,-368)" fill="#ce1312"><path id="Youtube" d="m219.04 391.27-2e-3 -13.582 12.969 6.8145zm28.476-15.936s-0.4695-3.331-1.908-4.7978c-1.8255-1.9261-3.8715-1.9351-4.809-2.0469-6.717-0.48945-16.792-0.48945-16.792-0.48945h-0.021s-10.076 0-16.792 0.48945c-0.939 0.11178-2.9835 0.12085-4.8105 2.0469-1.4385 1.4668-1.9065 4.7978-1.9065 4.7978s-0.48 3.9126-0.48 7.8236v3.6678c0 3.9126 0.48 7.8236 0.48 7.8236s0.468 3.331 1.9065 4.7978c1.827 1.9261 4.2255 1.8656 5.2935 2.0666 3.84 0.37162 16.32 0.48643 16.32 0.48643s10.086-0.0151 16.803-0.50455c0.9375-0.1133 2.9835-0.12237 4.809-2.0484 1.4385-1.4668 1.908-4.7978 1.908-4.7978s0.48-3.911 0.48-7.8236v-3.6678c0-3.911-0.48-7.8236-0.48-7.8236z"/></g></g></svg>
