<svg width="57" height="57" viewBox="0 0 57 57" fill="none" xmlns="http://www.w3.org/2000/svg">
<g clip-path="url(#clip0_2003_15)">
<path d="M19 21.375C19 20.7451 19.2502 20.141 19.6956 19.6956C20.141 19.2502 20.7451 19 21.375 19H35.625C36.2549 19 36.859 19.2502 37.3044 19.6956C37.7498 20.141 38 20.7451 38 21.375V35.625C38 36.2549 37.7498 36.859 37.3044 37.3044C36.859 37.7498 36.2549 38 35.625 38H21.375C20.7451 38 20.141 37.7498 19.6956 37.3044C19.2502 36.859 19 36.2549 19 35.625V21.375Z" stroke="white" stroke-width="4" stroke-linecap="round" stroke-linejoin="round"/>
<path d="M19 47.5V47.5233" stroke="white" stroke-width="4" stroke-linecap="round" stroke-linejoin="round"/>
<path d="M9.5 47.5V47.5233" stroke="white" stroke-width="4" stroke-linecap="round" stroke-linejoin="round"/>
<path d="M9.5 38V38.0233" stroke="white" stroke-width="4" stroke-linecap="round" stroke-linejoin="round"/>
<path d="M9.5 28.5V28.5233" stroke="white" stroke-width="4" stroke-linecap="round" stroke-linejoin="round"/>
<path d="M28.5 9.5V9.52333" stroke="white" stroke-width="4" stroke-linecap="round" stroke-linejoin="round"/>
<path d="M38 9.5V9.52333" stroke="white" stroke-width="4" stroke-linecap="round" stroke-linejoin="round"/>
<path d="M47.5 9.5V9.52333" stroke="white" stroke-width="4" stroke-linecap="round" stroke-linejoin="round"/>
<path d="M47.5 19V19.0233" stroke="white" stroke-width="4" stroke-linecap="round" stroke-linejoin="round"/>
<path d="M47.5 28.5V28.5233" stroke="white" stroke-width="4" stroke-linecap="round" stroke-linejoin="round"/>
<g clip-path="url(#clip1_2003_15)">
<path d="M47.75 36.25V43.75C47.75 44.7446 47.3549 45.6984 46.6517 46.4017C45.9484 47.1049 44.9946 47.5 44 47.5H35.25" stroke="white" stroke-width="3" stroke-linecap="round" stroke-linejoin="round"/>
<path d="M40.25 42.5L35.25 47.5L40.25 52.5M34 42.5L29 47.5L34 52.5" stroke="white" stroke-width="3" stroke-linecap="round" stroke-linejoin="round"/>
</g>
<g clip-path="url(#clip2_2003_15)">
<path d="M11.5 15.6667H15.6667V19.8333" stroke="white" stroke-width="2" stroke-linecap="round" stroke-linejoin="round"/>
<path d="M19.2687 10.5021C20.1646 8.0375 20.0208 5.73125 18.6437 4.35625C16.2771 1.9875 11.1594 3.2677 7.21353 7.21354C3.2677 11.1594 1.98749 16.2771 4.3552 18.6448C6.67499 20.9635 11.6333 19.7833 15.5427 16.025" stroke="white" stroke-width="2" stroke-linecap="round" stroke-linejoin="round"/>
</g>
</g>
<defs>
<clipPath id="clip0_2003_15">
<rect width="57" height="57" fill="white"/>
</clipPath>
<clipPath id="clip1_2003_15">
<rect width="30" height="30" fill="white" transform="translate(24 30)"/>
</clipPath>
<clipPath id="clip2_2003_15">
<rect width="25" height="25" fill="white" transform="translate(-1 -1)"/>
</clipPath>
</defs>
</svg>
