<svg width="57" height="57" viewBox="0 0 57 57" fill="none" xmlns="http://www.w3.org/2000/svg">
<g clip-path="url(#clip0_2008_52)">
<path d="M7.125 16.625C7.125 15.9951 7.37522 15.391 7.82062 14.9456C8.26602 14.5002 8.87011 14.25 9.5 14.25H47.5C48.1299 14.25 48.734 14.5002 49.1794 14.9456C49.6248 15.391 49.875 15.9951 49.875 16.625V40.375C49.875 41.0049 49.6248 41.609 49.1794 42.0544C48.734 42.4998 48.1299 42.75 47.5 42.75H9.5C8.87011 42.75 8.26602 42.4998 7.82062 42.0544C7.37522 41.609 7.125 41.0049 7.125 40.375V16.625Z" stroke="white" stroke-width="4" stroke-linecap="round" stroke-linejoin="round"/>
<path d="M35.625 14.25V42.75" stroke="white" stroke-width="4" stroke-linecap="round" stroke-linejoin="round"/>
<path d="M42.75 28.5H42.7728" stroke="white" stroke-width="4" stroke-linecap="round" stroke-linejoin="round"/>
<path d="M42.75 35.625H42.7728" stroke="white" stroke-width="4" stroke-linecap="round" stroke-linejoin="round"/>
<path d="M42.75 21.375H42.7728" stroke="white" stroke-width="4" stroke-linecap="round" stroke-linejoin="round"/>
<path d="M15.4375 24.9375C17.8125 23.3534 19 23.3534 21.375 24.9375C23.3534 25.7616 25.3341 27.1367 27.3125 24.9375" stroke="white" stroke-width="4" stroke-linecap="round" stroke-linejoin="round"/>
<path d="M15.4375 32.0625C17.8125 30.4784 19 30.4784 21.375 32.0625C23.3534 32.8866 25.3341 34.2617 27.3125 32.0625" stroke="white" stroke-width="4" stroke-linecap="round" stroke-linejoin="round"/>
</g>
<defs>
<clipPath id="clip0_2008_52">
<rect width="57" height="57" fill="white"/>
</clipPath>
</defs>
</svg>
