<svg width="60" height="57" viewBox="0 0 60 57" fill="none" xmlns="http://www.w3.org/2000/svg">
<g clip-path="url(#clip0_2008_64)">
<path d="M49.375 29.0099V16.625C49.375 15.9951 49.1248 15.391 48.6794 14.9456C48.234 14.5002 47.6299 14.25 47 14.25H9C8.37011 14.25 7.76602 14.5002 7.32062 14.9456C6.87522 15.391 6.625 15.9951 6.625 16.625V40.375C6.625 41.0049 6.87522 41.609 7.32062 42.0544C7.76602 42.4998 8.37011 42.75 9 42.75H35.109" stroke="white" stroke-width="4" stroke-linecap="round" stroke-linejoin="round"/>
<path d="M35.125 14.25V42.75" stroke="white" stroke-width="4" stroke-linecap="round" stroke-linejoin="round"/>
<path d="M42.25 28.5H42.2728" stroke="white" stroke-width="4" stroke-linecap="round" stroke-linejoin="round"/>
<path d="M42.25 35.625H42.2728" stroke="white" stroke-width="4" stroke-linecap="round" stroke-linejoin="round"/>
<path d="M42.25 21.375H42.2728" stroke="white" stroke-width="4" stroke-linecap="round" stroke-linejoin="round"/>
<path d="M14.9375 24.9375C17.3125 23.3534 18.5 23.3534 20.875 24.9375C22.8534 25.7616 24.8341 27.1367 26.8125 24.9375" stroke="white" stroke-width="4" stroke-linecap="round" stroke-linejoin="round"/>
<path d="M14.9375 32.0625C17.3125 30.4784 18.5 30.4784 20.875 32.0625C22.8534 32.8866 24.8341 34.2617 26.8125 32.0625" stroke="white" stroke-width="4" stroke-linecap="round" stroke-linejoin="round"/>
<path d="M50.221 34.3306C50.086 33.9806 49.75 33.7496 49.375 33.7496C49.1919 33.7501 49.0132 33.8058 48.8623 33.9095C48.7113 34.0131 48.5952 34.1599 48.529 34.3306L46.879 38.6216C46.7362 38.9928 46.5171 39.3299 46.2358 39.611C45.9545 39.8922 45.6173 40.1111 45.246 40.2536L40.956 41.9036C40.7848 41.9692 40.6376 42.0852 40.5337 42.2362C40.4298 42.3873 40.3742 42.5663 40.3742 42.7496C40.3742 42.9329 40.4298 43.1119 40.5337 43.263C40.6376 43.414 40.7848 43.53 40.956 43.5956L45.247 45.2456C45.6182 45.3884 45.9553 45.6075 46.2364 45.8888C46.5175 46.1701 46.7365 46.5073 46.879 46.8786L48.529 51.1686C48.5946 51.3398 48.7106 51.487 48.8616 51.5909C49.0127 51.6948 49.1917 51.7504 49.375 51.7504C49.5583 51.7504 49.7373 51.6948 49.8884 51.5909C50.0394 51.487 50.1554 51.3398 50.221 51.1686L51.871 46.8776C52.0137 46.5064 52.2329 46.1693 52.5142 45.8882C52.7955 45.607 53.1327 45.3881 53.504 45.2456L57.794 43.5956C57.9652 43.53 58.1124 43.414 58.2163 43.263C58.3202 43.1119 58.3758 42.9329 58.3758 42.7496C58.3758 42.5663 58.3202 42.3873 58.2163 42.2362C58.1124 42.0852 57.9652 41.9692 57.794 41.9036L53.503 40.2536C53.1321 40.1103 52.7953 39.891 52.5142 39.6098C52.2332 39.3285 52.0141 38.9916 51.871 38.6206L50.221 34.3306Z" stroke="white" stroke-width="2" stroke-linecap="round" stroke-linejoin="round"/>
</g>
<defs>
<clipPath id="clip0_2008_64">
<rect width="60" height="57" fill="white"/>
</clipPath>
</defs>
</svg>
