<svg width="57" height="57" viewBox="0 0 57 57" fill="none" xmlns="http://www.w3.org/2000/svg">
<g clip-path="url(#clip0_2005_414)">
<path d="M28.5 47.5H11.875C10.6152 47.5 9.40704 46.9996 8.51624 46.1088C7.62544 45.218 7.125 44.0098 7.125 42.75V21.375C7.125 20.1152 7.62544 18.907 8.51624 18.0162C9.40704 17.1254 10.6152 16.625 11.875 16.625H14.25C15.5098 16.625 16.718 16.1246 17.6088 15.2338C18.4996 14.343 19 13.1348 19 11.875C19 11.2451 19.2502 10.641 19.6956 10.1956C20.141 9.75022 20.7451 9.5 21.375 9.5H35.625C36.2549 9.5 36.859 9.75022 37.3044 10.1956C37.7498 10.641 38 11.2451 38 11.875C38 13.1348 38.5004 14.343 39.3912 15.2338C40.282 16.1246 41.4902 16.625 42.75 16.625H45.125C46.3848 16.625 47.593 17.1254 48.4838 18.0162C49.3746 18.907 49.875 20.1152 49.875 21.375V29.6875" stroke="white" stroke-width="4" stroke-linecap="round" stroke-linejoin="round"/>
<path d="M39.5328 48.6788C39.1811 47.8295 39 46.9193 39 46C39 45.0807 39.1811 44.1705 39.5328 43.3212C39.8846 42.4719 40.4002 41.7003 41.0503 41.0503C41.7003 40.4002 42.4719 39.8846 43.3212 39.5328C44.1705 39.1811 45.0807 39 46 39C46.9193 39 47.8295 39.1811 48.6788 39.5328C49.5281 39.8846 50.2997 40.4002 50.9497 41.0503C51.5998 41.7003 52.1154 42.4719 52.4672 43.3212C52.8189 44.1705 53 45.0807 53 46C53 46.9193 52.8189 47.8295 52.4672 48.6788C52.1154 49.5281 51.5998 50.2997 50.9497 50.9497C50.2997 51.5998 49.5281 52.1154 48.6788 52.4672C47.8295 52.8189 46.9193 53 46 53C45.0807 53 44.1705 52.8189 43.3212 52.4672C42.4719 52.1154 41.7003 51.5998 41.0503 50.9497C40.4002 50.2997 39.8846 49.5281 39.5328 48.6788Z" stroke="white" stroke-width="3" stroke-linecap="round" stroke-linejoin="round"/>
<path d="M44.7354 46.5238C44.6666 46.3577 44.6312 46.1798 44.6312 46C44.6312 45.8203 44.6666 45.6423 44.7354 45.4762C44.8042 45.3101 44.905 45.1592 45.0321 45.0321C45.1592 44.905 45.3101 44.8042 45.4762 44.7354C45.6423 44.6666 45.8203 44.6312 46 44.6312C46.1798 44.6312 46.3577 44.6666 46.5238 44.7354C46.6899 44.8042 46.8408 44.905 46.9679 45.0321C47.095 45.1592 47.1958 45.3101 47.2646 45.4762C47.3334 45.6423 47.3688 45.8203 47.3688 46C47.3688 46.1798 47.3334 46.3577 47.2646 46.5238C47.1958 46.6899 47.095 46.8408 46.9679 46.9679C46.8408 47.095 46.6899 47.1958 46.5238 47.2646C46.3577 47.3334 46.1798 47.3688 46 47.3688C45.8203 47.3688 45.6423 47.3334 45.4762 47.2646C45.3101 47.1958 45.1592 47.095 45.0321 46.9679C44.905 46.8408 44.8042 46.6899 44.7354 46.5238Z" stroke="white" stroke-linecap="round" stroke-linejoin="round"/>
<path d="M38 38L41 41" stroke="white" stroke-width="3" stroke-linecap="round" stroke-linejoin="round"/>
<path d="M54 38L51 41" stroke="white" stroke-width="3" stroke-linecap="round" stroke-linejoin="round"/>
<path d="M38 54L41 51" stroke="white" stroke-width="3" stroke-linecap="round" stroke-linejoin="round"/>
<path d="M54 54L51 51" stroke="white" stroke-width="3" stroke-linecap="round" stroke-linejoin="round"/>
<path d="M21.375 30.875C21.375 32.7647 22.1257 34.5769 23.4619 35.9131C24.7981 37.2493 26.6103 38 28.5 38C30.3897 38 32.2019 37.2493 33.5381 35.9131C34.8743 34.5769 35.625 32.7647 35.625 30.875C35.625 28.9853 34.8743 27.1731 33.5381 25.8369C32.2019 24.5007 30.3897 23.75 28.5 23.75C26.6103 23.75 24.7981 24.5007 23.4619 25.8369C22.1257 27.1731 21.375 28.9853 21.375 30.875Z" stroke="white" stroke-width="4" stroke-linecap="round" stroke-linejoin="round"/>
</g>
<defs>
<clipPath id="clip0_2005_414">
<rect width="57" height="57" fill="white"/>
</clipPath>
</defs>
</svg>
