<svg
  xmlns="http://www.w3.org/2000/svg"
  width="24"
  height="24"
  viewBox="0 0 24 24"
  fill="none"
  stroke="#3b82f6"
  stroke-width="2"
  stroke-linecap="round"
  stroke-linejoin="round"
>
  <path stroke="none" d="M0 0h24v24H0z" fill="none" />
  <!-- Camera body -->
  <path d="M5 7h1a2 2 0 0 0 2 -2a1 1 0 0 1 1 -1h6a1 1 0 0 1 1 1a2 2 0 0 0 2 2h1a2 2 0 0 1 2 2v9a2 2 0 0 1 -2 2h-14a2 2 0 0 1 -2 -2v-9a2 2 0 0 1 2 -2" />
  <!-- Crosshair circle -->
  <circle cx="12" cy="13" r="3" />
  <!-- Crosshair lines -->
  <line x1="12" y1="9" x2="12" y2="10" />
  <line x1="12" y1="16" x2="12" y2="17" />
  <line x1="8" y1="13" x2="9" y2="13" />
  <line x1="15" y1="13" x2="16" y2="13" />
</svg>
