<svg width="57" height="57" viewBox="0 0 57 57" fill="none" xmlns="http://www.w3.org/2000/svg">
<g clip-path="url(#clip0_2012_61)">
<path d="M23.75 38V49.875" stroke="white" stroke-width="4" stroke-linecap="round" stroke-linejoin="round"/>
<path d="M33.25 38V49.875" stroke="white" stroke-width="4" stroke-linecap="round" stroke-linejoin="round"/>
<path d="M21.375 21.375H35.625L33.25 38H23.75L21.375 21.375Z" stroke="white" stroke-width="4" stroke-linecap="round" stroke-linejoin="round"/>
<path d="M11.875 26.125C15.0409 22.9591 18.2091 21.375 21.375 21.375" stroke="white" stroke-width="4" stroke-linecap="round" stroke-linejoin="round"/>
<path d="M45.125 26.125C41.9591 22.9591 38.7909 21.375 35.625 21.375" stroke="white" stroke-width="4" stroke-linecap="round" stroke-linejoin="round"/>
<path d="M25.1412 12.8588C24.2504 11.968 23.75 10.7598 23.75 9.5C23.75 8.24022 24.2504 7.03204 25.1412 6.14124C26.032 5.25044 27.2402 4.75 28.5 4.75C29.7598 4.75 30.968 5.25044 31.8588 6.14124C32.7496 7.03204 33.25 8.24022 33.25 9.5C33.25 10.7598 32.7496 11.968 31.8588 12.8588C30.968 13.7496 29.7598 14.25 28.5 14.25C27.2402 14.25 26.032 13.7496 25.1412 12.8588Z" stroke="white" stroke-width="4" stroke-linecap="round" stroke-linejoin="round"/>
<g clip-path="url(#clip1_2012_61)">
<path d="M46.0833 40.6667C46.0833 40.9208 46.1799 41.1646 46.3518 41.3443C46.5237 41.524 46.7569 41.625 47 41.625C47.2431 41.625 47.4763 41.524 47.6482 41.3443C47.8201 41.1646 47.9167 40.9208 47.9167 40.6667C47.9167 40.4125 47.8201 40.1687 47.6482 39.989C47.4763 39.8093 47.2431 39.7083 47 39.7083C46.7569 39.7083 46.5237 39.8093 46.3518 39.989C46.1799 40.1687 46.0833 40.4125 46.0833 40.6667Z" stroke="white" stroke-width="2" stroke-linecap="round" stroke-linejoin="round"/>
<path d="M45.1667 49.2917V48.3333C45.1667 47.825 45.3598 47.3375 45.7036 46.978C46.0474 46.6186 46.5138 46.4167 47 46.4167C47.4862 46.4167 47.9525 46.6186 48.2964 46.978C48.6402 47.3375 48.8333 47.825 48.8333 48.3333V49.2917" stroke="white" stroke-width="2" stroke-linecap="round" stroke-linejoin="round"/>
<path d="M43.3333 42.5833C43.9445 43.2222 44.5556 43.5417 45.1667 43.5417H48.8333C49.4445 43.5417 50.0556 43.2222 50.6667 42.5833" stroke="white" stroke-width="2" stroke-linecap="round" stroke-linejoin="round"/>
<path d="M47 43.5417V46.4167" stroke="white" stroke-width="2" stroke-linecap="round" stroke-linejoin="round"/>
<path d="M38.75 39.7083V37.7917C38.75 37.2833 38.9432 36.7958 39.287 36.4364C39.6308 36.0769 40.0971 35.875 40.5833 35.875H42.4167" stroke="white" stroke-width="2" stroke-linecap="round" stroke-linejoin="round"/>
<path d="M38.75 49.2917V51.2083C38.75 51.7167 38.9432 52.2042 39.287 52.5636C39.6308 52.9231 40.0971 53.125 40.5833 53.125H42.4167" stroke="white" stroke-width="2" stroke-linecap="round" stroke-linejoin="round"/>
<path d="M51.5833 35.875H53.4167C53.9029 35.875 54.3692 36.0769 54.713 36.4364C55.0569 36.7958 55.25 37.2833 55.25 37.7917V39.7083" stroke="white" stroke-width="2" stroke-linecap="round" stroke-linejoin="round"/>
<path d="M51.5833 53.125H53.4167C53.9029 53.125 54.3692 52.9231 54.713 52.5636C55.0569 52.2042 55.25 51.7167 55.25 51.2083V49.2917" stroke="white" stroke-width="2" stroke-linecap="round" stroke-linejoin="round"/>
</g>
</g>
<defs>
<clipPath id="clip0_2012_61">
<rect width="57" height="57" fill="white"/>
</clipPath>
<clipPath id="clip1_2012_61">
<rect width="22" height="23" fill="white" transform="translate(36 33)"/>
</clipPath>
</defs>
</svg>
