<?xml version="1.0" encoding="UTF-8"?>
<svg id="AniCleanup" xmlns="http://www.w3.org/2000/svg" viewBox="0 0 31.45 29.85">
  <defs>
    <style>
      .cls-1 {
        fill: none;
        stroke-linejoin: round;
        stroke-width: 2px;
      }

      .cls-1, .cls-2 {
        stroke: #f97316;
      }

      .cls-2 {
        stroke-miterlimit: 10;
        stroke-width: .5px;
      }
    </style>
  </defs>
  <polygon class="cls-1" points="18.68 15.06 15.64 22.95 14.61 25.62 13.55 28.41 8.5 15.25 13.62 1.9 14.7 4.68 15.71 7.35 18.68 15.06"/>
  <path class="cls-2" d="M26.38,9.06c-.91-.44-1.43-1.4-1.43-2.62v-.7c0-.26-.16-.5-.41-.6l-1.01-.4c-.16-.07-.25-.25-.18-.42l.86-2.14c.24-.58-.03-1.24-.61-1.48-.01,0-.03-.01-.04-.02-.58-.21-1.22.07-1.45.65,0,0,0,0,0,0l-.85,2.15c-.07.17-.25.25-.42.18l-1.03-.42c-.24-.1-.52-.04-.7.15-.85.87-1.28,1.9-1.28,3.04,0,1.17.45,2.29,1.26,3.13.06.06.15.1.23.1h6.9c.18,0,.32-.14.32-.32,0-.12-.07-.24-.18-.29ZM19.59,3.86l1.03.42c.5.2,1.06-.04,1.26-.54,0,0,0,0,0,0l.85-2.14c.1-.25.38-.37.62-.28.25.09.38.37.29.62,0,0,0,.01,0,.02l-.86,2.14c-.2.5.05,1.06.54,1.26l1,.4v.74l-5.18-2.07c.14-.2.29-.38.46-.55ZM21.53,9.03c-.48-.46-.82-1.05-.98-1.7-.05-.17-.22-.27-.4-.23-.17.05-.27.22-.23.39.14.56.39,1.08.74,1.53h-1.18c-.64-.71-.99-1.63-.99-2.58,0-.51.1-1.01.31-1.46l5.56,2.23c.12.73.43,1.35.88,1.82h-3.73Z"/>
</svg>