<?xml version="1.0" encoding="UTF-8"?>
<svg id="CopyPose" xmlns="http://www.w3.org/2000/svg" viewBox="0 0 31.45 29.95">
  <defs>
    <style>
      .cls-1, .cls-2, .cls-3 {
        fill-rule: evenodd;
      }

      .cls-1, .cls-2, .cls-3, .cls-4 {
        fill: none;
        stroke: #f97316;
      }

      .cls-1, .cls-2, .cls-4 {
        stroke-linecap: round;
      }

      .cls-1, .cls-3 {
        stroke-miterlimit: 10;
        stroke-width: 2px;
      }

      .cls-2, .cls-4 {
        stroke-linejoin: round;
        stroke-width: 1.2px;
      }
    </style>
  </defs>
  <path id="Shape_2" data-name="Shape 2" class="cls-1" d="M6.19,15.13c2.74-2.18,6.89-4.9,10.52-3.18,2.88,1.37,6.54,6.76,10.44,4.9"/>
  <polyline id="Shape_3" data-name="Shape 3" class="cls-1" points="9.14 28.01 14.48 17.4 16 12.06"/>
  <polyline id="Shape_4" data-name="Shape 4" class="cls-1" points="19.45 28.56 19.45 20.39 14.57 17.57"/>
  <path id="Shape_1_copy" data-name="Shape 1 copy" class="cls-3" d="M19.1,8.76c-1.36,0-2.56-.79-3.18-1.93-.04-.08-.09-.16-.12-.25-.2-.45-.32-.95-.32-1.47,0-1.98,1.64-3.49,3.62-3.49s3.57,1.6,3.57,3.57-1.6,3.57-3.57,3.57Z"/>
  <rect class="cls-4" x="5.52" y="1.53" width="5.86" height="7.18"/>
  <path class="cls-2" d="M12.43,3.3v5.49c0,.46-.45.84-.98.84h-3.9c-.55,0-.98-.37-.98-.84v-.09h4.81V2.46h.08c.54,0,.98.39.98.85Z"/>
</svg>