<svg width="60" height="57" viewBox="0 0 60 57" fill="none" xmlns="http://www.w3.org/2000/svg">
<g clip-path="url(#clip0_2004_135)">
<path d="M30.7322 11.1794C30.2634 10.734 30 10.1299 30 9.5C30 8.87011 30.2634 8.26602 30.7322 7.82062C31.2011 7.37522 31.837 7.125 32.5 7.125C33.163 7.125 33.7989 7.37522 34.2678 7.82062C34.7366 8.26602 35 8.87011 35 9.5C35 10.1299 34.7366 10.734 34.2678 11.1794C33.7989 11.6248 33.163 11.875 32.5 11.875C31.837 11.875 31.2011 11.6248 30.7322 11.1794Z" fill="white" stroke="white" stroke-width="4" stroke-linecap="round" stroke-linejoin="round"/>
<path d="M17.5 49.875L25 40.375" stroke="white" stroke-width="4" stroke-linecap="round" stroke-linejoin="round"/>
<path d="M40 49.875L35.0767 40.5208C35.0259 40.4242 34.9597 40.3367 34.8806 40.2615L27.8889 33.6195C27.646 33.3887 27.5348 33.0516 27.5927 32.7217L30 19" stroke="white" stroke-width="4" stroke-linecap="round" stroke-linejoin="round"/>
<path d="M15 28.5L19.7819 21.6858C19.9224 21.4856 20.1314 21.3438 20.3694 21.2873L29.4729 19.1252C29.8017 19.0471 30.1477 19.1404 30.3928 19.3731L37.3329 25.9662C37.4429 26.0707 37.5751 26.1488 37.7197 26.1946L45 28.5" stroke="white" stroke-width="4" stroke-linecap="round" stroke-linejoin="round"/>
<g clip-path="url(#clip1_2004_135)">
<path d="M47.1601 6.16006C46.7641 6.55602 46.5417 7.09306 46.5417 7.65303V14.5136C46.5417 14.7909 46.5963 15.0654 46.7024 15.3216C46.8085 15.5778 46.964 15.8105 47.1601 16.0066C47.3562 16.2026 47.5889 16.3582 47.8451 16.4643C48.1012 16.5704 48.3758 16.625 48.6531 16.625H55.5136C55.7909 16.625 56.0655 16.5704 56.3216 16.4643C56.5778 16.3582 56.8106 16.2026 57.0066 16.0066C57.2027 15.8105 57.3582 15.5778 57.4643 15.3216C57.5704 15.0654 57.625 14.7909 57.625 14.5136V7.65303C57.625 7.37576 57.5704 7.10121 57.4643 6.84504C57.3582 6.58888 57.2027 6.35612 57.0066 6.16006C56.8106 5.964 56.5778 5.80848 56.3216 5.70238C56.0655 5.59627 55.7909 5.54166 55.5136 5.54166H48.6531C48.0931 5.54166 47.5561 5.7641 47.1601 6.16006Z" stroke="white" stroke-width="2" stroke-linecap="round" stroke-linejoin="round"/>
<path d="M44.1762 13.2501C43.9334 13.1117 43.7315 12.9117 43.5908 12.6702C43.4501 12.4288 43.3757 12.1544 43.375 11.875V3.95833C43.375 3.0875 44.0875 2.375 44.9583 2.375H52.875C53.4688 2.375 53.7918 2.67979 54.0625 3.16667" stroke="white" stroke-width="2" stroke-linecap="round" stroke-linejoin="round"/>
</g>
</g>
<defs>
<clipPath id="clip0_2004_135">
<rect width="60" height="57" fill="white"/>
</clipPath>
<clipPath id="clip1_2004_135">
<rect width="19" height="19" fill="white" transform="translate(41)"/>
</clipPath>
</defs>
</svg>
