<svg width="58" height="57" viewBox="0 0 58 57" fill="none" xmlns="http://www.w3.org/2000/svg">
<g clip-path="url(#clip0_2008_17)">
<path d="M26.0396 43.7285C26.7911 44.6168 27.869 45.125 29 45.125C29.5676 45.1208 30.1273 44.9935 30.6391 44.7521C31.1508 44.5107 31.602 44.1611 31.9604 43.7285L42.4995 31.2645C43.1463 30.4834 43.4995 29.5071 43.4995 28.5C43.4995 27.4929 43.1463 26.5166 42.4995 25.7355L31.9604 13.2715C31.2088 12.3832 30.131 11.875 29 11.875C28.4323 11.8792 27.8726 12.0065 27.3609 12.2479C26.8491 12.4893 26.3979 12.8389 26.0396 13.2715" stroke="white" stroke-width="4" stroke-linecap="round" stroke-linejoin="round"/>
<path d="M23.4941 44.7521C24.0059 44.5107 24.4571 44.1611 24.8154 43.7285L35.3545 31.2645C36.0014 30.4834 36.3546 29.5071 36.3546 28.5C36.3546 27.4929 36.0014 26.5166 35.3545 25.7355L24.8154 13.2715C24.0638 12.3832 22.986 11.875 21.855 11.875C21.2874 11.8792 20.7277 12.0065 20.2159 12.2479C19.7042 12.4893 19.253 12.8389 18.8946 13.2715L8.35551 25.7355C7.70865 26.5166 7.35547 27.4929 7.35547 28.5C7.35547 29.5071 7.70865 30.4834 8.35551 31.2645L18.8946 43.7285C19.6462 44.6168 20.724 45.125 21.855 45.125C22.4227 45.1208 22.9824 44.9935 23.4941 44.7521Z" stroke="white" stroke-width="4" stroke-linecap="round" stroke-linejoin="round"/>
</g>
<defs>
<clipPath id="clip0_2008_17">
<rect width="58" height="57" fill="white"/>
</clipPath>
</defs>
</svg>
