<svg width="57" height="57" viewBox="0 0 57 57" fill="none" xmlns="http://www.w3.org/2000/svg">
<g clip-path="url(#clip0_2010_147)">
<path d="M23.75 28.6354C24.0764 29.3391 24.5786 29.9469 25.2083 30.4C27.7258 32.0934 31.0793 30.666 32.4354 28.2174C34.428 24.624 32.3832 20.2184 28.8135 18.5274C24.0635 16.2711 18.4324 18.8931 16.3685 23.4816C13.7679 29.2576 17.0573 35.9456 22.8048 38.3159C29.7659 41.1849 37.7269 37.3231 40.47 30.5852C43.7 22.6456 39.1472 13.642 31.217 10.6115C22.0614 7.11074 11.742 12.2265 8.33153 21.1137C4.46028 31.2146 10.2862 42.5457 20.4013 46.2317C23.3795 47.3163 26.4497 47.6777 29.4321 47.4211" stroke="white" stroke-width="4" stroke-linecap="round" stroke-linejoin="round"/>
<path d="M49.5682 29.0338C49.7277 28.1227 49.8303 27.2012 49.875 26.2746" stroke="white" stroke-width="4" stroke-linecap="round" stroke-linejoin="round"/>
</g>
<defs>
<clipPath id="clip0_2010_147">
<rect width="57" height="57" fill="white"/>
</clipPath>
</defs>
</svg>
