<svg width="56" height="57" viewBox="0 0 56 57" fill="none" xmlns="http://www.w3.org/2000/svg">
<g clip-path="url(#clip0_2012_40)">
<path d="M23.3333 21.375H23.3558" stroke="white" stroke-width="4" stroke-linecap="round" stroke-linejoin="round"/>
<path d="M32.6667 21.375H32.6891" stroke="white" stroke-width="4" stroke-linecap="round" stroke-linejoin="round"/>
<path d="M39.5494 11.9943C36.4863 8.87656 32.3319 7.125 28 7.125C23.6681 7.125 19.5137 8.87418 16.4506 11.992C13.3875 15.1098 11.6667 19.3384 11.6667 23.7476V26.1226H9.33333C8.09565 26.1226 6.90867 26.6231 6.0335 27.5139C5.15833 28.4047 4.66666 29.6128 4.66666 30.8726C4.66666 32.1324 5.15833 33.3406 6.0335 34.2314C6.90867 35.1222 8.09565 35.6226 9.33333 35.6226H11.6667V36.1594C11.8026 39.8453 13.3373 43.334 15.9483 45.8919C18.5592 48.4498 22.0428 49.8776 25.6667 49.875H49L44.3333 42.75V35.625H46.6667C47.9043 35.625 49.0913 35.1246 49.9665 34.2338C50.8417 33.343 51.3333 32.1348 51.3333 30.875C51.3333 29.6152 50.8417 28.407 49.9665 27.5162C49.0913 26.6254 47.9043 26.125 46.6667 26.125H44.3333V23.75C44.3333 19.3408 42.6125 15.1121 39.5494 11.9943Z" stroke="white" stroke-width="4" stroke-linecap="round" stroke-linejoin="round"/>
<path d="M25.6667 33.25H30.3333C30.3333 32.6201 30.0875 32.016 29.6499 31.5706C29.2123 31.1252 28.6188 30.875 28 30.875C27.3812 30.875 26.7877 31.1252 26.3501 31.5706C25.9125 32.016 25.6667 32.6201 25.6667 33.25Z" stroke="white" stroke-width="4" stroke-linecap="round" stroke-linejoin="round"/>
</g>
<defs>
<clipPath id="clip0_2012_40">
<rect width="56" height="57" fill="white"/>
</clipPath>
</defs>
</svg>
