<?xml version="1.0" encoding="UTF-8"?>
<svg id="AniGround" xmlns="http://www.w3.org/2000/svg" viewBox="0 0 31.45 29.95">
  <defs>
    <style>
      .cls-1 {
        stroke-width: 2px;
      }

      .cls-1, .cls-2 {
        fill: none;
        stroke: #f97316;
        stroke-linecap: round;
        stroke-miterlimit: 10;
      }

      .cls-2 {
        stroke-width: 1.2px;
      }
    </style>
  </defs>
  <path class="cls-1" d="M20.63,12.89c0,.98-.29,1.92-.8,2.69-.18.3-.41.57-.65.82-.89.89-2.12,1.45-3.49,1.45h-.27c-1.75,0-3.3-.92-4.17-2.31-.5-.77-.77-1.68-.77-2.65,0-1.36.54-2.6,1.45-3.49.89-.89,2.12-1.45,3.49-1.45h.27c2.74,0,4.94,2.22,4.94,4.94Z"/>
  <path class="cls-1" d="M29.89,18.31l-13.95,3.55c-.15.05-.39.05-.53.02l-14.23-3.66c-.12-.03-.11-.09.05-.14l10.02-2.55c.88,1.39,2.42,2.31,4.17,2.31h.27c1.38,0,2.6-.56,3.49-1.45.24-.24.47-.51.65-.82l10.1,2.6c.14.03.12.09-.05.14Z"/>
  <g>
    <line class="cls-2" x1="24.5" y1="7.94" x2="24.62" y2="13.65"/>
    <line class="cls-2" x1="25.92" y1="12.82" x2="24.59" y2="14.23"/>
    <line class="cls-2" x1="24.58" y1="14.23" x2="23.25" y2="12.82"/>
  </g>
</svg>