<svg width="57" height="57" viewBox="0 0 57 57" fill="none" xmlns="http://www.w3.org/2000/svg">
<g clip-path="url(#clip0_2009_88)">
<g clip-path="url(#clip1_2009_88)">
<path d="M10.3334 14.25H47.6667" stroke="white" stroke-width="4" stroke-linecap="round" stroke-linejoin="round"/>
<path d="M15 28.5H43" stroke="white" stroke-width="4" stroke-linecap="round" stroke-linejoin="round"/>
<path d="M22 42.75H29" stroke="white" stroke-width="4" stroke-linecap="round" stroke-linejoin="round"/>
<path d="M50 40.375L40.6667 49.875L38.3334 45.125M38.3334 45.125C38.3334 47.0155 39.0707 48.8276 40.3844 50.1624C41.698 51.4995 43.4784 52.25 45.3334 52.25C47.1907 52.25 48.971 51.4995 50.2824 50.1624C51.596 48.8253 52.3334 47.0131 52.3334 45.125C52.3334 43.2345 51.596 41.4224 50.2824 40.0876C48.9687 38.7505 47.1884 38 45.3334 38C43.476 38 41.6957 38.7505 40.3844 40.0876C39.0707 41.4247 38.3334 43.2369 38.3334 45.125Z" stroke="white" stroke-width="4" stroke-linecap="round" stroke-linejoin="round"/>
</g>
</g>
<defs>
<clipPath id="clip0_2009_88">
<rect width="57" height="57" fill="white"/>
</clipPath>
<clipPath id="clip1_2009_88">
<rect width="56" height="57" fill="white" transform="translate(1)"/>
</clipPath>
</defs>
</svg>
