<svg width="58" height="57" viewBox="0 0 58 57" fill="none" xmlns="http://www.w3.org/2000/svg">
<g clip-path="url(#clip0_2006_189)">
<path d="M20.9724 44.7521C21.4842 44.5107 21.9354 44.1611 22.2938 43.7285L32.8328 31.2645C33.4797 30.4834 33.8329 29.5071 33.8329 28.5C33.8329 27.4929 33.4797 26.5166 32.8328 25.7355L22.2938 13.2715C21.5422 12.3832 20.4643 11.875 19.3333 11.875C18.7657 11.8792 18.206 12.0065 17.6942 12.2479C17.1825 12.4893 16.7313 12.8389 16.3729 13.2715L5.83385 25.7355C5.18698 26.5166 4.8338 27.4929 4.8338 28.5C4.8338 29.5071 5.18698 30.4834 5.83385 31.2645L16.3729 43.7285C17.1245 44.6168 18.2023 45.125 19.3333 45.125C19.901 45.1208 20.4607 44.9935 20.9724 44.7521Z" stroke="white" stroke-width="4" stroke-linecap="round" stroke-linejoin="round"/>
<path d="M31.4167 11.875L42.4995 25.7355C43.1464 26.5166 43.4995 27.4929 43.4995 28.5C43.4995 29.5071 43.1464 30.4834 42.4995 31.2645L31.4167 45.125" stroke="white" stroke-width="4" stroke-linecap="round" stroke-linejoin="round"/>
<path d="M42.0021 11.875L53.085 25.7355C53.7318 26.5166 54.085 27.4929 54.085 28.5C54.085 29.5071 53.7318 30.4834 53.085 31.2645L42.0021 45.125" stroke="white" stroke-width="4" stroke-linecap="round" stroke-linejoin="round"/>
</g>
<defs>
<clipPath id="clip0_2006_189">
<rect width="58" height="57" fill="white"/>
</clipPath>
</defs>
</svg>
