<svg width="58" height="57" viewBox="0 0 58 57" fill="none" xmlns="http://www.w3.org/2000/svg">
<g clip-path="url(#clip0_2006_179)">
<path d="M37.0276 44.7521C36.5158 44.5107 36.0646 44.1611 35.7062 43.7285L25.1672 31.2645C24.5203 30.4834 24.1671 29.5071 24.1671 28.5C24.1671 27.4929 24.5203 26.5166 25.1672 25.7355L35.7062 13.2715C36.4578 12.3832 37.5357 11.875 38.6667 11.875C39.2343 11.8792 39.794 12.0065 40.3058 12.2479C40.8175 12.4893 41.2687 12.8389 41.6271 13.2715L52.1662 25.7355C52.813 26.5166 53.1662 27.4929 53.1662 28.5C53.1662 29.5071 52.813 30.4834 52.1662 31.2645L41.6271 43.7285C40.8755 44.6168 39.7977 45.125 38.6667 45.125C38.099 45.1208 37.5393 44.9935 37.0276 44.7521Z" stroke="white" stroke-width="4" stroke-linecap="round" stroke-linejoin="round"/>
<path d="M26.5833 11.875L15.5005 25.7355C14.8536 26.5166 14.5005 27.4929 14.5005 28.5C14.5005 29.5071 14.8536 30.4834 15.5005 31.2645L26.5833 45.125" stroke="white" stroke-width="4" stroke-linecap="round" stroke-linejoin="round"/>
</g>
<defs>
<clipPath id="clip0_2006_179">
<rect width="58" height="57" transform="matrix(-1 0 0 1 58 0)" fill="white"/>
</clipPath>
</defs>
</svg>
