<svg width="78" height="57" viewBox="0 0 78 57" fill="none" xmlns="http://www.w3.org/2000/svg">
<g clip-path="url(#clip0_2008_12)">
<path d="M37.0276 44.7521C36.5158 44.5107 36.0646 44.1611 35.7062 43.7285L25.1672 31.2645C24.5203 30.4834 24.1671 29.5071 24.1671 28.5C24.1671 27.4929 24.5203 26.5166 25.1672 25.7355L35.7062 13.2715C36.4578 12.3832 37.5357 11.875 38.6667 11.875C39.2343 11.8792 39.794 12.0065 40.3058 12.2479C40.8175 12.4893 41.2687 12.8389 41.6271 13.2715L52.1662 25.7355C52.813 26.5166 53.1662 27.4929 53.1662 28.5C53.1662 29.5071 52.813 30.4834 52.1662 31.2645L41.6271 43.7285C40.8755 44.6168 39.7977 45.125 38.6667 45.125C38.099 45.1208 37.5393 44.9935 37.0276 44.7521Z" stroke="white" stroke-width="4" stroke-linecap="round" stroke-linejoin="round"/>
<path d="M26.5834 11.875L15.5005 25.7355C14.8537 26.5166 14.5005 27.4929 14.5005 28.5C14.5005 29.5071 14.8537 30.4834 15.5005 31.2645L26.5834 45.125" stroke="white" stroke-width="4" stroke-linecap="round" stroke-linejoin="round"/>
<path d="M15.9979 11.875L4.91503 25.7355C4.26816 26.5166 3.91499 27.4929 3.91499 28.5C3.91499 29.5071 4.26816 30.4834 4.91503 31.2645L15.9979 45.125" stroke="white" stroke-width="4" stroke-linecap="round" stroke-linejoin="round"/>
</g>
<g clip-path="url(#clip1_2008_12)">
<path d="M40.5349 44.7521C41.0467 44.5107 41.4979 44.1611 41.8563 43.7285L52.3953 31.2645C53.0422 30.4834 53.3954 29.5071 53.3954 28.5C53.3954 27.4929 53.0422 26.5166 52.3953 25.7355L41.8563 13.2715C41.1047 12.3832 40.0268 11.875 38.8958 11.875C38.3282 11.8792 37.7685 12.0065 37.2567 12.2479C36.745 12.4893 36.2938 12.8389 35.9354 13.2715L25.3963 25.7355C24.7495 26.5166 24.3963 27.4929 24.3963 28.5C24.3963 29.5071 24.7495 30.4834 25.3963 31.2645L35.9354 43.7285C36.687 44.6168 37.7648 45.125 38.8958 45.125C39.4635 45.1208 40.0232 44.9935 40.5349 44.7521Z" stroke="white" stroke-width="4" stroke-linecap="round" stroke-linejoin="round"/>
<path d="M50.9791 11.875L62.062 25.7355C62.7088 26.5166 63.062 27.4929 63.062 28.5C63.062 29.5071 62.7088 30.4834 62.062 31.2645L50.9791 45.125" stroke="white" stroke-width="4" stroke-linecap="round" stroke-linejoin="round"/>
<path d="M61.5646 11.875L72.6475 25.7355C73.2943 26.5166 73.6475 27.4929 73.6475 28.5C73.6475 29.5071 73.2943 30.4834 72.6475 31.2645L61.5646 45.125" stroke="white" stroke-width="4" stroke-linecap="round" stroke-linejoin="round"/>
</g>
<defs>
<clipPath id="clip0_2008_12">
<rect width="58" height="57" transform="matrix(-1 0 0 1 58 0)" fill="white"/>
</clipPath>
<clipPath id="clip1_2008_12">
<rect x="19.5625" width="58" height="57" fill="white"/>
</clipPath>
</defs>
</svg>
