<svg width="58" height="57" viewBox="0 0 58 57" fill="none" xmlns="http://www.w3.org/2000/svg">
<g clip-path="url(#clip0_2012_98)">
<path d="M20.9724 44.7521C21.4842 44.5107 21.9354 44.1611 22.2938 43.7285L32.8328 31.2645C33.4797 30.4834 33.8329 29.5071 33.8329 28.5C33.8329 27.4929 33.4797 26.5166 32.8328 25.7355L22.2938 13.2715C21.5422 12.3832 20.4643 11.875 19.3333 11.875C18.7657 11.8792 18.206 12.0065 17.6942 12.2479C17.1825 12.4893 16.7313 12.8389 16.3729 13.2715L5.83385 25.7355C5.18698 26.5166 4.8338 27.4929 4.8338 28.5C4.8338 29.5071 5.18698 30.4834 5.83385 31.2645L16.3729 43.7285C17.1245 44.6168 18.2023 45.125 19.3333 45.125C19.901 45.1208 20.4607 44.9935 20.9724 44.7521Z" stroke="white" stroke-width="4" stroke-linecap="round" stroke-linejoin="round"/>
<g clip-path="url(#clip1_2012_98)">
<path d="M28.125 49.5V45.5C28.125 44.7089 28.3596 43.9355 28.7991 43.2777C29.2386 42.6199 29.8634 42.1072 30.5943 41.8045C31.3252 41.5017 32.1294 41.4225 32.9054 41.5769C33.6813 41.7312 34.394 42.1122 34.9534 42.6716C35.5128 43.231 35.8938 43.9437 36.0481 44.7196C36.2025 45.4956 36.1233 46.2998 35.8205 47.0307C35.5178 47.7616 35.0051 48.3864 34.3473 48.8259C33.6895 49.2654 32.9161 49.5 32.125 49.5H28.125Z" stroke="white" stroke-width="2" stroke-linecap="round" stroke-linejoin="round"/>
<path d="M46.125 31.5C43.2708 31.8904 40.575 33.0441 38.3221 34.8394C36.0691 36.6347 34.3427 39.005 33.325 41.7" stroke="white" stroke-width="2" stroke-linecap="round" stroke-linejoin="round"/>
<path d="M46.125 31.5C45.7346 34.3542 44.5808 37.05 42.7855 39.3029C40.9902 41.5559 38.62 43.2823 35.925 44.3" stroke="white" stroke-width="2" stroke-linecap="round" stroke-linejoin="round"/>
<path d="M35.725 37.5C37.6681 38.3969 39.2281 39.9568 40.125 41.9" stroke="white" stroke-width="2" stroke-linecap="round" stroke-linejoin="round"/>
</g>
</g>
<defs>
<clipPath id="clip0_2012_98">
<rect width="58" height="57" fill="white"/>
</clipPath>
<clipPath id="clip1_2012_98">
<rect width="24" height="24" fill="white" transform="translate(25.125 28.5)"/>
</clipPath>
</defs>
</svg>
