<svg width="60" height="57" viewBox="0 0 60 57" fill="none" xmlns="http://www.w3.org/2000/svg">
<g clip-path="url(#clip0_2004_153)">
<path d="M30.7322 11.1794C30.2634 10.734 30 10.1299 30 9.5C30 8.87011 30.2634 8.26602 30.7322 7.82062C31.2011 7.37522 31.837 7.125 32.5 7.125C33.163 7.125 33.7989 7.37522 34.2678 7.82062C34.7366 8.26602 35 8.87011 35 9.5C35 10.1299 34.7366 10.734 34.2678 11.1794C33.7989 11.6248 33.163 11.875 32.5 11.875C31.837 11.875 31.2011 11.6248 30.7322 11.1794Z" fill="white" stroke="white" stroke-width="4" stroke-linecap="round" stroke-linejoin="round"/>
<path d="M17.5 49.875L25 40.375" stroke="white" stroke-width="4" stroke-linecap="round" stroke-linejoin="round"/>
<path d="M40 49.875L35.0767 40.5208C35.0259 40.4242 34.9597 40.3367 34.8806 40.2615L27.8889 33.6195C27.646 33.3887 27.5348 33.0516 27.5927 32.7217L30 19" stroke="white" stroke-width="4" stroke-linecap="round" stroke-linejoin="round"/>
<path d="M15 28.5L19.7819 21.6858C19.9224 21.4856 20.1314 21.3438 20.3694 21.2873L29.4729 19.1252C29.8017 19.0471 30.1477 19.1404 30.3928 19.3731L37.3329 25.9662C37.4429 26.0707 37.5751 26.1488 37.7197 26.1946L45 28.5" stroke="white" stroke-width="4" stroke-linecap="round" stroke-linejoin="round"/>
<g clip-path="url(#clip1_2004_153)">
<path d="M48.125 3.95834H46.5416C46.1217 3.95834 45.719 4.12516 45.4221 4.42209C45.1251 4.71902 44.9583 5.12175 44.9583 5.54168V15.0417C44.9583 15.4616 45.1251 15.8643 45.4221 16.1613C45.719 16.4582 46.1217 16.625 46.5416 16.625H54.4583C54.8782 16.625 55.281 16.4582 55.5779 16.1613C55.8748 15.8643 56.0416 15.4616 56.0416 15.0417V5.54168C56.0416 5.12175 55.8748 4.71902 55.5779 4.42209C55.281 4.12516 54.8782 3.95834 54.4583 3.95834H52.875" stroke="white" stroke-width="2" stroke-linecap="round" stroke-linejoin="round"/>
<path d="M48.125 3.95833C48.125 3.53841 48.2918 3.13568 48.5887 2.83875C48.8857 2.54181 49.2884 2.375 49.7083 2.375H51.2917C51.7116 2.375 52.1143 2.54181 52.4113 2.83875C52.7082 3.13568 52.875 3.53841 52.875 3.95833C52.875 4.37826 52.7082 4.78099 52.4113 5.07792C52.1143 5.37485 51.7116 5.54167 51.2917 5.54167H49.7083C49.2884 5.54167 48.8857 5.37485 48.5887 5.07792C48.2918 4.78099 48.125 4.37826 48.125 3.95833Z" stroke="white" stroke-width="2" stroke-linecap="round" stroke-linejoin="round"/>
</g>
</g>
<defs>
<clipPath id="clip0_2004_153">
<rect width="60" height="57" fill="white"/>
</clipPath>
<clipPath id="clip1_2004_153">
<rect width="19" height="19" fill="white" transform="translate(41)"/>
</clipPath>
</defs>
</svg>
