<?xml version="1.0" encoding="UTF-8"?>
<svg id="ResetPoseIco" xmlns="http://www.w3.org/2000/svg" viewBox="0 0 31.35 29.71">
  <defs>
    <style>
      .cls-1, .cls-2, .cls-3 {
        stroke-linecap: round;
      }

      .cls-1, .cls-2, .cls-3, .cls-4 {
        fill: none;
        fill-rule: evenodd;
        stroke: #f97316;
      }

      .cls-1, .cls-3, .cls-4 {
        stroke-miterlimit: 10;
      }

      .cls-1, .cls-4 {
        stroke-width: 2px;
      }

      .cls-2 {
        stroke-linejoin: round;
      }

      .cls-2, .cls-3 {
        stroke-width: 1.2px;
      }

      .cls-3 {
        stroke-dasharray: 0 0 1 2;
      }
    </style>
  </defs>
  <path id="Shape_2" data-name="Shape 2" class="cls-1" d="M6.14,14.89c2.73-2.18,6.87-4.89,10.49-3.17,2.87,1.36,6.52,6.74,10.4,4.89"/>
  <polyline id="Shape_3" data-name="Shape 3" class="cls-1" points="9.07 27.72 14.4 17.15 15.91 11.83"/>
  <polyline id="Shape_4" data-name="Shape 4" class="cls-1" points="19.35 28.27 19.35 20.13 14.48 17.32"/>
  <path id="Shape_1_copy" data-name="Shape 1 copy" class="cls-4" d="M18.99,8.54c-1.35,0-2.55-.79-3.17-1.92-.04-.08-.09-.16-.12-.25-.2-.45-.32-.95-.32-1.47,0-1.97,1.64-3.48,3.6-3.48s3.56,1.59,3.56,3.56-1.59,3.56-3.56,3.56Z"/>
  <path class="cls-3" d="M5.73.98c2.42-1.08,5.57.25,6.54,2.74,1.01,2.59-.4,5.46-2.67,6.45-2.55,1.12-5.27-.54-6.29-2.71-.83-1.78-.37-3.56-.22-4.08"/>
  <polyline class="cls-2" points="1.28 4.71 3.1 3.26 3.99 5.46"/>
  <polyline class="cls-2" points="7.59 2.15 7.72 5.56 5.24 7.4"/>
</svg>