<svg width="60" height="57" viewBox="0 0 60 57" fill="none" xmlns="http://www.w3.org/2000/svg">
<g clip-path="url(#clip0_2002_6)">
<path d="M30.7322 11.1794C30.2634 10.734 30 10.1299 30 9.5C30 8.87011 30.2634 8.26602 30.7322 7.82062C31.2011 7.37522 31.837 7.125 32.5 7.125C33.163 7.125 33.7989 7.37522 34.2678 7.82062C34.7366 8.26602 35 8.87011 35 9.5C35 10.1299 34.7366 10.734 34.2678 11.1794C33.7989 11.6248 33.163 11.875 32.5 11.875C31.837 11.875 31.2011 11.6248 30.7322 11.1794Z" fill="white" stroke="white" stroke-width="4" stroke-linecap="round" stroke-linejoin="round"/>
<path d="M17.5 49.875L25 40.375" stroke="white" stroke-width="4" stroke-linecap="round" stroke-linejoin="round"/>
<path d="M40 49.875L35.0767 40.5208C35.0259 40.4242 34.9597 40.3367 34.8806 40.2615L27.8889 33.6195C27.646 33.3887 27.5348 33.0516 27.5927 32.7217L30 19" stroke="white" stroke-width="4" stroke-linecap="round" stroke-linejoin="round"/>
<path d="M15 28.5L19.7819 21.6858C19.9224 21.4856 20.1314 21.3438 20.3694 21.2873L29.4729 19.1252C29.8017 19.0471 30.1477 19.1404 30.3928 19.3731L37.3329 25.9662C37.4429 26.0707 37.5751 26.1488 37.7197 26.1946L45 28.5" stroke="white" stroke-width="4" stroke-linecap="round" stroke-linejoin="round"/>
<g clip-path="url(#clip1_2002_6)">
<path d="M43.9286 11.6111L39.6429 7.38891L43.9286 3.16669" stroke="white" stroke-width="2" stroke-linecap="round" stroke-linejoin="round"/>
<path d="M39.6429 7.38889H51.4286C52.5652 7.38889 53.6553 7.83373 54.459 8.62555C55.2628 9.41737 55.7143 10.4913 55.7143 11.6111C55.7143 12.7309 55.2628 13.8048 54.459 14.5967C53.6553 15.3885 52.5652 15.8333 51.4286 15.8333H50.3571" stroke="white" stroke-width="2" stroke-linecap="round" stroke-linejoin="round"/>
</g>
</g>
<defs>
<clipPath id="clip0_2002_6">
<rect width="60" height="57" fill="white"/>
</clipPath>
<clipPath id="clip1_2002_6">
<rect width="25.7143" height="25.3333" fill="white" transform="translate(34.2857 -3.16666)"/>
</clipPath>
</defs>
</svg>
