<?xml version="1.0" encoding="UTF-8"?>
<svg id="SmartKey" xmlns="http://www.w3.org/2000/svg" viewBox="0 0 31.45 29.95">
  <defs>
    <style>
      .cls-1 {
        stroke-width: .75px;
      }

      .cls-1, .cls-2 {
        fill: none;
        stroke: #f97316;
        stroke-linecap: round;
        stroke-linejoin: round;
      }

      .cls-2 {
        stroke-width: 2px;
      }
    </style>
  </defs>
  <polygon class="cls-2" points="18.79 15.06 15.68 23.14 14.63 25.87 13.54 28.72 8.37 15.25 13.61 1.59 14.72 4.44 15.75 7.17 18.79 15.06"/>
  <g>
    <path class="cls-1" d="M21.87,1.86s.16,3.2,3.2,3.2c0,0-3.2-.02-3.2,3.29"/>
    <path class="cls-1" d="M21.87,1.86s-.16,3.2-3.2,3.2c0,0,3.2-.02,3.2,3.29"/>
  </g>
  <g>
    <path class="cls-1" d="M22.9,8.84s.09,1.86,1.87,1.86c0,0-1.87,0-1.87,1.92"/>
    <path class="cls-1" d="M22.9,8.84s-.09,1.86-1.87,1.86c0,0,1.87,0,1.87,1.92"/>
  </g>
</svg>