<svg width="57" height="57" viewBox="0 0 57 57" fill="none" xmlns="http://www.w3.org/2000/svg">
<g clip-path="url(#clip0_2005_397)">
<path d="M30.7044 50.4953C31.3926 50.1686 31.9994 49.6955 32.4814 49.11L46.6551 32.2414C47.525 31.1843 48 29.863 48 28.5C48 27.137 47.525 25.8157 46.6551 24.7586L32.4814 7.89C31.4706 6.68786 30.021 6 28.5 6C27.7366 6.00566 26.9839 6.17801 26.2956 6.50473C25.6074 6.83144 25.0006 7.30447 24.5186 7.89L10.3449 24.7586C9.47498 25.8157 9 27.137 9 28.5C9 29.863 9.47498 31.1843 10.3449 32.2414L24.5186 49.11C25.5294 50.3121 26.979 51 28.5 51C29.2634 50.9943 30.0161 50.822 30.7044 50.4953Z" stroke="white" stroke-width="4" stroke-linecap="round" stroke-linejoin="round"/>
<g clip-path="url(#clip1_2005_397)">
<path d="M34.3153 24.3778C34.2042 24.0896 33.9275 23.8994 33.6187 23.8994C33.468 23.8998 33.3208 23.9457 33.1966 24.031C33.0723 24.1164 32.9766 24.2372 32.9221 24.3778L31.5635 27.911C31.446 28.2167 31.2655 28.4942 31.0339 28.7257C30.8023 28.9572 30.5246 29.1375 30.2189 29.2548L26.6864 30.6135C26.5455 30.6675 26.4242 30.763 26.3387 30.8874C26.2532 31.0117 26.2074 31.1591 26.2074 31.3101C26.2074 31.461 26.2532 31.6084 26.3387 31.7328C26.4242 31.8572 26.5455 31.9527 26.6864 32.0067L30.2197 33.3653C30.5253 33.4828 30.8029 33.6633 31.0344 33.8949C31.2659 34.1265 31.4461 34.4042 31.5635 34.7099L32.9221 38.2424C32.9761 38.3833 33.0716 38.5046 33.196 38.5901C33.3204 38.6756 33.4678 38.7214 33.6187 38.7214C33.7697 38.7214 33.9171 38.6756 34.0414 38.5901C34.1658 38.5046 34.2613 38.3833 34.3153 38.2424L35.674 34.7091C35.7915 34.4035 35.9719 34.1259 36.2036 33.8944C36.4352 33.6629 36.7129 33.4827 37.0186 33.3653L40.551 32.0067C40.692 31.9527 40.8132 31.8572 40.8987 31.7328C40.9843 31.6084 41.0301 31.461 41.0301 31.3101C41.0301 31.1591 40.9843 31.0117 40.8987 30.8874C40.8132 30.763 40.692 30.6675 40.551 30.6135L37.0178 29.2548C36.7124 29.1369 36.435 28.9563 36.2036 28.7247C35.9722 28.4931 35.7918 28.2157 35.674 27.9102L34.3153 24.3778Z" stroke="white" stroke-width="2" stroke-linecap="round" stroke-linejoin="round"/>
</g>
</g>
<defs>
<clipPath id="clip0_2005_397">
<rect width="57" height="57" fill="white"/>
</clipPath>
<clipPath id="clip1_2005_397">
<rect width="24" height="24" fill="white" transform="translate(21 20)"/>
</clipPath>
</defs>
</svg>
