<svg width="57" height="57" viewBox="0 0 57 57" fill="none" xmlns="http://www.w3.org/2000/svg">
<g clip-path="url(#clip0_2005_391)">
<path d="M40.375 9.5C40.375 8.87011 40.6252 8.26602 41.0706 7.82062C41.516 7.37522 42.1201 7.125 42.75 7.125H47.5C48.1299 7.125 48.734 7.37522 49.1794 7.82062C49.6248 8.26602 49.875 8.87011 49.875 9.5V14.25C49.875 14.8799 49.6248 15.484 49.1794 15.9294C48.734 16.3748 48.1299 16.625 47.5 16.625H42.75C42.1201 16.625 41.516 16.3748 41.0706 15.9294C40.6252 15.484 40.375 14.8799 40.375 14.25V9.5Z" stroke="white" stroke-width="4" stroke-linecap="round" stroke-linejoin="round"/>
<path d="M7.125 42.75C7.125 42.1201 7.37522 41.516 7.82062 41.0706C8.26602 40.6252 8.87011 40.375 9.5 40.375H14.25C14.8799 40.375 15.484 40.6252 15.9294 41.0706C16.3748 41.516 16.625 42.1201 16.625 42.75V47.5C16.625 48.1299 16.3748 48.734 15.9294 49.1794C15.484 49.6248 14.8799 49.875 14.25 49.875H9.5C8.87011 49.875 8.26602 49.6248 7.82062 49.1794C7.37522 48.734 7.125 48.1299 7.125 47.5V42.75Z" stroke="white" stroke-width="4" stroke-linecap="round" stroke-linejoin="round"/>
<path d="M40.375 11.875C24.6359 11.875 11.875 24.6359 11.875 40.375" stroke="white" stroke-width="4" stroke-linecap="round" stroke-linejoin="round"/>
</g>
<defs>
<clipPath id="clip0_2005_391">
<rect width="57" height="57" fill="white"/>
</clipPath>
</defs>
</svg>
