<svg width="57" height="56" viewBox="0 0 57 56" fill="none" xmlns="http://www.w3.org/2000/svg">
<g clip-path="url(#clip0_2012_82)">
<path d="M21.375 11.6667H16.625C15.3652 11.6667 14.157 12.1583 13.2662 13.0335C12.3754 13.9087 11.875 15.0957 11.875 16.3333V44.3333C11.875 45.571 12.3754 46.758 13.2662 47.6332C14.157 48.5083 15.3652 49 16.625 49H40.375C41.6348 49 42.843 48.5083 43.7338 47.6332C44.6246 46.758 45.125 45.571 45.125 44.3333V16.3333C45.125 15.0957 44.6246 13.9087 43.7338 13.0335C42.843 12.1583 41.6348 11.6667 40.375 11.6667H35.625" stroke="white" stroke-width="4" stroke-linecap="round" stroke-linejoin="round"/>
<path d="M21.375 11.6667C21.375 10.429 21.8754 9.242 22.7662 8.36683C23.657 7.49167 24.8652 7 26.125 7H30.875C32.1348 7 33.343 7.49167 34.2338 8.36683C35.1246 9.242 35.625 10.429 35.625 11.6667C35.625 12.9043 35.1246 14.0913 34.2338 14.9665C33.343 15.8417 32.1348 16.3333 30.875 16.3333H26.125C24.8652 16.3333 23.657 15.8417 22.7662 14.9665C21.8754 14.0913 21.375 12.9043 21.375 11.6667Z" stroke="white" stroke-width="4" stroke-linecap="round" stroke-linejoin="round"/>
<path d="M35.0075 32.515L28.4834 39.0833L28.481 39.1043L21.9783 32.5127C21.1707 31.6873 20.7197 30.5869 20.7197 29.442C20.7197 28.2971 21.1707 27.1967 21.9783 26.3713C22.3716 25.9691 22.8437 25.649 23.3661 25.4304C23.8885 25.2117 24.4504 25.099 25.0183 25.099C25.5861 25.099 26.148 25.2117 26.6704 25.4304C27.1928 25.649 27.6649 25.9691 28.0583 26.3713L28.4929 26.8123L28.9275 26.3737C29.3209 25.9714 29.7929 25.6513 30.3153 25.4327C30.8377 25.2141 31.3997 25.1014 31.9675 25.1014C32.5353 25.1014 33.0973 25.2141 33.6197 25.4327C34.1421 25.6513 34.6141 25.9714 35.0075 26.3737C35.8145 27.1993 36.2652 28.2996 36.2652 29.4443C36.2652 30.589 35.8145 31.6894 35.0075 32.515Z" stroke="white" stroke-width="4" stroke-linecap="round" stroke-linejoin="round"/>
</g>
<defs>
<clipPath id="clip0_2012_82">
<rect width="57" height="56" fill="white"/>
</clipPath>
</defs>
</svg>
