<svg width="57" height="57" viewBox="0 0 57 57" fill="none" xmlns="http://www.w3.org/2000/svg">
<g clip-path="url(#clip0_2011_197)">
<path d="M9.5 36.8125C16.625 34.4375 22.5625 35.625 28.5 47.5C29.6875 40.375 32.0625 34.4375 35.625 28.5" stroke="white" stroke-width="4" stroke-linecap="round" stroke-linejoin="round"/>
<path d="M42.75 21.375C41.4902 21.375 40.282 20.8746 39.3912 19.9838C38.5004 19.093 38 17.8848 38 16.625C38 15.3652 38.5004 14.157 39.3912 13.2662C40.282 12.3754 41.4902 11.875 42.75 11.875C44.0098 11.875 45.218 12.3754 46.1088 13.2662C46.9996 14.157 47.5 15.3652 47.5 16.625C47.5 17.8848 46.9996 19.093 46.1088 19.9838C45.218 20.8746 44.0098 21.375 42.75 21.375Z" stroke="white" stroke-width="4" stroke-linecap="round" stroke-linejoin="round"/>
</g>
<defs>
<clipPath id="clip0_2011_197">
<rect width="57" height="57" fill="white"/>
</clipPath>
</defs>
</svg>
