<?xml version="1.0" encoding="UTF-8"?>
<svg xmlns="http://www.w3.org/2000/svg" xmlns:xlink="http://www.w3.org/1999/xlink" width="50px" height="50px" viewBox="0 0 50 50" version="1.1">
<g id="surface1">
<path style=" stroke:none;fill-rule:nonzero;fill:rgb(50.980392%,59.215686%,66.666667%);fill-opacity:1;" d="M 24.949219 45.558594 C 13.511719 45.558594 4.238281 36.285156 4.238281 24.851562 C 4.238281 13.414062 13.511719 4.140625 24.949219 4.140625 C 36.382812 4.140625 45.65625 13.414062 45.65625 24.851562 C 45.644531 36.28125 36.378906 45.546875 24.949219 45.558594 Z M 24.949219 7.59375 C 15.417969 7.59375 7.691406 15.320312 7.691406 24.851562 C 7.691406 34.378906 15.417969 42.105469 24.949219 42.105469 C 34.476562 42.105469 42.203125 34.378906 42.203125 24.851562 C 42.191406 15.324219 34.472656 7.605469 24.949219 7.59375 Z M 24.949219 7.59375 "/>
<path style=" stroke:none;fill-rule:nonzero;fill:rgb(50.980392%,59.215686%,66.666667%);fill-opacity:1;" d="M 28.398438 36.929688 L 24.949219 36.929688 L 24.949219 24.851562 L 21.496094 24.851562 L 21.496094 21.398438 L 24.949219 21.398438 C 26.851562 21.398438 28.398438 22.945312 28.398438 24.851562 Z M 28.398438 36.929688 "/>
<path style=" stroke:none;fill-rule:nonzero;fill:rgb(50.980392%,59.215686%,66.666667%);fill-opacity:1;" d="M 27.535156 15.359375 C 27.535156 16.789062 26.375 17.949219 24.949219 17.949219 C 23.519531 17.949219 22.359375 16.789062 22.359375 15.359375 C 22.359375 13.929688 23.519531 12.769531 24.949219 12.769531 C 26.375 12.769531 27.535156 13.929688 27.535156 15.359375 Z M 27.535156 15.359375 "/>
</g>
</svg>
