<?xml version="1.0" encoding="UTF-8"?>
<svg xmlns="http://www.w3.org/2000/svg" xmlns:xlink="http://www.w3.org/1999/xlink" width="50px" height="50px" viewBox="0 0 50 50" version="1.1">
<g id="surface2">
<path style=" stroke:none;fill-rule:nonzero;fill:rgb(45.098039%,79.607843%,54.117647%);fill-opacity:1;" d="M 37.332031 24.898438 C 37.332031 26.21875 36.261719 27.289062 34.941406 27.289062 L 27.769531 27.289062 L 27.769531 34.460938 C 27.769531 35.78125 26.699219 36.851562 25.378906 36.851562 C 24.058594 36.851562 22.988281 35.78125 22.988281 34.460938 L 22.988281 27.289062 L 15.816406 27.289062 C 14.496094 27.289062 13.425781 26.21875 13.425781 24.898438 C 13.425781 23.578125 14.496094 22.507812 15.816406 22.507812 L 22.988281 22.507812 L 22.988281 15.335938 C 22.988281 14.015625 24.058594 12.945312 25.378906 12.945312 C 26.699219 12.945312 27.769531 14.015625 27.769531 15.335938 L 27.769531 22.507812 L 34.941406 22.507812 C 36.261719 22.507812 37.332031 23.578125 37.332031 24.898438 Z M 37.332031 24.898438 "/>
</g>
</svg>
