<?xml version="1.0" encoding="UTF-8"?>
<svg xmlns="http://www.w3.org/2000/svg" xmlns:xlink="http://www.w3.org/1999/xlink" width="50px" height="50px" viewBox="0 0 50 50" version="1.1">
<g id="surface2">
<path style=" stroke:none;fill-rule:nonzero;fill:rgb(52.941176%,54.117647%,56.470588%);fill-opacity:1;" d="M 11.09375 8.941406 L 19.527344 8.941406 C 21.574219 8.941406 23.238281 10.601562 23.238281 12.652344 L 23.238281 20.410156 C 23.238281 22.460938 21.574219 24.121094 19.527344 24.121094 L 11.09375 24.121094 C 9.042969 24.121094 7.382812 22.460938 7.382812 20.410156 L 7.382812 12.652344 C 7.382812 10.601562 9.042969 8.941406 11.09375 8.941406 Z M 11.09375 8.941406 "/>
<path style=" stroke:none;fill-rule:nonzero;fill:rgb(38.039216%,61.176471%,55.294118%);fill-opacity:1;" d="M 11.070312 26.632812 L 19.488281 26.632812 C 21.535156 26.632812 23.195312 28.292969 23.195312 30.339844 L 23.195312 38.082031 C 23.195312 40.128906 21.535156 41.789062 19.488281 41.789062 L 11.070312 41.789062 C 9.023438 41.789062 7.367188 40.128906 7.367188 38.082031 L 7.367188 30.339844 C 7.367188 28.292969 9.023438 26.632812 11.070312 26.632812 Z M 11.070312 26.632812 "/>
<path style=" stroke:none;fill-rule:nonzero;fill:rgb(76.078431%,50.980392%,48.627451%);fill-opacity:1;" d="M 31.027344 26.613281 L 39.453125 26.613281 C 41.5 26.613281 43.160156 28.273438 43.160156 30.320312 L 43.160156 38.074219 C 43.160156 40.121094 41.5 41.78125 39.453125 41.78125 L 31.027344 41.78125 C 28.980469 41.78125 27.320312 40.121094 27.320312 38.074219 L 27.320312 30.320312 C 27.320312 28.273438 28.980469 26.613281 31.027344 26.613281 Z M 31.027344 26.613281 "/>
<path style=" stroke:none;fill-rule:nonzero;fill:rgb(89.411765%,89.411765%,89.411765%);fill-opacity:1;" d="M 34.246094 8.816406 C 33.535156 8.816406 32.960938 9.019531 32.960938 9.730469 L 32.960938 14.292969 L 28.402344 14.304688 C 27.691406 14.308594 27.492188 14.882812 27.492188 15.59375 L 27.5 17.429688 C 27.5 18.140625 27.707031 18.710938 28.417969 18.707031 L 32.960938 18.695312 L 32.960938 23.238281 C 32.960938 23.949219 33.535156 24.152344 34.246094 24.152344 L 36.082031 24.152344 C 36.792969 24.152344 37.367188 23.949219 37.367188 23.238281 L 37.367188 18.679688 L 41.925781 18.664062 C 42.636719 18.664062 42.835938 18.085938 42.835938 17.375 L 42.828125 15.542969 C 42.824219 14.832031 42.621094 14.257812 41.910156 14.261719 L 37.367188 14.277344 L 37.367188 9.730469 C 37.367188 9.019531 36.792969 8.816406 36.082031 8.816406 Z M 34.246094 8.816406 "/>
</g>
</svg>
