<?xml version="1.0" encoding="UTF-8"?>
<svg xmlns="http://www.w3.org/2000/svg" xmlns:xlink="http://www.w3.org/1999/xlink" width="50px" height="50px" viewBox="0 0 50 50" version="1.1">
<g id="surface1">
<path style=" stroke:none;fill-rule:nonzero;fill:rgb(52.941176%,57.647059%,55.686275%);fill-opacity:1;" d="M 10.519531 24.59375 L 30.703125 24.59375 C 33.152344 24.59375 35.136719 26.582031 35.136719 29.03125 L 35.136719 38.453125 C 35.136719 40.902344 33.152344 42.886719 30.703125 42.886719 L 10.519531 42.886719 C 8.070312 42.886719 6.085938 40.902344 6.085938 38.453125 L 6.085938 29.03125 C 6.085938 26.582031 8.070312 24.59375 10.519531 24.59375 Z M 10.519531 24.59375 "/>
<path style=" stroke:none;fill-rule:nonzero;fill:rgb(34.117647%,49.411765%,43.137255%);fill-opacity:1;" d="M 20.011719 7.492188 L 38.265625 7.492188 C 41.0625 7.492188 43.328125 9.757812 43.328125 12.554688 L 43.328125 21.941406 C 43.328125 24.738281 41.0625 27.003906 38.265625 27.003906 L 20.011719 27.003906 C 17.214844 27.003906 14.949219 24.738281 14.949219 21.941406 L 14.949219 12.554688 C 14.949219 9.757812 17.214844 7.492188 20.011719 7.492188 Z M 20.011719 7.492188 "/>
<path style=" stroke:none;fill-rule:nonzero;fill:rgb(92.156863%,92.156863%,92.156863%);fill-opacity:1;" d="M 16.03125 28.320312 L 25.167969 28.332031 L 25.164062 32.25 C 25.160156 32.882812 25.648438 33.554688 26.464844 33.554688 C 27.066406 33.558594 27.375 33.183594 27.773438 32.851562 L 34.796875 27.042969 C 35.296875 26.632812 35.613281 26.320312 35.617188 25.738281 C 35.617188 25.15625 35.300781 24.839844 34.800781 24.429688 L 27.792969 18.597656 C 27.394531 18.265625 27.089844 17.890625 26.488281 17.890625 C 25.671875 17.890625 25.183594 18.5625 25.183594 19.195312 L 25.175781 23.109375 L 16.039062 23.097656 C 15.320312 23.097656 14.730469 23.683594 14.730469 24.402344 L 14.726562 27.011719 C 14.726562 27.730469 15.3125 28.320312 16.03125 28.320312 Z M 16.03125 28.320312 "/>
</g>
</svg>
