<svg width="50px" height="50px" version="1.1" viewBox="0 0 50 50" xmlns="http://www.w3.org/2000/svg">
 <path d="m4.5911 6.7376c21.448-0.029774 19.113 31.655 20.196 31.639 1.0828-0.015903-1.3489-31.207 21.003-31.394" fill="none" stroke="#ea6d81" stroke-dashoffset="4.8708" stroke-linecap="round" stroke-linejoin="bevel" stroke-width="4.565" style="paint-order:stroke fill markers"/>
 <g stroke-dashoffset="4.8708" stroke-linecap="round" stroke-linejoin="bevel">
  <path d="m28.354 39.5a3.8339 3.5144 0 0 1-3.8301 3.5144 3.8339 3.5144 0 0 1-3.8376-3.5075 3.8339 3.5144 0 0 1 3.8225-3.5213 3.8339 3.5144 0 0 1 3.8452 3.5005" fill="#e6e6e6" stroke="#313131" stroke-width=".9" style="paint-order:stroke fill markers"/>
  <rect transform="matrix(.65687 .754 -.75163 .65959 0 0)" x="45.563" y="-17.823" width="2.0181" height="20.88" ry=".23728" fill="#f1f1f1" stroke="#2d2d2d" stroke-width="1.1027" style="paint-order:stroke fill markers"/>
  <rect transform="matrix(.65879 .75232 -.75315 .65785 0 0)" x="43.511" y="-21.3" width="6.0241" height="4.7491" ry=".19788" fill="#eaeaea" stroke="#2b2b2b" stroke-width=".94355" style="paint-order:stroke fill markers"/>
  <rect transform="matrix(.65257 -.75773 .76008 .64983 0 0)" x="-15.385" y="19.341" width="2.0181" height="20.88" ry=".23728" fill="#f1f1f1" stroke="#2d2d2d" stroke-width="1.1027" style="paint-order:stroke fill markers"/>
  <rect transform="matrix(.65063 -.75939 .75858 .65158 0 0)" x="-17.351" y="15.709" width="6.0241" height="4.7491" ry=".19788" fill="#eaeaea" stroke="#2b2b2b" stroke-width=".94355" style="paint-order:stroke fill markers"/>
 </g>
</svg>
