<?xml version="1.0" encoding="UTF-8"?>
<svg xmlns="http://www.w3.org/2000/svg" xmlns:xlink="http://www.w3.org/1999/xlink" width="50px" height="50px" viewBox="0 0 50 50" version="1.1">
<g id="surface1">
<path style=" stroke:none;fill-rule:nonzero;fill:rgb(79.215686%,38.039216%,38.039216%);fill-opacity:1;" d="M 5.503906 35.863281 L 5.503906 42.203125 C 5.503906 43.078125 6.210938 43.785156 7.085938 43.785156 C 7.960938 43.785156 8.671875 43.078125 8.671875 42.203125 L 8.671875 35.863281 L 13.316406 35.863281 C 15.679688 39.796875 19.929688 42.199219 24.519531 42.199219 C 29.109375 42.199219 33.359375 39.796875 35.722656 35.863281 L 40.367188 35.863281 L 40.367188 42.203125 C 40.367188 43.078125 41.078125 43.785156 41.953125 43.785156 C 42.828125 43.785156 43.535156 43.078125 43.535156 42.203125 L 43.535156 35.863281 C 43.535156 34.113281 42.117188 32.691406 40.367188 32.691406 L 37.113281 32.691406 C 37.453125 31.523438 37.628906 30.308594 37.628906 29.089844 C 37.625 28.546875 37.585938 28.003906 37.515625 27.460938 L 37.238281 26.355469 L 41.953125 26.355469 C 42.828125 26.355469 43.535156 25.644531 43.535156 24.769531 C 43.535156 23.894531 42.828125 23.183594 41.953125 23.183594 L 36.441406 23.183594 L 34.839844 16.84375 L 40.367188 16.84375 C 42.117188 16.84375 43.535156 15.425781 43.535156 13.675781 L 43.535156 7.335938 C 43.535156 6.460938 42.828125 5.75 41.953125 5.75 C 41.078125 5.75 40.367188 6.460938 40.367188 7.335938 L 40.367188 13.675781 L 34.027344 13.675781 C 34 13.675781 33.976562 13.691406 33.949219 13.691406 C 32.398438 9.847656 28.671875 7.335938 24.527344 7.335938 C 20.382812 7.335938 16.65625 9.847656 15.105469 13.691406 C 15.074219 13.691406 15.042969 13.675781 15.011719 13.675781 L 8.671875 13.675781 L 8.671875 7.335938 C 8.671875 6.460938 7.960938 5.75 7.085938 5.75 C 6.210938 5.75 5.503906 6.460938 5.503906 7.335938 L 5.503906 13.675781 C 5.503906 15.425781 6.921875 16.84375 8.671875 16.84375 L 14.195312 16.84375 L 12.589844 23.183594 L 7.085938 23.183594 C 6.210938 23.183594 5.503906 23.894531 5.503906 24.769531 C 5.503906 25.644531 6.210938 26.355469 7.085938 26.355469 L 11.785156 26.355469 L 11.554688 27.261719 L 11.523438 27.464844 C 11.453125 28.003906 11.417969 28.550781 11.414062 29.097656 C 11.414062 30.316406 11.585938 31.523438 11.925781 32.691406 L 8.671875 32.691406 C 6.921875 32.691406 5.503906 34.113281 5.503906 35.863281 Z M 5.503906 35.863281 "/>
</g>
</svg>
