<?xml version="1.0" encoding="UTF-8"?>
<svg xmlns="http://www.w3.org/2000/svg" xmlns:xlink="http://www.w3.org/1999/xlink" width="50px" height="50px" viewBox="0 0 50 50" version="1.1">
<g id="surface2">
<path style=" stroke:none;fill-rule:nonzero;fill:rgb(100%,100%,100%);fill-opacity:1;" d="M 11.578125 18.667969 L 30.039062 18.667969 C 30.144531 18.667969 30.234375 18.753906 30.234375 18.863281 L 30.234375 36.515625 C 30.234375 36.621094 30.144531 36.710938 30.039062 36.710938 L 11.578125 36.710938 C 11.46875 36.710938 11.382812 36.621094 11.382812 36.515625 L 11.382812 18.863281 C 11.382812 18.753906 11.46875 18.667969 11.578125 18.667969 Z M 11.578125 18.667969 "/>
<path style=" stroke:none;fill-rule:nonzero;fill:rgb(34.117647%,49.411765%,43.137255%);fill-opacity:1;" d="M 28.226562 12.753906 L 14.488281 12.753906 C 9.753906 12.753906 5.902344 16.605469 5.902344 21.339844 L 5.902344 31.644531 C 5.902344 36.378906 9.753906 40.230469 14.488281 40.230469 L 28.226562 40.230469 C 32.960938 40.230469 36.8125 36.378906 36.8125 31.644531 L 36.8125 21.339844 C 36.8125 16.605469 32.960938 12.753906 28.226562 12.753906 Z M 26.511719 28.207031 L 23.074219 28.207031 L 23.074219 31.644531 C 23.074219 32.589844 22.304688 33.359375 21.359375 33.359375 C 20.410156 33.359375 19.640625 32.589844 19.640625 31.644531 L 19.640625 28.207031 L 16.207031 28.207031 C 15.257812 28.207031 14.488281 27.4375 14.488281 26.492188 C 14.488281 25.542969 15.257812 24.773438 16.207031 24.773438 L 19.640625 24.773438 L 19.640625 21.339844 C 19.640625 20.390625 20.410156 19.621094 21.359375 19.621094 C 22.304688 19.621094 23.074219 20.390625 23.074219 21.339844 L 23.074219 24.773438 L 26.511719 24.773438 C 27.457031 24.773438 28.226562 25.542969 28.226562 26.492188 C 28.226562 27.4375 27.457031 28.207031 26.511719 28.207031 Z M 44.9375 20.140625 L 44.9375 32.710938 C 44.9375 34.011719 44.214844 35.179688 43.054688 35.757812 C 42.566406 36 42.046875 36.121094 41.527344 36.121094 C 40.804688 36.121094 40.089844 35.890625 39.484375 35.4375 C 39.421875 35.386719 38.066406 34.046875 38.066406 34.046875 L 38.066406 18.820312 C 38.066406 18.820312 39.417969 17.46875 39.484375 17.417969 C 40.523438 16.636719 41.886719 16.511719 43.054688 17.09375 C 44.21875 17.675781 44.9375 18.84375 44.9375 20.144531 Z M 44.9375 20.140625 "/>
</g>
</svg>
