<?xml version="1.0" encoding="UTF-8"?>
<svg xmlns="http://www.w3.org/2000/svg" xmlns:xlink="http://www.w3.org/1999/xlink" width="50px" height="50px" viewBox="0 0 50 50" version="1.1">
<g id="surface2">
<path style=" stroke:none;fill-rule:nonzero;fill:rgb(79.215686%,26.666667%,30.980392%);fill-opacity:1;" d="M 34.890625 18.984375 C 32.890625 19.515625 31.699219 21.570312 32.230469 23.570312 C 32.761719 25.570312 34.816406 26.765625 36.816406 26.234375 C 38.820312 25.703125 40.011719 23.648438 39.480469 21.644531 C 38.949219 19.644531 36.894531 18.453125 34.890625 18.984375 Z M 34.890625 18.984375 "/>
<path style=" stroke:none;fill-rule:nonzero;fill:rgb(89.411765%,84.313725%,43.529412%);fill-opacity:1;" d="M 24.503906 10.867188 C 22.335938 11.441406 21.042969 13.667969 21.621094 15.835938 C 22.195312 18.007812 24.421875 19.296875 26.589844 18.722656 C 28.761719 18.144531 30.050781 15.921875 29.476562 13.75 C 28.902344 11.582031 26.675781 10.289062 24.503906 10.867188 Z M 24.503906 10.867188 "/>
<path style=" stroke:none;fill-rule:nonzero;fill:rgb(64.705882%,89.411765%,43.529412%);fill-opacity:1;" d="M 13.617188 18.539062 C 11.617188 19.070312 10.421875 21.125 10.957031 23.128906 C 11.488281 25.128906 13.539062 26.320312 15.542969 25.789062 C 17.542969 25.257812 18.734375 23.203125 18.203125 21.203125 C 17.671875 19.199219 15.617188 18.007812 13.617188 18.539062 Z M 13.617188 18.539062 "/>
<path style=" stroke:none;fill-rule:nonzero;fill:rgb(43.529412%,70.588235%,89.411765%);fill-opacity:1;" d="M 16.816406 29.484375 C 14.8125 30.019531 13.621094 32.070312 14.152344 34.074219 C 14.6875 36.074219 16.738281 37.265625 18.742188 36.734375 C 20.742188 36.203125 21.933594 34.148438 21.402344 32.148438 C 20.871094 30.144531 18.816406 28.953125 16.816406 29.484375 Z M 16.816406 29.484375 "/>
<path style=" stroke:none;fill-rule:nonzero;fill:rgb(89.411765%,43.529412%,72.941176%);fill-opacity:1;" d="M 30.800781 30.65625 C 28.796875 31.1875 27.605469 33.242188 28.136719 35.242188 C 28.667969 37.242188 30.722656 38.433594 32.722656 37.902344 C 34.726562 37.371094 35.917969 35.320312 35.386719 33.316406 C 34.855469 31.316406 32.800781 30.125 30.800781 30.65625 Z M 30.800781 30.65625 "/>
</g>
</svg>
