<?xml version="1.0" encoding="UTF-8"?>
<svg xmlns="http://www.w3.org/2000/svg" xmlns:xlink="http://www.w3.org/1999/xlink" width="50px" height="50px" viewBox="0 0 50 50" version="1.1">
<g id="surface2">
<path style=" stroke:none;fill-rule:nonzero;fill:rgb(61.568627%,66.27451%,64.313725%);fill-opacity:1;" d="M 26.320312 33.460938 C 26.3125 32.359375 25.417969 31.476562 24.316406 31.480469 C 23.21875 31.488281 22.332031 32.382812 22.339844 33.484375 C 22.347656 34.585938 23.242188 35.46875 24.34375 35.460938 C 25.441406 35.457031 26.328125 34.5625 26.320312 33.460938 Z M 26.320312 33.460938 "/>
<path style=" stroke:none;fill-rule:nonzero;fill:rgb(61.568627%,66.27451%,64.313725%);fill-opacity:1;" d="M 26.28125 25.691406 C 26.273438 24.589844 25.378906 23.707031 24.277344 23.714844 C 23.175781 23.722656 22.292969 24.617188 22.300781 25.71875 C 22.304688 26.816406 23.199219 27.703125 24.300781 27.695312 C 25.402344 27.6875 26.285156 26.792969 26.28125 25.691406 Z M 26.28125 25.691406 "/>
<path style=" stroke:none;fill-rule:nonzero;fill:rgb(61.568627%,66.27451%,64.313725%);fill-opacity:1;" d="M 26.238281 17.925781 C 26.234375 16.824219 25.339844 15.941406 24.238281 15.949219 C 23.136719 15.953125 22.253906 16.847656 22.257812 17.949219 C 22.265625 19.050781 23.160156 19.933594 24.261719 19.929688 C 25.363281 19.921875 26.246094 19.027344 26.238281 17.925781 Z M 26.238281 17.925781 "/>
<path style=" stroke:none;fill-rule:nonzero;fill:rgb(34.117647%,49.411765%,43.137255%);fill-opacity:1;" d="M 44.351562 28.148438 L 36.066406 36.535156 L 32.832031 33.339844 L 38.332031 27.773438 L 29.335938 27.90625 L 29.308594 23.359375 L 38.289062 23.226562 L 32.722656 17.726562 L 35.914062 14.496094 L 44.320312 22.78125 C 45.753906 24.199219 45.78125 26.699219 44.351562 28.148438 Z M 44.351562 28.148438 "/>
<path style=" stroke:none;fill-rule:nonzero;fill:rgb(34.117647%,49.411765%,43.137255%);fill-opacity:1;" d="M 4.273438 22.941406 L 12.628906 14.621094 L 15.835938 17.84375 L 10.289062 23.363281 L 19.285156 23.3125 L 19.277344 27.859375 L 10.296875 27.910156 L 15.816406 33.457031 L 12.597656 36.664062 L 4.261719 28.304688 C 2.839844 26.878906 2.832031 24.375 4.273438 22.941406 Z M 4.273438 22.941406 "/>
</g>
</svg>
