<?xml version="1.0" encoding="UTF-8"?>
<svg xmlns="http://www.w3.org/2000/svg" xmlns:xlink="http://www.w3.org/1999/xlink" width="50px" height="50px" viewBox="0 0 50 50" version="1.1">
<g id="surface2">
<path style="fill:none;stroke-width:3.3805;stroke-linecap:round;stroke-linejoin:round;stroke:rgb(34.117647%,49.411765%,43.137255%);stroke-opacity:1;stroke-miterlimit:4;" d="M 36.722513 56.681467 C 48.431376 56.681467 57.925344 47.187499 57.925344 35.478636 C 57.925344 23.764304 48.431376 14.270335 36.722513 14.270335 C 25.00818 14.270335 15.514212 23.764304 15.514212 35.478636 C 15.514212 47.187499 25.00818 56.681467 36.722513 56.681467 Z M 36.722513 56.681467 " transform="matrix(0.714269,0,0,0.714269,-2.874294,-0.599112)"/>
<path style="fill-rule:nonzero;fill:rgb(0%,0%,0%);fill-opacity:1;stroke-width:3.3805;stroke-linecap:round;stroke-linejoin:round;stroke:rgb(34.117647%,49.411765%,43.137255%);stroke-opacity:1;stroke-miterlimit:4;" d="M 28.240286 16.392259 L 30.36221 16.392259 C 26.222271 28.779263 26.222271 42.178009 30.36221 54.565013 L 28.240286 54.565013 " transform="matrix(0.714269,0,0,0.714269,-2.874294,-0.599112)"/>
<path style="fill:none;stroke-width:3.3805;stroke-linecap:round;stroke-linejoin:round;stroke:rgb(34.117647%,49.411765%,43.137255%);stroke-opacity:1;stroke-miterlimit:4;" d="M 43.082815 16.392259 C 47.217285 28.779263 47.217285 42.178009 43.082815 54.565013 " transform="matrix(0.714269,0,0,0.714269,-2.874294,-0.599112)"/>
<path style="fill-rule:nonzero;fill:rgb(0%,0%,0%);fill-opacity:1;stroke-width:3.3805;stroke-linecap:round;stroke-linejoin:round;stroke:rgb(34.117647%,49.411765%,43.137255%);stroke-opacity:1;stroke-miterlimit:4;" d="M 17.636136 43.960862 L 17.636136 41.838938 C 30.017671 45.973409 43.421886 45.973409 55.803421 41.838938 L 55.803421 43.960862 " transform="matrix(0.714269,0,0,0.714269,-2.874294,-0.599112)"/>
<path style="fill:none;stroke-width:3.3805;stroke-linecap:round;stroke-linejoin:round;stroke:rgb(34.117647%,49.411765%,43.137255%);stroke-opacity:1;stroke-miterlimit:4;" d="M 17.636136 29.118333 C 30.017671 24.983863 43.421886 24.983863 55.803421 29.118333 " transform="matrix(0.714269,0,0,0.714269,-2.874294,-0.599112)"/>
<path style="fill-rule:nonzero;fill:rgb(34.117647%,49.411765%,43.137255%);fill-opacity:1;stroke-width:2.8292;stroke-linecap:round;stroke-linejoin:bevel;stroke:rgb(34.117647%,49.411765%,43.137255%);stroke-opacity:1;stroke-miterlimit:4;" d="M 38.987236 36.318825 L 58.420706 36.318825 C 59.678358 36.318825 60.700885 37.341351 60.700885 38.604472 L 60.700885 58.245728 C 60.700885 59.508849 59.678358 60.525907 58.420706 60.525907 L 38.987236 60.525907 C 37.724115 60.525907 36.701589 59.508849 36.701589 58.245728 L 36.701589 38.604472 C 36.701589 37.341351 37.724115 36.318825 38.987236 36.318825 Z M 38.987236 36.318825 " transform="matrix(0.714376,0,0,0.714376,0,-0.000000000000002865)"/>
<path style=" stroke:none;fill-rule:nonzero;fill:rgb(94.117647%,94.117647%,94.117647%);fill-opacity:1;" d="M 36.84375 39.769531 L 36.746094 34.808594 L 38.964844 34.808594 C 39.324219 34.808594 39.699219 34.542969 39.691406 34.097656 C 39.683594 33.773438 39.46875 33.605469 39.277344 33.390625 L 35.902344 29.578125 C 35.667969 29.308594 35.484375 29.136719 35.15625 29.136719 C 34.828125 29.136719 34.648438 29.308594 34.425781 29.578125 L 31.203125 33.386719 C 31.019531 33.605469 30.808594 33.769531 30.816406 34.097656 C 30.824219 34.539062 31.210938 34.804688 31.570312 34.804688 L 33.789062 34.804688 L 33.886719 39.765625 C 33.894531 40.15625 34.234375 40.476562 34.640625 40.476562 L 36.121094 40.476562 C 36.527344 40.476562 36.851562 40.15625 36.84375 39.769531 Z M 36.84375 39.769531 "/>
</g>
</svg>
