<svg width="50px" height="50px" version="1.1" viewBox="0 0 50 50" xmlns="http://www.w3.org/2000/svg">
 <g transform="translate(2)">
  <path d="m41.859 26.426c0 1.3008-1.0547 2.3594-2.3594 2.3594h-4.5078c-1.9297-0.007812-3.7148-1.0195-4.7109-2.6719l-1.9258-3.1953-2.8125 6.8555 4.1055 2.3359c1.7227 0.97656 2.7852 2.8047 2.7852 4.7852v5.2422c-0.0078 1.2969-1.0625 2.3438-2.3594 2.3438s-2.3477-1.0469-2.3555-2.3438v-5.2422c0-0.28125-0.15234-0.54297-0.39453-0.67969l-6.4141-3.6523c-2.3125-1.4062-3.2617-4.2812-2.2422-6.7891l1.9805-4.8438h-2.7695c-0.29688 0-0.57031 0.16797-0.70312 0.43359l-2.2734 4.5469c-0.58594 1.1562-1.9961 1.625-3.1562 1.043-1.1602-0.57812-1.6328-1.9883-1.0625-3.1523l2.2734-4.5469c0.92969-1.8672 2.8359-3.0469 4.9219-3.0391h8.8359c1.9297 0.0078 3.7148 1.0195 4.7109 2.6719l2.8906 4.8047c0.14453 0.23438 0.40234 0.37891 0.67578 0.37891h4.5117c1.3008 0 2.3555 1.0547 2.3555 2.3555zm-23.477 6.8359c-1.2109-0.48438-2.582 0.10547-3.0625 1.3125-0.12109 0.29688-0.41016 0.49219-0.73047 0.49219h-3.3672c-1.2969 0.0078-2.3438 1.0625-2.3438 2.3594 0 1.293 1.0469 2.3477 2.3438 2.3555h3.3672c2.25 0.0078 4.2773-1.3633 5.1055-3.457 0.48438-1.207-0.10547-2.582-1.3125-3.0625zm10.121-18.617c2.168 0 3.9297-1.7578 3.9297-3.9297 0-2.168-1.7617-3.9258-3.9297-3.9258-2.168 0-3.9258 1.7578-3.9258 3.9258 0 2.1719 1.7578 3.9297 3.9258 3.9297z" fill="#548a73"/>
 </g>
</svg>
