<?xml version="1.0" encoding="UTF-8"?>
<svg xmlns="http://www.w3.org/2000/svg" xmlns:xlink="http://www.w3.org/1999/xlink" width="50px" height="50px" viewBox="0 0 50 50" version="1.1">
<g id="surface1">
<path style=" stroke:none;fill-rule:nonzero;fill:rgb(33.333333%,54.117647%,45.490196%);fill-opacity:1;" d="M 28.269531 5.761719 C 28.269531 7.8125 26.609375 9.476562 24.558594 9.476562 C 22.507812 9.476562 20.84375 7.8125 20.84375 5.761719 C 20.84375 3.710938 22.507812 2.046875 24.558594 2.046875 C 26.609375 2.046875 28.269531 3.710938 28.269531 5.761719 Z M 28.269531 5.761719 "/>
<path style=" stroke:none;fill-rule:nonzero;fill:rgb(33.333333%,54.117647%,45.490196%);fill-opacity:1;" d="M 36.015625 25.855469 C 34.96875 14.085938 29.363281 11.742188 29.363281 11.742188 C 29.363281 11.742188 23.941406 8.480469 18.238281 12.632812 C 14.539062 16 13.683594 21.136719 13.101562 26.101562 C 12.804688 28.625 16.75 28.59375 17.042969 26.101562 C 17.390625 23.136719 17.890625 20.164062 19.359375 17.628906 L 19.351562 20.488281 L 19.324219 34.230469 L 19.324219 45.132812 C 19.324219 46.304688 20.183594 47.257812 21.390625 47.257812 C 22.597656 47.257812 23.574219 46.304688 23.574219 45.132812 L 23.574219 29.550781 L 25.507812 29.550781 L 25.507812 45.183594 C 25.507812 47.726562 29.449219 47.726562 29.449219 45.183594 L 29.449219 34.230469 L 29.613281 20.460938 C 29.617188 19.144531 29.617188 17.972656 29.617188 17.15625 C 31.195312 19.734375 31.714844 22.800781 32.070312 25.851562 C 32.367188 28.347656 36.3125 28.375 36.015625 25.855469 Z M 36.015625 25.855469 "/>
</g>
</svg>
