<?xml version="1.0" encoding="UTF-8"?>
<svg xmlns="http://www.w3.org/2000/svg" xmlns:xlink="http://www.w3.org/1999/xlink" width="50px" height="px" viewBox="0 0 50 50" version="1.1">
<g id="surface2">
<path style=" stroke:none;fill-rule:nonzero;fill:rgb(27.843137%,41.960784%,49.019608%);fill-opacity:1;" d="M 6.605469 10.324219 L 43.554688 10.324219 C 44.535156 10.324219 45.332031 11.121094 45.332031 12.101562 L 45.332031 41.210938 C 45.332031 42.191406 44.535156 42.988281 43.554688 42.988281 L 6.605469 42.988281 C 5.625 42.988281 4.828125 42.191406 4.828125 41.210938 L 4.828125 12.101562 C 4.828125 11.121094 5.625 10.324219 6.605469 10.324219 Z M 6.605469 10.324219 "/>
<path style=" stroke:none;fill-rule:nonzero;fill:rgb(45.882353%,57.647059%,63.529412%);fill-opacity:1;" d="M 8.484375 18.253906 L 41.671875 18.253906 C 42.355469 18.253906 42.910156 18.808594 42.910156 19.488281 L 42.910156 39.726562 C 42.910156 40.410156 42.355469 40.960938 41.671875 40.960938 L 8.484375 40.960938 C 7.800781 40.960938 7.25 40.410156 7.25 39.726562 L 7.25 19.488281 C 7.25 18.808594 7.800781 18.253906 8.484375 18.253906 Z M 8.484375 18.253906 "/>
<path style="fill:none;stroke-width:2.318;stroke-linecap:round;stroke-linejoin:round;stroke:rgb(87.058824%,87.058824%,87.058824%);stroke-opacity:1;stroke-miterlimit:4;" d="M 16.444433 31.834263 C 16.444433 31.834263 23.38255 41.506664 28.625821 41.363293 C 33.869091 41.225043 34.38625 29.898759 41.739118 30.021648 C 50.438646 30.165019 52.507281 41.240404 52.507281 41.240404 " transform="matrix(0.762883,0,0,0.762883,-1.174078,-1.383461)"/>
<path style="fill:none;stroke-width:2.218;stroke-linecap:round;stroke-linejoin:round;stroke:rgb(89.411765%,90.196078%,89.411765%);stroke-opacity:1;stroke-miterlimit:4;" d="M 16.444433 41.107274 C 16.444433 41.107274 23.38255 50.774555 28.625821 50.636305 C 33.869091 50.498054 34.191676 40.216328 41.739118 40.262411 C 50.633221 40.308495 52.507281 50.508295 52.507281 50.508295 " transform="matrix(0.762883,0,0,0.762883,-1.174078,-1.383461)"/>
<path style=" stroke:none;fill-rule:nonzero;fill:rgb(73.72549%,86.27451%,92.156863%);fill-opacity:1;" d="M 40.304688 12.699219 C 40.878906 12.699219 41.347656 13.164062 41.347656 13.742188 C 41.347656 14.320312 40.878906 14.785156 40.304688 14.785156 C 39.726562 14.785156 39.257812 14.320312 39.257812 13.742188 C 39.257812 13.164062 39.726562 12.699219 40.304688 12.699219 Z M 40.304688 12.699219 "/>
<path style=" stroke:none;fill-rule:nonzero;fill:rgb(73.72549%,86.27451%,92.156863%);fill-opacity:1;" d="M 36.457031 12.699219 C 37.035156 12.699219 37.503906 13.164062 37.503906 13.742188 C 37.503906 14.320312 37.035156 14.785156 36.457031 14.785156 C 35.882812 14.785156 35.414062 14.320312 35.414062 13.742188 C 35.414062 13.164062 35.882812 12.699219 36.457031 12.699219 Z M 36.457031 12.699219 "/>
<path style=" stroke:none;fill-rule:nonzero;fill:rgb(73.72549%,86.27451%,92.156863%);fill-opacity:1;" d="M 32.261719 12.699219 C 32.839844 12.699219 33.308594 13.164062 33.308594 13.742188 C 33.308594 14.320312 32.839844 14.785156 32.261719 14.785156 C 31.6875 14.785156 31.21875 14.320312 31.21875 13.742188 C 31.21875 13.164062 31.6875 12.699219 32.261719 12.699219 Z M 32.261719 12.699219 "/>
</g>
</svg>
