<?xml version="1.0" encoding="UTF-8"?>
<svg xmlns="http://www.w3.org/2000/svg" xmlns:xlink="http://www.w3.org/1999/xlink" width="50px" height="px" viewBox="0 0 50 50" version="1.1">
<g id="surface2">
<path style=" stroke:none;fill-rule:nonzero;fill:rgb(100%,100%,100%);fill-opacity:1;" d="M 11.503906 18.734375 L 36.238281 18.734375 C 36.320312 18.734375 36.390625 18.804688 36.390625 18.886719 L 36.390625 32.585938 C 36.390625 32.671875 36.320312 32.738281 36.238281 32.738281 L 11.503906 32.738281 C 11.421875 32.738281 11.351562 32.671875 11.351562 32.585938 L 11.351562 18.886719 C 11.351562 18.804688 11.421875 18.734375 11.503906 18.734375 Z M 11.503906 18.734375 "/>
<path style=" stroke:none;fill-rule:nonzero;fill:rgb(34.509804%,39.607843%,94.901961%);fill-opacity:1;" d="M 38.316406 14.050781 C 35.8125 12.949219 33.132812 12.148438 30.332031 11.691406 C 29.988281 12.277344 29.585938 13.0625 29.308594 13.6875 C 26.332031 13.265625 23.382812 13.265625 20.460938 13.6875 C 20.183594 13.0625 19.773438 12.277344 19.425781 11.691406 C 16.621094 12.148438 13.941406 12.949219 11.433594 14.054688 C 6.382812 21.230469 5.011719 28.226562 5.695312 35.121094 C 9.046875 37.472656 12.296875 38.902344 15.488281 39.835938 C 16.277344 38.816406 16.980469 37.734375 17.585938 36.589844 C 16.433594 36.179688 15.328125 35.671875 14.285156 35.082031 C 14.5625 34.886719 14.832031 34.6875 15.09375 34.480469 C 21.460938 37.277344 28.382812 37.277344 34.675781 34.480469 C 34.9375 34.6875 35.210938 34.886719 35.484375 35.082031 C 34.4375 35.671875 33.328125 36.183594 32.175781 36.59375 C 32.78125 37.734375 33.480469 38.820312 34.273438 39.839844 C 37.46875 38.90625 40.71875 37.476562 44.070312 35.121094 C 44.875 27.125 42.699219 20.195312 38.316406 14.050781 Z M 18.453125 30.878906 C 16.542969 30.878906 14.976562 29.203125 14.976562 27.160156 C 14.976562 25.121094 16.511719 23.441406 18.453125 23.441406 C 20.398438 23.441406 21.96875 25.117188 21.933594 27.160156 C 21.9375 29.203125 20.398438 30.878906 18.453125 30.878906 Z M 31.3125 30.878906 C 29.402344 30.878906 27.835938 29.203125 27.835938 27.160156 C 27.835938 25.121094 29.367188 23.441406 31.3125 23.441406 C 33.257812 23.441406 34.828125 25.117188 34.792969 27.160156 C 34.792969 29.203125 33.257812 30.878906 31.3125 30.878906 Z M 31.3125 30.878906 "/>
</g>
</svg>
