<?xml version="1.0" encoding="UTF-8"?>
<svg xmlns="http://www.w3.org/2000/svg" xmlns:xlink="http://www.w3.org/1999/xlink" width="50px" height="px" viewBox="0 0 50 50" version="1.1">
<g id="surface2">
<path style=" stroke:none;fill-rule:nonzero;fill:rgb(43.529412%,43.529412%,38.823529%);fill-opacity:1;" d="M 40.328125 42.714844 L 37.75 42.714844 C 37.277344 42.714844 36.890625 42.332031 36.890625 41.855469 C 36.890625 41.382812 37.277344 40.996094 37.75 40.996094 L 40.328125 40.996094 C 40.800781 40.996094 41.1875 41.382812 41.1875 41.855469 C 41.1875 42.332031 40.800781 42.714844 40.328125 42.714844 Z M 40.328125 42.714844 "/>
<path style=" stroke:none;fill-rule:nonzero;fill:rgb(43.529412%,43.529412%,43.529412%);fill-opacity:1;" d="M 34.316406 42.714844 L 18.851562 42.714844 C 18.378906 42.714844 17.992188 42.332031 17.992188 41.855469 C 17.992188 41.382812 18.378906 40.996094 18.851562 40.996094 L 34.316406 40.996094 C 34.789062 40.996094 35.175781 41.382812 35.175781 41.855469 C 35.175781 42.332031 34.789062 42.714844 34.316406 42.714844 Z M 34.316406 42.714844 "/>
<path style=" stroke:none;fill-rule:nonzero;fill:rgb(70.588235%,37.647059%,37.647059%);fill-opacity:1;" d="M 31.203125 32.71875 L 22.199219 41.710938 C 21.554688 42.351562 20.6875 42.714844 19.773438 42.714844 L 16.398438 42.714844 C 15.488281 42.714844 14.613281 42.355469 13.96875 41.710938 L 6.109375 33.855469 C 4.769531 32.515625 4.769531 30.34375 6.109375 29.003906 L 16.800781 18.320312 Z M 31.203125 32.71875 "/>
<path style=" stroke:none;fill-rule:nonzero;fill:rgb(43.529412%,43.529412%,43.529412%);fill-opacity:1;" d="M 41.902344 22.03125 L 31.210938 32.71875 L 16.8125 18.320312 L 27.496094 7.640625 C 28.835938 6.300781 31.019531 6.300781 32.359375 7.640625 L 41.902344 17.167969 C 43.242188 18.515625 43.242188 20.6875 41.902344 22.027344 Z M 41.902344 22.03125 "/>
<path style=" stroke:none;fill-rule:nonzero;fill:rgb(68.627451%,72.941176%,80%);fill-opacity:1;" d="M 15.589844 19.539062 L 18.019531 17.109375 L 32.414062 31.503906 L 29.984375 33.933594 Z M 15.589844 19.539062 "/>
<path style=" stroke:none;fill-rule:nonzero;fill:rgb(54.509804%,58.431373%,63.137255%);fill-opacity:1;" d="M 27.410156 31.359375 L 29.839844 28.929688 L 32.417969 31.507812 L 29.988281 33.9375 Z M 27.410156 31.359375 "/>
</g>
</svg>
