<?xml version="1.0" encoding="UTF-8"?>
<svg xmlns="http://www.w3.org/2000/svg" xmlns:xlink="http://www.w3.org/1999/xlink" width="50px" height="px" viewBox="0 0 50 50" version="1.1">
<g id="surface1">
<path style=" stroke:none;fill-rule:nonzero;fill:rgb(56.470588%,66.27451%,76.862745%);fill-opacity:1;" d="M 42.820312 21.4375 L 39.417969 18.035156 L 39.417969 15.320312 C 39.417969 12.714844 37.292969 10.59375 34.6875 10.59375 L 31.972656 10.59375 L 28.574219 7.191406 C 26.785156 5.40625 23.667969 5.40625 21.882812 7.191406 L 18.480469 10.59375 L 15.769531 10.59375 C 13.160156 10.59375 11.039062 12.714844 11.039062 15.320312 L 11.039062 18.035156 L 7.636719 21.4375 C 5.792969 23.28125 5.792969 26.28125 7.636719 28.125 L 11.039062 31.527344 L 11.039062 34.242188 C 11.039062 36.847656 13.160156 38.96875 15.769531 38.96875 L 18.480469 38.96875 L 21.882812 42.371094 C 22.777344 43.261719 23.964844 43.757812 25.226562 43.757812 C 26.492188 43.757812 27.679688 43.265625 28.570312 42.371094 L 31.972656 38.96875 L 34.6875 38.96875 C 37.292969 38.96875 39.417969 36.847656 39.417969 34.242188 L 39.417969 31.527344 L 42.820312 28.125 C 44.660156 26.28125 44.660156 23.28125 42.820312 21.4375 Z M 25.226562 35.816406 C 23.921875 35.816406 22.863281 34.757812 22.863281 33.453125 C 22.863281 32.148438 23.921875 31.085938 25.226562 31.085938 C 26.53125 31.085938 27.59375 32.148438 27.59375 33.453125 C 27.59375 34.757812 26.53125 35.816406 25.226562 35.816406 Z M 27.507812 25.773438 C 27.210938 25.933594 26.804688 26.660156 26.804688 27.152344 L 26.804688 27.933594 C 26.804688 28.804688 26.097656 29.511719 25.226562 29.511719 C 24.355469 29.511719 23.652344 28.804688 23.652344 27.933594 L 23.652344 27.152344 C 23.652344 25.527344 24.65625 23.746094 25.984375 23.011719 C 26.441406 22.761719 26.921875 22.167969 26.777344 21.332031 C 26.667969 20.710938 26.144531 20.1875 25.527344 20.082031 C 25.042969 19.992188 24.578125 20.113281 24.214844 20.421875 C 23.855469 20.71875 23.652344 21.160156 23.652344 21.628906 C 23.652344 22.5 22.945312 23.207031 22.074219 23.207031 C 21.203125 23.207031 20.496094 22.5 20.496094 21.628906 C 20.496094 20.226562 21.113281 18.90625 22.1875 18.003906 C 23.261719 17.105469 24.675781 16.722656 26.070312 16.976562 C 27.976562 17.308594 29.546875 18.875 29.882812 20.785156 C 30.234375 22.792969 29.277344 24.796875 27.507812 25.773438 Z M 27.507812 25.773438 "/>
</g>
</svg>
