<?xml version="1.0" encoding="UTF-8"?>
<svg xmlns="http://www.w3.org/2000/svg" xmlns:xlink="http://www.w3.org/1999/xlink" width="50px" height="px" viewBox="0 0 50 50" version="1.1">
<g id="surface2">
<path style=" stroke:none;fill-rule:nonzero;fill:rgb(43.529412%,43.529412%,43.529412%);fill-opacity:1;" d="M 29.695312 7.882812 C 29.695312 10.398438 27.660156 12.433594 25.144531 12.433594 C 22.632812 12.433594 20.59375 10.398438 20.59375 7.882812 C 20.59375 5.371094 22.632812 3.332031 25.144531 3.332031 C 27.660156 3.332031 29.695312 5.371094 29.695312 7.882812 Z M 29.695312 7.882812 "/>
<path style=" stroke:none;fill-rule:nonzero;fill:rgb(43.529412%,43.529412%,43.529412%);fill-opacity:1;" d="M 18.082031 27.28125 L 18.160156 27.28125 C 19.085938 27.242188 19.800781 26.457031 19.761719 25.53125 C 19.707031 24.351562 19.8125 21.363281 20.59375 19.089844 L 20.59375 41.304688 C 20.589844 42.007812 20.964844 42.660156 21.574219 43.015625 C 22.183594 43.367188 22.933594 43.367188 23.542969 43.015625 C 24.152344 42.660156 24.527344 42.007812 24.523438 41.304688 L 24.523438 28.046875 L 25.765625 28.046875 L 25.765625 41.304688 C 25.773438 42.382812 26.648438 43.257812 27.730469 43.257812 C 28.808594 43.257812 29.683594 42.382812 29.691406 41.304688 L 29.691406 19.074219 C 30.472656 21.320312 30.582031 24.261719 30.527344 25.527344 C 30.484375 26.453125 31.203125 27.234375 32.128906 27.273438 L 32.203125 27.273438 C 33.101562 27.273438 33.839844 26.566406 33.878906 25.671875 C 33.917969 24.886719 34.140625 17.839844 30.855469 14.574219 C 29.90625 13.617188 28.640625 13.03125 27.296875 12.933594 L 27.140625 12.921875 L 27.125 12.921875 C 25.703125 12.808594 24.273438 12.816406 22.851562 12.949219 L 22.859375 12.949219 C 21.566406 13.074219 20.355469 13.648438 19.4375 14.574219 C 16.152344 17.847656 16.371094 24.894531 16.40625 25.683594 C 16.449219 26.582031 17.1875 27.285156 18.082031 27.28125 Z M 18.082031 27.28125 "/>
<path style=" stroke:none;fill-rule:nonzero;fill:rgb(43.529412%,43.529412%,43.529412%);fill-opacity:1;" d="M 32.480469 37.394531 C 32.070312 37.355469 31.703125 37.648438 31.652344 38.054688 C 31.601562 38.464844 31.886719 38.839844 32.292969 38.902344 C 38.597656 39.683594 40.636719 41.171875 40.636719 41.769531 C 40.636719 42.886719 35.167969 45.054688 25.144531 45.054688 C 15.125 45.054688 9.65625 42.882812 9.65625 41.769531 C 9.65625 41.152344 11.777344 39.628906 18.332031 38.859375 C 18.742188 38.804688 19.03125 38.433594 18.984375 38.023438 C 18.933594 37.613281 18.570312 37.316406 18.160156 37.351562 C 14.417969 37.789062 8.140625 38.945312 8.140625 41.769531 C 8.136719 45.296875 18.308594 46.574219 25.144531 46.574219 C 31.980469 46.574219 42.152344 45.296875 42.152344 41.769531 C 42.152344 39.007812 36.089844 37.84375 32.480469 37.394531 Z M 32.480469 37.394531 "/>
</g>
</svg>
