<?xml version="1.0" encoding="UTF-8"?>
<svg xmlns="http://www.w3.org/2000/svg" xmlns:xlink="http://www.w3.org/1999/xlink" width="50px" height="px" viewBox="0 0 50 50" version="1.1">
<g id="surface2">
<path style=" stroke:none;fill-rule:nonzero;fill:rgb(40.784314%,64.313725%,54.901961%);fill-opacity:1;" d="M 23.996094 38.539062 L 30.484375 32.09375 C 32.191406 30.4375 33.140625 28.019531 33.140625 25.605469 C 33.140625 24.894531 32.855469 23.472656 32.382812 22.097656 C 31.957031 20.773438 31.292969 19.539062 30.484375 19.539062 C 30.15625 19.539062 29.160156 20.296875 28.449219 21.101562 C 27.644531 21.90625 26.886719 22.761719 26.886719 23.09375 C 26.886719 23.328125 27.027344 23.707031 27.265625 24.085938 C 27.5 24.511719 27.691406 24.988281 27.691406 25.601562 C 27.644531 26.550781 27.265625 27.5 26.601562 28.257812 L 22.765625 32.046875 C 22.433594 32.425781 22.054688 32.804688 21.675781 33.230469 L 20.492188 34.414062 C 19.683594 35.171875 18.691406 35.691406 17.503906 35.691406 C 15.515625 35.691406 13.90625 34.128906 13.90625 32.09375 C 13.90625 31.617188 14 31.191406 14.140625 30.859375 C 14.425781 30.195312 14.710938 29.722656 15.042969 29.34375 C 15.183594 29.15625 15.230469 28.964844 15.230469 28.824219 C 15.230469 28.726562 15.183594 28.632812 15.136719 28.445312 C 14.566406 27.164062 14.234375 26.074219 14 24.75 C 13.902344 24.511719 13.855469 24.320312 13.714844 24.226562 C 13.570312 24.039062 13.335938 23.992188 13.097656 23.992188 C 12.910156 23.992188 12.765625 24.039062 12.578125 24.179688 C 12.199219 24.417969 11.820312 24.796875 11.488281 25.175781 C 11.34375 25.363281 11.15625 25.507812 11.0625 25.601562 C 9.355469 27.304688 8.363281 29.675781 8.363281 32.089844 C 8.363281 34.601562 9.355469 36.921875 11.0625 38.578125 C 12.71875 40.238281 14.992188 41.230469 17.503906 41.230469 C 19.96875 41.230469 22.335938 40.285156 23.992188 38.53125 Z M 23.996094 38.539062 "/>
<path style=" stroke:none;fill-rule:nonzero;fill:rgb(34.117647%,49.411765%,43.137255%);fill-opacity:1;" d="M 24.136719 20.34375 L 27.925781 16.507812 C 28.257812 16.175781 28.636719 15.75 29.015625 15.277344 C 29.394531 14.851562 29.820312 14.472656 30.25 14.140625 C 31.054688 13.429688 32.003906 12.8125 33.1875 12.8125 C 34.230469 12.8125 35.128906 13.289062 35.792969 13.902344 C 36.457031 14.519531 36.835938 15.417969 36.835938 16.460938 C 36.835938 16.886719 36.789062 17.363281 36.648438 17.695312 C 36.316406 18.359375 36.03125 18.832031 35.746094 19.210938 C 35.605469 19.398438 35.460938 19.589844 35.460938 19.777344 C 35.460938 19.921875 35.460938 20.0625 35.558594 20.109375 C 36.078125 21.390625 36.457031 22.480469 36.695312 23.804688 C 36.835938 24.328125 37.121094 24.5625 37.59375 24.5625 C 37.785156 24.5625 37.972656 24.515625 38.164062 24.375 C 38.542969 24.136719 38.875 23.757812 39.207031 23.378906 C 39.394531 23.191406 39.539062 23 39.632812 22.90625 C 41.335938 21.246094 42.332031 18.878906 42.332031 16.464844 C 42.332031 13.902344 41.289062 11.628906 39.632812 9.972656 C 37.972656 8.363281 35.652344 7.273438 33.1875 7.273438 C 30.726562 7.273438 28.355469 8.269531 26.699219 10.023438 L 20.210938 16.464844 C 18.503906 18.21875 17.558594 20.492188 17.558594 22.90625 C 17.558594 23.617188 17.84375 25.085938 18.316406 26.460938 C 18.789062 27.785156 19.40625 28.972656 20.210938 28.972656 C 20.636719 28.972656 21.535156 28.261719 22.292969 27.457031 C 23.050781 26.648438 23.808594 25.75 23.808594 25.417969 C 23.808594 25.179688 23.621094 24.894531 23.429688 24.46875 C 23.195312 24.042969 23.097656 23.523438 23.097656 22.90625 C 23.097656 21.960938 23.476562 21.011719 24.140625 20.347656 Z M 24.136719 20.34375 "/>
</g>
</svg>
