<?xml version="1.0" encoding="UTF-8"?>
<svg xmlns="http://www.w3.org/2000/svg" xmlns:xlink="http://www.w3.org/1999/xlink" width="50px" height="px" viewBox="0 0 50 50" version="1.1">
<g id="surface2">
<path style=" stroke:none;fill-rule:nonzero;fill:rgb(82.745098%,49.411765%,49.411765%);fill-opacity:1;" d="M 26.296875 39.078125 L 23.777344 34.683594 L 17.625 38.207031 L 20.144531 42.601562 Z M 26.296875 39.078125 "/>
<path style=" stroke:none;fill-rule:nonzero;fill:rgb(82.745098%,49.411765%,49.411765%);fill-opacity:1;" d="M 35.085938 34.046875 L 41.238281 30.519531 L 38.71875 26.125 L 32.566406 29.652344 Z M 35.085938 34.046875 "/>
<path style=" stroke:none;fill-rule:nonzero;fill:rgb(43.529412%,43.529412%,43.529412%);fill-opacity:1;" d="M 22.695312 32.785156 L 16.542969 36.308594 L 10.164062 25.1875 C 8.589844 22.441406 8.234375 19.222656 9.167969 16.128906 C 10.082031 13.105469 12.105469 10.578125 14.890625 8.984375 C 14.957031 8.945312 15.019531 8.90625 15.089844 8.871094 C 20.855469 5.703125 28.1875 7.738281 31.441406 13.410156 L 37.640625 24.21875 L 31.488281 27.742188 L 25.113281 16.625 C 23.773438 14.285156 20.71875 13.515625 18.292969 14.90625 C 15.863281 16.296875 14.984375 19.320312 16.324219 21.65625 Z M 22.695312 32.785156 "/>
</g>
</svg>
