<?xml version="1.0" encoding="UTF-8"?>
<svg xmlns="http://www.w3.org/2000/svg" xmlns:xlink="http://www.w3.org/1999/xlink" width="50px" height="px" viewBox="0 0 50 50" version="1.1">
<g id="surface2">
<path style="fill:none;stroke-width:4.0923;stroke-linecap:round;stroke-linejoin:bevel;stroke:rgb(77.647059%,77.647059%,77.647059%);stroke-opacity:1;stroke-dasharray:2.53744,9.82533;stroke-dashoffset:12.14629;stroke-miterlimit:4;" d="M 34.640132 16.092488 L 34.640132 57.802815 " transform="matrix(0.714376,0,0,0.714376,0,-0.000000000000002865)"/>
<path style=" stroke:none;fill-rule:nonzero;fill:rgb(27.45098%,42.745098%,36.470588%);fill-opacity:1;" d="M 32.707031 12.566406 L 43.777344 9.933594 C 44.492188 9.78125 46.503906 11.035156 46.503906 12.402344 L 46.503906 39.121094 C 46.503906 40.492188 44.492188 41.742188 43.777344 41.59375 L 32.707031 38.960938 C 31.992188 38.808594 31.410156 37.859375 31.410156 36.492188 L 31.410156 15.035156 C 31.410156 13.667969 31.992188 12.71875 32.707031 12.566406 Z M 32.707031 12.566406 "/>
<path style=" stroke:none;fill-rule:nonzero;fill:rgb(45.098039%,63.137255%,55.686275%);fill-opacity:1;" d="M 17.503906 38.960938 L 6.304688 41.589844 C 5.582031 41.742188 3.5625 40.488281 3.5625 39.121094 L 3.5625 12.402344 C 3.5625 11.035156 5.582031 9.78125 6.304688 9.929688 L 17.503906 12.5625 C 18.226562 12.714844 18.816406 13.664062 18.816406 15.035156 L 18.816406 36.488281 C 18.816406 37.855469 18.226562 38.808594 17.503906 38.957031 Z M 17.503906 38.960938 "/>
</g>
</svg>
