<svg width="50px" height="50px" version="1.1" viewBox="0 0 50 50" xmlns="http://www.w3.org/2000/svg">
 <g stroke="rgb(50.588235%,45.490196%,60.392157%)" stroke-linecap="round">
  <g stroke-linejoin="round" stroke-width="3.3805">
   <path transform="matrix(.71427 0 0 .71427 -2.8743 -.59911)" d="m36.723 56.681c11.709 0 21.203-9.494 21.203-21.203 0-11.714-9.494-21.208-21.203-21.208-11.714 0-21.208 9.494-21.208 21.208 0 11.709 9.494 21.203 21.208 21.203z" fill="none"/>
   <path transform="matrix(.71427 0 0 .71427 -2.8743 -.59911)" d="m28.24 16.392h2.1219c-4.1399 12.387-4.1399 25.786 0 38.173h-2.1219" fill="rgb(0%,0%,0%)"/>
   <path transform="matrix(.71427 0 0 .71427 -2.8743 -.59911)" d="m43.083 16.392c4.1345 12.387 4.1345 25.786 0 38.173" fill="none"/>
   <path transform="matrix(.71427 0 0 .71427 -2.8743 -.59911)" d="m17.636 43.961v-2.1219c12.382 4.1345 25.786 4.1345 38.167 0v2.1219" fill="rgb(0%,0%,0%)"/>
   <path transform="matrix(.71427 0 0 .71427 -2.8743 -.59911)" d="m17.636 29.118c12.382-4.1345 25.786-4.1345 38.167 0" fill="none"/>
  </g>
  <path transform="matrix(.71438 0 0 .71438 0 -2.865e-15)" d="m38.987 36.319h19.433c1.2577 0 2.2802 1.0225 2.2802 2.2856v19.641c0 1.2631-1.0225 2.2802-2.2802 2.2802h-19.433c-1.2631 0-2.2856-1.0171-2.2856-2.2802v-19.641c0-1.2631 1.0225-2.2856 2.2856-2.2856z" fill="rgb(50.588235%,45.490196%,60.392157%)" stroke-linejoin="bevel" stroke-width="2.8292"/>
 </g>
 <path d="m33.324 29.884 0.10316 5.2405h-2.3438c-0.37962 0-0.77576 0.28059-0.7675 0.751 0.0082 0.34249 0.2352 0.51992 0.43739 0.74687l3.5652 4.0273c0.24758 0.28472 0.44152 0.46628 0.78814 0.46628 0.34661 0 0.53643-0.18156 0.77163-0.46628l3.4042-4.0232c0.19394-0.23108 0.41676-0.40438 0.40851-0.751-0.0082-0.46628-0.41676-0.74687-0.79639-0.74687h-2.3438l-0.10316-5.2405c-0.0082-0.41264-0.36725-0.751-0.79639-0.751h-1.5639c-0.42914 0-0.77163 0.33836-0.76338 0.74687z" fill="#f0f0f0"/>
</svg>
