<svg width="50px" height="0INVALID" version="1.1" viewBox="0 0 50 50" xmlns="http://www.w3.org/2000/svg">
 <path d="m42.816 25.523c0 1.3398-1.0859 2.4258-2.4258 2.4258h-4.6367c-1.9883-0.007813-3.8281-1.0469-4.8516-2.75l-1.9805-3.2852-2.8945 7.0508 4.2266 2.4062c1.7695 1.0078 2.8633 2.8867 2.8633 4.9258v5.3945c0 1.3398-1.0859 2.4258-2.4258 2.4258s-2.4258-1.0859-2.4258-2.4258v-5.3945c0-0.28906-0.15625-0.55859-0.40625-0.70312l-6.5977-3.7539c-2.3789-1.4492-3.3594-4.4102-2.3086-6.9883l2.0391-4.9844h-2.8516c-0.30859 0-0.58594 0.17187-0.72266 0.44531l-2.3398 4.6797c-0.59766 1.1992-2.0547 1.6836-3.2539 1.0859-1.1992-0.60156-1.6836-2.0586-1.0859-3.2539l2.3398-4.6797c0.95312-1.9219 2.918-3.1367 5.0625-3.1289h9.0898c1.9883 0.007813 3.8281 1.0469 4.8516 2.75l2.9766 4.9414c0.14453 0.24609 0.41016 0.39453 0.69531 0.39062h4.6367c1.3398 0 2.4258 1.0859 2.4258 2.4258zm-24.156 7.0312c-1.2461-0.49609-2.6562 0.10937-3.1523 1.3516-0.125 0.30859-0.42187 0.50781-0.75 0.50781h-3.4648c-1.3398 0-2.4258 1.0859-2.4258 2.4258s1.0859 2.4258 2.4258 2.4258h3.4648c2.3125 0.007813 4.3984-1.4023 5.2539-3.5547 0.49609-1.2461-0.10938-2.6562-1.3516-3.1562zm10.414-19.156c2.2344 0 4.043-1.8086 4.043-4.043 0-2.2305-1.8086-4.0391-4.043-4.0391-2.2305 0-4.0391 1.8086-4.0391 4.0391 0 2.2344 1.8086 4.043 4.0391 4.043z" fill="rgb(69.803922%,64.313725%,40%)"/>
 <path d="m22.822 37.629-5.7129-0.0074 0.0024-2.4498c0.0025-0.39568-0.30286-0.81578-0.81334-0.81578-0.37614-0.0025-0.56909 0.23203-0.81822 0.43964l-4.3915 3.6319c-0.31263 0.25646-0.51047 0.45185-0.51291 0.81578 0 0.36392 0.19784 0.56176 0.51047 0.81822l4.3817 3.6466c0.24913 0.20761 0.43964 0.44208 0.81578 0.44208 0.51047 0 0.81578-0.4201 0.81578-0.81578l0.0049-2.4473 5.7129 0.0074c0.44941 0 0.81822-0.36637 0.81822-0.81578l0.0024-1.6316c0-0.44941-0.36637-0.81822-0.81578-0.81822z" fill="#ebebeb"/>
</svg>
