<?xml version="1.0" encoding="UTF-8"?>
<svg xmlns="http://www.w3.org/2000/svg" xmlns:xlink="http://www.w3.org/1999/xlink" width="50px" height="px" viewBox="0 0 50 50" version="1.1">
<g id="surface2">
<path style=" stroke:none;fill-rule:nonzero;fill:rgb(69.803922%,64.313725%,40%);fill-opacity:1;" d="M 42.816406 25.523438 C 42.816406 26.863281 41.730469 27.949219 40.390625 27.949219 L 35.753906 27.949219 C 33.765625 27.941406 31.925781 26.902344 30.902344 25.199219 L 28.921875 21.914062 L 26.027344 28.964844 L 30.253906 31.371094 C 32.023438 32.378906 33.117188 34.257812 33.117188 36.296875 L 33.117188 41.691406 C 33.117188 43.03125 32.03125 44.117188 30.691406 44.117188 C 29.351562 44.117188 28.265625 43.03125 28.265625 41.691406 L 28.265625 36.296875 C 28.265625 36.007812 28.109375 35.738281 27.859375 35.59375 L 21.261719 31.839844 C 18.882812 30.390625 17.902344 27.429688 18.953125 24.851562 L 20.992188 19.867188 L 18.140625 19.867188 C 17.832031 19.867188 17.554688 20.039062 17.417969 20.3125 L 15.078125 24.992188 C 14.480469 26.191406 13.023438 26.675781 11.824219 26.078125 C 10.625 25.476562 10.140625 24.019531 10.738281 22.824219 L 13.078125 18.144531 C 14.03125 16.222656 15.996094 15.007812 18.140625 15.015625 L 27.230469 15.015625 C 29.21875 15.023438 31.058594 16.0625 32.082031 17.765625 L 35.058594 22.707031 C 35.203125 22.953125 35.46875 23.101562 35.753906 23.097656 L 40.390625 23.097656 C 41.730469 23.097656 42.816406 24.183594 42.816406 25.523438 Z M 18.660156 32.554688 C 17.414062 32.058594 16.003906 32.664062 15.507812 33.90625 C 15.382812 34.214844 15.085938 34.414062 14.757812 34.414062 L 11.292969 34.414062 C 9.953125 34.414062 8.867188 35.5 8.867188 36.839844 C 8.867188 38.179688 9.953125 39.265625 11.292969 39.265625 L 14.757812 39.265625 C 17.070312 39.273438 19.15625 37.863281 20.011719 35.710938 C 20.507812 34.464844 19.902344 33.054688 18.660156 32.554688 Z M 29.074219 13.398438 C 31.308594 13.398438 33.117188 11.589844 33.117188 9.355469 C 33.117188 7.125 31.308594 5.316406 29.074219 5.316406 C 26.84375 5.316406 25.035156 7.125 25.035156 9.355469 C 25.035156 11.589844 26.84375 13.398438 29.074219 13.398438 Z M 29.074219 13.398438 "/>
</g>
</svg>
