<?xml version="1.0" encoding="UTF-8"?>
<svg xmlns="http://www.w3.org/2000/svg" xmlns:xlink="http://www.w3.org/1999/xlink" width="50px" height="px" viewBox="0 0 50 50" version="1.1">
<g id="surface1">
<path style=" stroke:none;fill-rule:nonzero;fill:rgb(40%,40%,40%);fill-opacity:1;" d="M 9.1875 13.472656 L 9.1875 10.050781 L 12.617188 10.050781 L 12.617188 13.472656 Z M 16.152344 13.472656 L 16.152344 10.050781 L 19.582031 10.050781 L 19.582031 13.472656 Z M 23.40625 13.472656 L 23.40625 10.050781 L 26.835938 10.050781 L 26.835938 13.472656 Z M 30.371094 13.472656 L 30.371094 10.050781 L 33.800781 10.050781 L 33.800781 13.472656 Z M 37.042969 13.472656 L 37.042969 10.050781 L 40.472656 10.050781 L 40.472656 13.472656 Z M 9.441406 33.28125 L 9.441406 15.53125 L 39.875 15.53125 L 39.875 33.277344 L 9.441406 33.277344 Z M 9.1875 38.765625 L 9.1875 35.335938 L 12.617188 35.335938 L 12.617188 38.765625 Z M 16.152344 38.765625 L 16.152344 35.335938 L 19.582031 35.335938 L 19.582031 38.765625 Z M 23.40625 38.765625 L 23.40625 35.335938 L 26.835938 35.335938 L 26.835938 38.765625 Z M 30.371094 38.765625 L 30.371094 35.335938 L 33.800781 35.335938 L 33.800781 38.765625 Z M 37.042969 38.765625 L 37.042969 35.335938 L 40.472656 35.335938 L 40.472656 38.765625 Z M 42.921875 8.441406 L 6.179688 8.441406 C 5.707031 8.441406 5.316406 8.761719 5.316406 9.15625 L 5.316406 39.566406 C 5.316406 39.953125 5.707031 40.277344 6.179688 40.277344 L 42.921875 40.277344 C 43.398438 40.277344 43.785156 39.953125 43.785156 39.566406 L 43.785156 9.15625 C 43.785156 8.761719 43.398438 8.441406 42.921875 8.441406 Z M 42.921875 8.441406 "/>
<path style=" stroke:none;fill-rule:nonzero;fill:rgb(94.117647%,94.117647%,94.117647%);fill-opacity:1;" d="M 20.90625 17.9375 C 21.007812 17.890625 21.125 17.902344 21.214844 17.972656 L 30.859375 24.128906 C 30.925781 24.1875 30.964844 24.273438 30.964844 24.355469 C 30.964844 24.445312 30.925781 24.527344 30.859375 24.585938 L 21.214844 30.746094 C 21.160156 30.785156 21.097656 30.808594 21.03125 30.808594 L 20.90625 30.777344 C 20.804688 30.734375 20.742188 30.628906 20.742188 30.519531 L 20.742188 18.199219 C 20.742188 18.089844 20.804688 17.988281 20.90625 17.9375 Z M 20.90625 17.9375 "/>
</g>
</svg>
