<svg width="50px" height="50px" version="1.1" viewBox="0 0 50 50" xmlns="http://www.w3.org/2000/svg">
 <path d="m45.744 42.127-1.8698-1.6666-2.9026-2.6299 2.9554-3.3582c0.44425-0.50447 0.25437-1.403-0.42402-2.0069-0.17869-0.15915-0.38087-0.28733-0.59232-0.37566l-13.865-5.7694c-1.6054-0.66622-3.0928-0.05039-3.3223 1.3754-0.09696 0.60261 0.0465 1.2848 0.40547 1.9282l7.3694 13.147c0.26328 0.47059 0.72615 0.84532 1.2276 0.99386 0.10712 0.03117 0.214 0.05142 0.31878 0.06053 0.38123 0.034 0.7153-0.08293 0.92876-0.32499l3.0414-3.4606 4.8683 4.3391c0.68566 0.59546 1.7214 0.51491 2.1542 4.6e-4 0.42223-0.50182 0.35947-1.6578-0.29427-2.2558z" fill="#b05757" stroke-width=".091583"/>
 <path d="m22.234 3.6219c10.827-0.50097 20.043 7.9 20.544 18.727 0.04789 1.0348 0.01367 2.0813-0.10015 3.1098-0.05973 0.538-0.54541 0.92844-1.0854 0.86881-0.53996-0.05964-0.93693-0.55879-0.86881-1.0854 0.10269-0.92764 0.13191-1.8696 0.08876-2.8023-0.45088-9.7452-8.7465-17.305-18.49-16.854-9.7432 0.45082-17.303 8.7445-16.852 18.49 0.45091 9.7452 8.7466 17.305 18.49 16.854 0.93662-0.04333 1.8718-0.15941 2.7821-0.34715 0.53214-0.10924 1.0518 0.23469 1.161 0.76488 0.10878 0.52233-0.23273 1.0517-0.76488 1.161-1.0116 0.20816-2.0486 0.33682-3.0873 0.38488-10.827 0.50097-20.043-7.9-20.544-18.727-0.50097-10.827 7.9-20.043 18.727-20.544zm0.45427 9.8178c-5.4136 0.25048-9.6141 4.8586-9.3636 10.272 0.23667 5.1151 4.2681 9.1435 9.3768 9.3637 0.54225 0.02415 0.9617 0.49861 0.93883 1.0251-0.02418 0.54029-0.48281 0.96294-1.0251 0.93883-6.132-0.26528-10.97-5.0986-11.254-11.239-0.30064-6.4974 4.7388-12.026 11.236-12.327 6.1381-0.28401 11.396 4.0872 12.23 10.168 0.0037 0.0313 0.0067 0.05872 8e-3 0.09015 0.02324 0.50268-0.33983 0.94845-0.84827 1.0172-0.5378 0.07212-1.0333-0.30246-1.1074-0.84016-0.69488-5.0664-5.0764-8.7086-10.19-8.4721z" fill="#6e6e6e" stroke-width="1.9657"/>
</svg>
