<svg width="50" height="50" version="1.1" xmlns="http://www.w3.org/2000/svg">
 <g class="layer" opacity=".79407">
  <title>Layer 1</title>
  <g stroke-linecap="round" stroke-linejoin="round" stroke-width=".08">
   <path d="m28.28 10.96a3.94 3.94 0 0 1-3.94 3.94 3.94 3.94 0 0 1-3.95-3.93 3.94 3.94 0 0 1 3.93-3.95 3.94 3.94 0 0 1 3.96 3.93" fill="#508871"/>
   <path d="m28.28 40.03a3.94 3.94 0 0 1-3.94 3.95 3.94 3.94 0 0 1-3.95-3.94 3.94 3.94 0 0 1 3.93-3.95 3.94 3.94 0 0 1 3.96 3.93" fill="#6fab92"/>
   <path transform="rotate(-90)" d="m-21.56 9.8a3.94 3.94 0 0 1-3.93 3.94 3.94 3.94 0 0 1-3.95-3.93 3.94 3.94 0 0 1 3.93-3.95 3.94 3.94 0 0 1 3.95 3.92" fill="#87b9a4"/>
   <path transform="rotate(-90)" d="m-21.56 38.87a3.94 3.94 0 0 1-3.93 3.94 3.94 3.94 0 0 1-3.95-3.93 3.94 3.94 0 0 1 3.93-3.95 3.94 3.94 0 0 1 3.95 3.92" fill="#5c9d82"/>
   <path transform="rotate(-44.607)" d="m3.36 20.71a3.94 3.94 0 0 1-3.94 3.94 3.94 3.94 0 0 1-3.94-3.94 3.94 3.94 0 0 1 3.93-3.95 3.94 3.94 0 0 1 3.95 3.93" fill="#93bfac"/>
   <path transform="rotate(-44.607)" d="m3.36 49.78a3.94 3.94 0 0 1-3.94 3.94 3.94 3.94 0 0 1-3.94-3.93 3.94 3.94 0 0 1 3.93-3.95 3.94 3.94 0 0 1 3.95 3.92" fill="#64a48a"/>
   <path transform="rotate(225.39)" d="m-31.3-15.12a3.94 3.94 0 0 1-3.94 3.94 3.94 3.94 0 0 1-3.94-3.93 3.94 3.94 0 0 1 3.93-3.95 3.94 3.94 0 0 1 3.95 3.93" fill="#7db39c"/>
   <path transform="rotate(225.39)" d="m-31.3 13.95a3.94 3.94 0 0 1-3.94 3.95 3.94 3.94 0 0 1-3.94-3.94 3.94 3.94 0 0 1 3.93-3.95 3.94 3.94 0 0 1 3.95 3.93" fill="#57937a"/>
  </g>
 </g>
</svg>
