<?xml version="1.0" encoding="UTF-8"?>
<svg xmlns="http://www.w3.org/2000/svg" xmlns:xlink="http://www.w3.org/1999/xlink" width="50px" height="px" viewBox="0 0 50 50" version="1.1">
<defs>
<filter id="alpha" filterUnits="objectBoundingBox" x="0%" y="0%" width="100%" height="100%">
  <feColorMatrix type="matrix" in="SourceGraphic" values="0 0 0 0 1 0 0 0 0 1 0 0 0 0 1 0 0 0 1 0"/>
</filter>
<mask id="mask0">
  <g filter="url(#alpha)">
<rect x="0" y="0" width="50" height="50" style="fill:rgb(0%,0%,0%);fill-opacity:0.729412;stroke:none;"/>
  </g>
</mask>
<clipPath id="clip1">
  <rect x="0" y="0" width="50" height="50"/>
</clipPath>
<g id="surface6" clip-path="url(#clip1)">
<path style=" stroke:none;fill-rule:nonzero;fill:rgb(83.137255%,38.431373%,38.431373%);fill-opacity:1;" d="M 44.839844 25.5625 C 44.839844 36.53125 35.949219 45.425781 24.976562 45.425781 C 14.007812 45.425781 5.113281 36.53125 5.113281 25.5625 C 5.113281 14.589844 14.007812 5.699219 24.976562 5.699219 C 35.949219 5.699219 44.839844 14.589844 44.839844 25.5625 Z M 44.839844 25.5625 "/>
</g>
</defs>
<g id="surface2">
<use xlink:href="#surface6" mask="url(#mask0)"/>
<path style=" stroke:none;fill-rule:nonzero;fill:rgb(95.686275%,95.686275%,95.686275%);fill-opacity:1;" d="M 33.558594 16.828125 C 32.707031 15.976562 31.328125 15.976562 30.476562 16.828125 L 24.835938 22.46875 L 19.199219 16.828125 C 18.34375 16.003906 16.984375 16.015625 16.144531 16.855469 C 15.304688 17.695312 15.292969 19.054688 16.117188 19.914062 L 21.753906 25.550781 L 16.117188 31.1875 C 15.292969 32.042969 15.304688 33.402344 16.144531 34.242188 C 16.984375 35.085938 18.34375 35.097656 19.199219 34.269531 L 24.835938 28.632812 L 30.476562 34.269531 C 31.332031 35.097656 32.691406 35.085938 33.53125 34.242188 C 34.371094 33.402344 34.382812 32.042969 33.558594 31.1875 L 27.921875 25.550781 L 33.558594 19.914062 C 34.410156 19.0625 34.410156 17.679688 33.558594 16.828125 Z M 33.558594 16.828125 "/>
</g>
</svg>
