<?xml version="1.0" encoding="UTF-8"?>
<svg xmlns="http://www.w3.org/2000/svg" xmlns:xlink="http://www.w3.org/1999/xlink" width="50px" height="px" viewBox="0 0 50 50" version="1.1">
<g id="surface2">
<path style=" stroke:none;fill-rule:nonzero;fill:rgb(84.705882%,50.196078%,50.196078%);fill-opacity:1;" d="M 35.503906 14.226562 C 34.464844 13.1875 32.785156 13.1875 31.75 14.226562 L 24.886719 21.089844 L 18.019531 14.226562 C 16.980469 13.214844 15.320312 13.230469 14.296875 14.253906 C 13.273438 15.28125 13.257812 16.9375 14.265625 17.976562 L 21.132812 24.84375 L 14.265625 31.707031 C 13.257812 32.746094 13.273438 34.40625 14.296875 35.429688 C 15.320312 36.453125 16.980469 36.46875 18.019531 35.460938 L 24.886719 28.59375 L 31.75 35.460938 C 32.789062 36.46875 34.449219 36.453125 35.472656 35.429688 C 36.496094 34.40625 36.511719 32.746094 35.503906 31.707031 L 28.636719 24.84375 L 35.503906 17.976562 C 36.539062 16.941406 36.539062 15.261719 35.503906 14.226562 Z M 35.503906 14.226562 "/>
</g>
</svg>
