<?xml version="1.0" encoding="UTF-8"?>
<svg xmlns="http://www.w3.org/2000/svg" xmlns:xlink="http://www.w3.org/1999/xlink" width="50px" height="px" viewBox="0 0 50 50" version="1.1">
<g id="surface2">
<path style=" stroke:none;fill-rule:nonzero;fill:rgb(36.078431%,36.078431%,36.078431%);fill-opacity:1;" d="M 27.621094 10.054688 L 10.917969 26.78125 C 10.457031 27.242188 10.171875 27.847656 10.109375 28.496094 L 9.261719 37.695312 C 9.1875 38.523438 9.484375 39.339844 10.070312 39.925781 C 10.660156 40.511719 11.476562 40.808594 12.300781 40.734375 L 21.5 39.910156 C 22.15625 39.851562 22.773438 39.566406 23.238281 39.101562 L 39.941406 22.378906 C 41.929688 20.386719 41.929688 17.066406 39.941406 15.078125 L 34.917969 10.054688 C 32.929688 8.066406 29.609375 8.066406 27.621094 10.054688 Z M 31.28125 14.335938 L 35.664062 18.738281 L 19.992188 34.410156 L 15.15625 34.84375 L 15.589844 30.003906 Z M 31.28125 14.335938 "/>
</g>
</svg>
