<svg width="50px" height="50px" version="1.1" viewBox="0 0 50 50" xmlns="http://www.w3.org/2000/svg">
 <g display="none">
  <path d="m11.578 18.668h18.461c0.10547 0 0.19531 0.08594 0.19531 0.19531v17.652c0 0.10547-0.08984 0.19531-0.19531 0.19531h-18.461c-0.10938 0-0.19531-0.08984-0.19531-0.19531v-17.652c0-0.10938 0.08594-0.19531 0.19531-0.19531z" fill="#ffffff"/>
  <path d="m28.227 12.754h-13.738c-4.7344 0-8.5859 3.8516-8.5859 8.5859v10.305c0 4.7344 3.8516 8.5859 8.5859 8.5859h13.738c4.7344 0 8.5859-3.8516 8.5859-8.5859v-10.305c0-4.7344-3.8516-8.5859-8.5859-8.5859zm-1.7148 15.453h-3.4375v3.4375c0 0.94531-0.76953 1.7148-1.7148 1.7148-0.94922 0-1.7188-0.76953-1.7188-1.7148v-3.4375h-3.4336c-0.94922 0-1.7188-0.76953-1.7188-1.7148 0-0.94922 0.76953-1.7188 1.7188-1.7188h3.4336v-3.4336c0-0.94922 0.76953-1.7188 1.7188-1.7188 0.94531 0 1.7148 0.76953 1.7148 1.7188v3.4336h3.4375c0.94531 0 1.7148 0.76953 1.7148 1.7188 0 0.94531-0.76953 1.7148-1.7148 1.7148zm18.426-8.0664v12.57c0 1.3008-0.72266 2.4688-1.8828 3.0469-0.48828 0.24219-1.0078 0.36328-1.5273 0.36328-0.72266 0-1.4375-0.23047-2.043-0.68359-0.0625-0.05078-1.418-1.3906-1.418-1.3906v-15.227s1.3516-1.3516 1.418-1.4023c1.0391-0.78125 2.4023-0.90625 3.5703-0.32422 1.1641 0.58203 1.8828 1.75 1.8828 3.0508z" fill="#577d6e"/>
 </g>
 <g transform="matrix(.077203 -.0087183 -.003843 .077211 6.0971 7.3322)">
  <path d="m491.5 376.7-334.64-346.2a37.099 37.099 0 0 0-52.35-0.84387l-79.888 77.16a37.123 37.123 0 0 0-0.94246 52.349l334.64 346.25a37.173 37.173 0 0 0 52.374 0.89355l79.913-77.184a37.222 37.222 0 0 0 0.89445-52.424zm-362.26-260.61-18.388-19.026 47.552-45.932 18.388 19.026zm-1.2767 74.827-18.388-19.026 85.605-82.732 18.412 19.026zm74.827 1.2766-18.388-19.026 47.528-45.982 18.412 19.051zm36.775 38.052-18.388-19.026 47.527-45.933 18.412 19.026zm-1.2763 74.803-18.388-19.026 85.58-82.708 18.388 19.026zm74.803 1.2762-18.388-19.026 47.527-45.933 18.388 19.026zm36.751 38.052-18.388-19.026 47.553-45.957 18.388 19.026zm-1.2767 74.827-18.387-19.051 85.604-82.708 18.412 19.026zm74.803 1.2516-18.388-19.026 47.577-45.932 18.363 19.026z" fill="#63a388" stroke-width="24.65"/>
 </g>
</svg>
