<?xml version="1.0" encoding="UTF-8"?>
<svg xmlns="http://www.w3.org/2000/svg" xmlns:xlink="http://www.w3.org/1999/xlink" width="50px" height="px" viewBox="0 0 50 50" version="1.1">
<g id="surface1">
<path style=" stroke:none;fill-rule:nonzero;fill:rgb(43.529412%,43.529412%,43.529412%);fill-opacity:1;" d="M 22.632812 33.3125 C 22.632812 28.789062 26.101562 25.101562 30.375 25.101562 C 32.097656 25.101562 33.707031 25.691406 35.007812 26.699219 C 36.324219 25.691406 37.933594 25.101562 39.667969 25.101562 C 41.40625 25.101562 43.015625 25.722656 44.316406 26.746094 L 44.316406 20.457031 L 7.144531 20.457031 L 7.144531 34.398438 C 7.144531 38.671875 10.613281 42.140625 14.886719 42.140625 L 26.769531 42.140625 C 24.601562 39.617188 22.632812 36.441406 22.632812 33.3125 Z M 22.632812 33.3125 "/>
<path style=" stroke:none;fill-rule:nonzero;fill:rgb(43.529412%,43.529412%,43.529412%);fill-opacity:1;" d="M 36.574219 11.164062 L 26.457031 11.164062 C 26.226562 11.164062 25.976562 11.101562 25.761719 10.992188 L 20.882812 8.5625 C 20.246094 8.234375 19.519531 8.066406 18.808594 8.066406 L 14.886719 8.066406 C 10.613281 8.066406 7.144531 11.535156 7.144531 15.808594 L 7.144531 17.359375 L 44.160156 17.359375 C 43.449219 13.828125 40.320312 11.164062 36.574219 11.164062 Z M 36.574219 11.164062 "/>
<path style=" stroke:none;fill-rule:nonzero;fill:rgb(69.411765%,34.901961%,34.901961%);fill-opacity:1;" d="M 44.316406 33.3125 C 44.316406 37.339844 39.082031 42.328125 36.464844 44.417969 C 35.628906 45.097656 34.417969 45.097656 33.582031 44.417969 C 30.964844 42.324219 25.730469 37.324219 25.730469 33.3125 C 25.730469 30.492188 27.804688 28.199219 30.378906 28.199219 C 32.636719 28.199219 34.589844 29.980469 35.007812 32.335938 C 35.425781 29.980469 37.410156 28.199219 39.671875 28.199219 C 42.242188 28.199219 44.316406 30.492188 44.316406 33.3125 Z M 44.316406 33.3125 "/>
</g>
</svg>
