<?xml version="1.0" encoding="UTF-8"?>
<svg xmlns="http://www.w3.org/2000/svg" xmlns:xlink="http://www.w3.org/1999/xlink" width="50px" height="px" viewBox="0 0 50 50" version="1.1">
<g id="surface2">
<path style=" stroke:none;fill-rule:nonzero;fill:rgb(34.117647%,49.411765%,43.137255%);fill-opacity:1;" d="M 14.585938 8.109375 L 35.261719 8.109375 C 39.191406 8.109375 42.378906 11.328125 42.378906 15.300781 L 42.378906 35.363281 C 42.378906 39.332031 39.191406 42.550781 35.261719 42.550781 L 14.585938 42.550781 C 10.65625 42.550781 7.46875 39.332031 7.46875 35.363281 L 7.46875 15.300781 C 7.46875 11.328125 10.65625 8.109375 14.585938 8.109375 Z M 14.585938 8.109375 "/>
<path style=" stroke:none;fill-rule:nonzero;fill:rgb(92.156863%,92.156863%,92.156863%);fill-opacity:1;" d="M 36.175781 32.863281 L 31.164062 27.632812 L 33.40625 25.484375 C 33.769531 25.140625 33.886719 24.488281 33.4375 24.023438 C 33.109375 23.679688 32.726562 23.707031 32.320312 23.660156 L 25.140625 22.835938 C 24.632812 22.773438 24.277344 22.765625 23.945312 23.085938 C 23.613281 23.40625 23.605469 23.757812 23.644531 24.269531 L 24.160156 31.476562 C 24.1875 31.886719 24.140625 32.265625 24.472656 32.613281 C 24.917969 33.078125 25.574219 32.988281 25.933594 32.644531 L 28.175781 30.496094 L 33.1875 35.726562 C 33.582031 36.140625 34.238281 36.152344 34.648438 35.757812 L 36.144531 34.328125 C 36.554688 33.933594 36.570312 33.277344 36.175781 32.863281 Z M 36.175781 32.863281 "/>
</g>
</svg>
