<?xml version="1.0" encoding="UTF-8"?>
<svg xmlns="http://www.w3.org/2000/svg" xmlns:xlink="http://www.w3.org/1999/xlink" width="50px" height="px" viewBox="0 0 50 50" version="1.1">
<g id="surface1">
<path style=" stroke:none;fill-rule:nonzero;fill:rgb(50.588235%,74.117647%,64.313725%);fill-opacity:1;" d="M 38.695312 8.101562 C 40.695312 9.75 40.753906 12.980469 38.828125 15.316406 L 19.566406 38.652344 C 17.636719 40.988281 14.457031 41.539062 12.457031 39.886719 C 10.457031 38.234375 10.398438 35.003906 12.324219 32.671875 L 31.589844 9.335938 C 33.515625 7 36.695312 6.449219 38.695312 8.101562 Z M 38.695312 8.101562 "/>
<path style=" stroke:none;fill-rule:nonzero;fill:rgb(34.117647%,49.411765%,43.137255%);fill-opacity:1;" d="M 16.277344 34.777344 C 18.910156 36.964844 21.226562 38.855469 21.226562 38.855469 L 18.847656 41.71875 C 16.660156 44.355469 12.78125 44.714844 10.144531 42.527344 C 7.511719 40.339844 7.152344 36.460938 9.335938 33.824219 L 11.714844 30.960938 C 11.714844 30.960938 13.644531 32.589844 16.277344 34.777344 Z M 16.277344 34.777344 "/>
<path style=" stroke:none;fill-rule:nonzero;fill:rgb(34.117647%,49.411765%,43.137255%);fill-opacity:1;" d="M 32.679688 15.960938 C 30.015625 13.75 27.675781 11.835938 27.675781 11.835938 L 30.078125 8.9375 C 32.292969 6.273438 36.21875 5.910156 38.882812 8.121094 C 41.550781 10.332031 41.914062 14.261719 39.703125 16.925781 L 37.296875 19.824219 C 37.296875 19.824219 35.347656 18.175781 32.679688 15.960938 Z M 32.679688 15.960938 "/>
<path style=" stroke:none;fill-rule:nonzero;fill:rgb(34.117647%,49.411765%,43.137255%);fill-opacity:1;" d="M 22.457031 17.859375 L 32.050781 25.824219 L 26.714844 32.25 L 17.121094 24.285156 Z M 22.457031 17.859375 "/>
</g>
</svg>
