<?xml version="1.0" encoding="UTF-8"?>
<svg xmlns="http://www.w3.org/2000/svg" xmlns:xlink="http://www.w3.org/1999/xlink" width="50px" height="px" viewBox="0 0 50 50" version="1.1">
<g id="surface2">
<path style=" stroke:none;fill-rule:nonzero;fill:rgb(52.941176%,54.117647%,56.470588%);fill-opacity:1;" d="M 10.648438 9.25 L 18.109375 9.25 C 19.921875 9.25 21.390625 10.722656 21.390625 12.535156 L 21.390625 19.398438 C 21.390625 21.210938 19.921875 22.679688 18.109375 22.679688 L 10.648438 22.679688 C 8.835938 22.679688 7.367188 21.210938 7.367188 19.398438 L 7.367188 12.535156 C 7.367188 10.722656 8.835938 9.25 10.648438 9.25 Z M 10.648438 9.25 "/>
<path style=" stroke:none;fill-rule:nonzero;fill:rgb(58.823529%,74.509804%,78.039216%);fill-opacity:1;" d="M 31.09375 9.25 L 38.554688 9.25 C 40.367188 9.25 41.839844 10.722656 41.839844 12.535156 L 41.839844 19.398438 C 41.839844 21.210938 40.367188 22.679688 38.554688 22.679688 L 31.09375 22.679688 C 29.28125 22.679688 27.8125 21.210938 27.8125 19.398438 L 27.8125 12.535156 C 27.8125 10.722656 29.28125 9.25 31.09375 9.25 Z M 31.09375 9.25 "/>
<path style=" stroke:none;fill-rule:nonzero;fill:rgb(38.039216%,61.176471%,55.294118%);fill-opacity:1;" d="M 10.707031 29.125 L 18.167969 29.125 C 19.980469 29.125 21.449219 30.597656 21.449219 32.410156 L 21.449219 39.273438 C 21.449219 41.085938 19.980469 42.554688 18.167969 42.554688 L 10.707031 42.554688 C 8.894531 42.554688 7.425781 41.085938 7.425781 39.273438 L 7.425781 32.410156 C 7.425781 30.597656 8.894531 29.125 10.707031 29.125 Z M 10.707031 29.125 "/>
<path style=" stroke:none;fill-rule:nonzero;fill:rgb(76.078431%,50.980392%,48.627451%);fill-opacity:1;" d="M 31.035156 29.097656 L 38.496094 29.097656 C 40.308594 29.097656 41.777344 30.570312 41.777344 32.382812 L 41.777344 39.246094 C 41.777344 41.058594 40.308594 42.527344 38.496094 42.527344 L 31.035156 42.527344 C 29.222656 42.527344 27.75 41.058594 27.75 39.246094 L 27.75 32.382812 C 27.75 30.570312 29.222656 29.097656 31.035156 29.097656 Z M 31.035156 29.097656 "/>
</g>
</svg>
