<svg width="50px" height="50px" version="1.1" viewBox="0 0 50 50" xmlns="http://www.w3.org/2000/svg">
 <g transform="matrix(1.5458 0 0 1.5458 -13.016 -1.1172)">
  <path d="m37.621 28.13c-1.1936-13.267-7.5844-15.907-7.5844-15.907s-6.1816-3.6764-12.684 1.0039c-4.2175 3.7953-5.1929 9.5852-5.8565 15.182-0.33847 2.8442 4.1596 2.8091 4.4937 0 0.39637-3.3418 0.96644-6.6924 2.641-9.55l-0.0089 3.223-0.03117 15.489v-5.2118l11.544 0.05748 0.11782 0.02922 0.06923-10.396c0.0044-1.4838 0.0044-2.8047 0.0044-3.7249 1.7992 2.9059 2.3916 6.3622 2.7968 9.8009 0.33848 2.8135 4.8366 2.8442 4.4981 0.0044z" fill="#6e6e6e"/>
  <path d="m29.082 5.6065c0 2.5536-2.0235 4.6256-4.523 4.6256-2.4996 0-4.5278-2.0721-4.5278-4.6256s2.0283-4.6256 4.5278-4.6256c2.4996 0 4.523 2.0721 4.523 4.6256z" fill="#6e6e6e" stroke-width="1.2319"/>
  <g fill="#faf0ef">
   <path d="m15.724 26.486a1.8761 2.0136 0 0 1-1.8742 2.0136 1.8761 2.0136 0 0 1-1.8779-2.0097 1.8761 2.0136 0 0 1 1.8705-2.0176 1.8761 2.0136 0 0 1 1.8816 2.0057" style="paint-order:stroke fill markers"/>
   <path d="m37.159 26.292a1.8761 2.0136 0 0 1-1.8742 2.0136 1.8761 2.0136 0 0 1-1.8779-2.0097 1.8761 2.0136 0 0 1 1.8705-2.0176 1.8761 2.0136 0 0 1 1.8816 2.0057" style="paint-order:stroke fill markers"/>
   <path d="m26.247 16.256a1.8761 2.0136 0 0 1-1.8742 2.0136 1.8761 2.0136 0 0 1-1.8779-2.0097 1.8761 2.0136 0 0 1 1.8705-2.0176 1.8761 2.0136 0 0 1 1.8816 2.0057" style="paint-order:stroke fill markers"/>
   <path d="m26.393 5.8799a1.8761 2.0136 0 0 1-1.8742 2.0136 1.8761 2.0136 0 0 1-1.8779-2.0097 1.8761 2.0136 0 0 1 1.8705-2.0176 1.8761 2.0136 0 0 1 1.8816 2.0057" style="paint-order:stroke fill markers"/>
  </g>
 </g>
</svg>
