<?xml version="1.0" encoding="UTF-8"?>
<svg xmlns="http://www.w3.org/2000/svg" xmlns:xlink="http://www.w3.org/1999/xlink" width="50px" height="px" viewBox="0 0 50 50" version="1.1">
<g id="surface1">
<path style=" stroke:none;fill-rule:nonzero;fill:rgb(34.117647%,49.411765%,43.137255%);fill-opacity:1;" d="M 12.40625 3.769531 L 38.695312 3.769531 C 43.695312 3.769531 47.746094 7.863281 47.746094 12.910156 L 47.746094 38.421875 C 47.746094 43.472656 43.695312 47.566406 38.695312 47.566406 L 12.40625 47.566406 C 7.40625 47.566406 3.351562 43.472656 3.351562 38.421875 L 3.351562 12.910156 C 3.351562 7.863281 7.40625 3.769531 12.40625 3.769531 Z M 12.40625 3.769531 "/>
<path style=" stroke:none;fill-rule:nonzero;fill:rgb(92.156863%,92.156863%,92.156863%);fill-opacity:1;" d="M 41.726562 38.609375 L 35.355469 31.957031 L 38.207031 29.226562 C 38.667969 28.785156 38.816406 27.960938 38.246094 27.363281 C 37.828125 26.925781 37.339844 26.964844 36.824219 26.90625 L 27.691406 25.859375 C 27.046875 25.777344 26.597656 25.769531 26.171875 26.175781 C 25.75 26.578125 25.738281 27.03125 25.792969 27.679688 L 26.445312 36.847656 C 26.484375 37.367188 26.421875 37.847656 26.84375 38.289062 C 27.410156 38.882812 28.242188 38.769531 28.703125 38.328125 L 31.554688 35.597656 L 37.925781 42.25 C 38.425781 42.773438 39.261719 42.789062 39.785156 42.289062 L 41.6875 40.46875 C 42.210938 39.96875 42.226562 39.132812 41.726562 38.609375 Z M 41.726562 38.609375 "/>
</g>
</svg>
