<?xml version="1.0" encoding="UTF-8"?>
<svg xmlns="http://www.w3.org/2000/svg" xmlns:xlink="http://www.w3.org/1999/xlink" width="50px" height="px" viewBox="0 0 50 50" version="1.1">
<g id="surface1">
<path style=" stroke:none;fill-rule:nonzero;fill:rgb(63.921569%,63.529412%,63.529412%);fill-opacity:1;" d="M 42.0625 22.992188 C 42.0625 22.070312 41.3125 21.320312 40.390625 21.320312 L 37.726562 21.320312 C 37.449219 20.359375 37.066406 19.4375 36.582031 18.558594 L 38.464844 16.675781 C 38.777344 16.367188 38.957031 15.933594 38.957031 15.492188 C 38.957031 15.042969 38.78125 14.625 38.464844 14.308594 L 35.351562 11.191406 C 34.742188 10.585938 33.589844 10.582031 32.984375 11.191406 L 31.101562 13.074219 C 30.222656 12.59375 29.296875 12.210938 28.339844 11.933594 L 28.339844 9.269531 C 28.339844 8.347656 27.589844 7.597656 26.664062 7.597656 L 22.261719 7.597656 C 21.335938 7.597656 20.585938 8.347656 20.585938 9.269531 L 20.585938 11.933594 C 19.628906 12.210938 18.703125 12.59375 17.824219 13.074219 L 15.941406 11.195312 C 15.308594 10.5625 14.207031 10.5625 13.574219 11.195312 L 10.460938 14.308594 C 9.804688 14.960938 9.804688 16.023438 10.460938 16.675781 L 12.339844 18.558594 C 11.859375 19.4375 11.476562 20.359375 11.199219 21.320312 L 8.535156 21.320312 C 7.613281 21.320312 6.863281 22.070312 6.863281 22.992188 L 6.863281 27.398438 C 6.863281 28.324219 7.613281 29.074219 8.535156 29.074219 L 11.199219 29.074219 C 11.476562 30.03125 11.859375 30.957031 12.339844 31.832031 L 10.460938 33.714844 C 10.148438 34.027344 9.96875 34.457031 9.96875 34.898438 C 9.96875 35.347656 10.144531 35.769531 10.460938 36.085938 L 13.574219 39.199219 C 14.183594 39.808594 15.335938 39.808594 15.941406 39.199219 L 17.824219 37.316406 C 18.703125 37.796875 19.628906 38.179688 20.585938 38.460938 L 20.585938 41.121094 C 20.585938 42.046875 21.335938 42.796875 22.261719 42.796875 L 26.664062 42.796875 C 27.589844 42.796875 28.339844 42.046875 28.339844 41.121094 L 28.339844 38.460938 C 29.296875 38.179688 30.222656 37.800781 31.101562 37.316406 L 32.984375 39.199219 C 33.617188 39.832031 34.71875 39.832031 35.351562 39.199219 L 38.464844 36.085938 C 39.117188 35.429688 39.117188 34.371094 38.464844 33.714844 L 36.582031 31.832031 C 37.066406 30.957031 37.449219 30.03125 37.726562 29.074219 L 40.386719 29.074219 C 41.3125 29.074219 42.0625 28.324219 42.0625 27.398438 Z M 30.5625 25.195312 C 30.5625 28.558594 27.824219 31.292969 24.460938 31.292969 C 21.101562 31.292969 18.363281 28.558594 18.363281 25.195312 C 18.363281 21.835938 21.101562 19.097656 24.460938 19.097656 C 27.824219 19.097656 30.5625 21.835938 30.5625 25.195312 Z M 30.5625 25.195312 "/>
<path style=" stroke:none;fill-rule:nonzero;fill:rgb(43.529412%,43.529412%,43.529412%);fill-opacity:1;" d="M 42.648438 23.578125 C 42.648438 22.65625 41.898438 21.90625 40.976562 21.90625 L 38.3125 21.90625 C 38.035156 20.945312 37.652344 20.023438 37.167969 19.144531 L 39.050781 17.261719 C 39.363281 16.953125 39.542969 16.519531 39.542969 16.078125 C 39.542969 15.628906 39.367188 15.210938 39.050781 14.894531 L 35.9375 11.777344 C 35.328125 11.171875 34.175781 11.167969 33.570312 11.777344 L 31.6875 13.660156 C 30.808594 13.179688 29.882812 12.796875 28.925781 12.519531 L 28.925781 9.855469 C 28.925781 8.933594 28.175781 8.183594 27.25 8.183594 L 22.847656 8.183594 C 21.921875 8.183594 21.171875 8.933594 21.171875 9.855469 L 21.171875 12.519531 C 20.214844 12.796875 19.289062 13.179688 18.410156 13.660156 L 16.527344 11.78125 C 15.894531 11.148438 14.792969 11.148438 14.160156 11.78125 L 11.046875 14.894531 C 10.390625 15.546875 10.390625 16.609375 11.046875 17.261719 L 12.925781 19.144531 C 12.445312 20.023438 12.0625 20.945312 11.785156 21.90625 L 9.121094 21.90625 C 8.199219 21.90625 7.449219 22.65625 7.449219 23.578125 L 7.449219 27.984375 C 7.449219 28.910156 8.199219 29.660156 9.121094 29.660156 L 11.785156 29.660156 C 12.0625 30.617188 12.445312 31.542969 12.925781 32.417969 L 11.046875 34.300781 C 10.734375 34.613281 10.554688 35.042969 10.554688 35.484375 C 10.554688 35.933594 10.730469 36.355469 11.046875 36.671875 L 14.160156 39.785156 C 14.769531 40.394531 15.921875 40.394531 16.527344 39.785156 L 18.410156 37.902344 C 19.289062 38.382812 20.214844 38.765625 21.171875 39.046875 L 21.171875 41.707031 C 21.171875 42.632812 21.921875 43.382812 22.847656 43.382812 L 27.25 43.382812 C 28.175781 43.382812 28.925781 42.632812 28.925781 41.707031 L 28.925781 39.046875 C 29.882812 38.765625 30.808594 38.386719 31.6875 37.902344 L 33.570312 39.785156 C 34.203125 40.417969 35.304688 40.417969 35.9375 39.785156 L 39.050781 36.671875 C 39.703125 36.015625 39.703125 34.957031 39.050781 34.300781 L 37.167969 32.417969 C 37.652344 31.542969 38.035156 30.617188 38.3125 29.660156 L 40.972656 29.660156 C 41.898438 29.660156 42.648438 28.910156 42.648438 27.984375 Z M 31.148438 25.78125 C 31.148438 29.144531 28.410156 31.878906 25.046875 31.878906 C 21.6875 31.878906 18.949219 29.144531 18.949219 25.78125 C 18.949219 22.421875 21.6875 19.683594 25.046875 19.683594 C 28.410156 19.683594 31.148438 22.421875 31.148438 25.78125 Z M 31.148438 25.78125 "/>
</g>
</svg>
