<?xml version="1.0" encoding="UTF-8"?>
<svg xmlns="http://www.w3.org/2000/svg" xmlns:xlink="http://www.w3.org/1999/xlink" width="50px" height="px" viewBox="0 0 50 50" version="1.1">
<g id="surface2">
<path style=" stroke:none;fill-rule:nonzero;fill:rgb(84.313725%,80.392157%,68.627451%);fill-opacity:1;" d="M 11.296875 11.613281 L 20.21875 11.613281 C 20.324219 11.613281 20.40625 11.695312 20.40625 11.796875 L 20.40625 20.171875 C 20.40625 20.273438 20.324219 20.359375 20.21875 20.359375 L 11.296875 20.359375 C 11.195312 20.359375 11.109375 20.273438 11.109375 20.171875 L 11.109375 11.796875 C 11.109375 11.695312 11.195312 11.613281 11.296875 11.613281 Z M 11.296875 11.613281 "/>
<path style=" stroke:none;fill-rule:nonzero;fill:rgb(43.529412%,43.529412%,43.529412%);fill-opacity:1;" d="M 11.261719 29.464844 L 20.1875 29.464844 C 20.289062 29.464844 20.371094 29.546875 20.371094 29.652344 L 20.371094 38.023438 C 20.371094 38.128906 20.289062 38.210938 20.1875 38.210938 L 11.261719 38.210938 C 11.160156 38.210938 11.078125 38.128906 11.078125 38.023438 L 11.078125 29.652344 C 11.078125 29.546875 11.160156 29.464844 11.261719 29.464844 Z M 11.261719 29.464844 "/>
<path style=" stroke:none;fill-rule:nonzero;fill:rgb(84.313725%,80.392157%,68.627451%);fill-opacity:1;" d="M 30.410156 11.636719 L 39.335938 11.636719 C 39.4375 11.636719 39.519531 11.71875 39.519531 11.820312 L 39.519531 20.195312 C 39.519531 20.296875 39.4375 20.378906 39.335938 20.378906 L 30.410156 20.378906 C 30.308594 20.378906 30.226562 20.296875 30.226562 20.195312 L 30.226562 11.820312 C 30.226562 11.71875 30.308594 11.636719 30.410156 11.636719 Z M 30.410156 11.636719 "/>
<path style=" stroke:none;fill-rule:nonzero;fill:rgb(43.529412%,43.529412%,43.529412%);fill-opacity:1;" d="M 30.382812 29.464844 L 39.308594 29.464844 C 39.410156 29.464844 39.492188 29.546875 39.492188 29.652344 L 39.492188 38.023438 C 39.492188 38.128906 39.410156 38.210938 39.308594 38.210938 L 30.382812 38.210938 C 30.28125 38.210938 30.199219 38.128906 30.199219 38.023438 L 30.199219 29.652344 C 30.199219 29.546875 30.28125 29.464844 30.382812 29.464844 Z M 30.382812 29.464844 "/>
</g>
</svg>
