<svg width="50" height="0INVALID" viewBox="0 0 50 50" xmlns:xlink="http://www.w3.org/1999/xlink" xmlns="http://www.w3.org/2000/svg"><defs><clipPath id="b"><path d="M0 0h50v50H0z"/></clipPath><clipPath id="c"><path d="M0 0h50v50H0z"/></clipPath><mask id="d"><g filter="url(#a)"><path fill-opacity=".267" d="M0 0h50v50H0z"/></g></mask><mask id="f"><g filter="url(#a)"><path fill-opacity=".816" d="M0 0h50v50H0z"/></g></mask><g id="e" clip-path="url(#b)"><path d="m26.844 23.195-6.422-3.707a5.348 5.348 0 0 0-5.332 0l-6.422 3.707a5.331 5.331 0 0 0-2.664 4.617v7.419a5.34 5.34 0 0 0 2.664 4.617l6.422 3.707c1.652.949 3.683.949 5.332 0l6.422-3.707a5.353 5.353 0 0 0 2.668-4.617v-7.419a5.343 5.343 0 0 0-2.668-4.617zm-10.688-1.863c.992-.57 2.21-.57 3.199 0l6.426 3.71c.16.102.316.22.457.352l-6.602 3.81a3.755 3.755 0 0 1-3.758 0l-6.601-3.81c.14-.132.293-.25.457-.351zM9.734 38a3.217 3.217 0 0 1-1.602-2.77v-7.418a3.13 3.13 0 0 1 .078-.57l6.602 3.808a5.864 5.864 0 0 0 1.879.68v10.2a3.363 3.363 0 0 1-.535-.223zm17.644-2.77c0 1.14-.61 2.196-1.597 2.77l-6.426 3.71c-.172.09-.348.16-.531.22v-10.2a5.898 5.898 0 0 0 1.878-.68l6.602-3.808c.043.188.066.379.074.57z" fill="#63A388" stroke="#63A388" stroke-width=".500066"/></g><g id="g" clip-path="url(#c)"><path d="M43.23 38.344a1.3 1.3 0 0 1-1.297 1.3h-3.898v3.895a1.297 1.297 0 0 1-1.297 1.29 1.298 1.298 0 0 1-1.301-1.29v-3.894h-3.898c-.711-.008-1.29-.586-1.29-1.301s.579-1.293 1.29-1.297h3.898V33.15a1.298 1.298 0 0 1 1.3-1.29c.712 0 1.294.575 1.298 1.29v3.898h3.898c.715 0 1.297.578 1.297 1.297z" fill="#D4E0D8"/></g><filter id="a" x="0" y="0" width="1" height="1"><feColorMatrix in="SourceGraphic" values="0 0 0 0 1 0 0 0 0 1 0 0 0 0 1 0 0 0 1 0"/></filter></defs><path d="m37.317 10.933-6.306-3.64a5.251 5.251 0 0 0-5.235 0l-6.306 3.64a5.247 5.247 0 0 0-2.62 4.533v7.284a5.256 5.256 0 0 0 2.62 4.534l6.306 3.64a5.251 5.251 0 0 0 5.235 0l6.306-3.64a5.244 5.244 0 0 0 2.616-4.534v-7.284a5.235 5.235 0 0 0-2.616-4.533zm-10.494-1.83c.97-.56 2.167-.56 3.141 0l6.306 3.644c.16.1.31.215.449.345l-6.483 3.74c-1.139.66-2.546.66-3.69 0l-6.482-3.74c.142-.13.292-.245.45-.345zm-6.31 16.367a3.147 3.147 0 0 1-1.569-2.72v-7.284c.008-.188.035-.376.077-.56l6.482 3.74a5.725 5.725 0 0 0 1.845.667v10.015a3.16 3.16 0 0 1-.525-.219zm17.33-2.72a3.159 3.159 0 0 1-1.573 2.72l-6.306 3.644a3.285 3.285 0 0 1-.525.214V19.314a5.758 5.758 0 0 0 1.845-.668l6.482-3.74c.042.185.069.372.077.56z" fill="#63a388" stroke="#63a388" stroke-width=".792"/><use mask="url(#d)" opacity=".335" xlink:href="#e" transform="matrix(.98192 0 0 .98192 .104 .81)"/><use mask="url(#f)" xlink:href="#g" transform="matrix(.98192 0 0 .98192 .104 .81)"/></svg>