<?xml version="1.0" encoding="UTF-8"?>
<svg xmlns="http://www.w3.org/2000/svg" xmlns:xlink="http://www.w3.org/1999/xlink" width="50px" height="px" viewBox="0 0 50 50" version="1.1">
<g id="surface1">
<path style="fill-rule:nonzero;fill:rgb(92.941176%,92.941176%,92.941176%);fill-opacity:1;stroke-width:10.235;stroke-linecap:round;stroke-linejoin:round;stroke:rgb(92.156863%,92.156863%,92.156863%);stroke-opacity:1;stroke-miterlimit:4;" d="M 185.92 239.92 L 327.72 239.92 C 331.04 239.92 333.68 242.6 333.68 245.88 L 333.68 377.88 C 333.68 381.2 331.04 383.84 327.72 383.84 L 185.92 383.84 C 182.6 383.84 179.92 381.2 179.92 377.88 L 179.92 245.88 C 179.92 242.6 182.6 239.92 185.92 239.92 Z M 185.92 239.92 " transform="matrix(0.0976562,0,0,0.0976562,0,0)"/>
<path style=" stroke:none;fill-rule:nonzero;fill:rgb(43.529412%,43.529412%,43.529412%);fill-opacity:1;" d="M 42.75 17.765625 L 7.328125 17.933594 L 7.328125 16.460938 C 7.335938 12.363281 10.652344 9.042969 14.75 9.039062 L 18.503906 9.039062 C 19.195312 9.039062 19.875 9.199219 20.492188 9.507812 L 25.179688 11.859375 C 25.382812 11.960938 25.613281 12.011719 25.839844 12.007812 L 35.53125 12.007812 C 38.984375 12.015625 41.976562 14.402344 42.75 17.765625 Z M 42.953125 20.734375 L 42.953125 34.273438 C 42.949219 38.371094 39.628906 41.691406 35.53125 41.695312 L 14.75 41.695312 C 10.652344 41.691406 7.335938 38.371094 7.328125 34.273438 L 7.328125 20.902344 Z M 31.078125 31.304688 C 31.078125 30.484375 30.414062 29.820312 29.59375 29.820312 L 26.625 29.820312 L 26.625 26.851562 C 26.625 26.03125 25.960938 25.367188 25.140625 25.367188 C 24.320312 25.367188 23.65625 26.03125 23.65625 26.851562 L 23.65625 29.820312 L 20.6875 29.820312 C 19.867188 29.820312 19.203125 30.484375 19.203125 31.304688 C 19.203125 32.125 19.867188 32.789062 20.6875 32.789062 L 23.65625 32.789062 L 23.65625 35.757812 C 23.65625 36.578125 24.320312 37.242188 25.140625 37.242188 C 25.960938 37.242188 26.625 36.578125 26.625 35.757812 L 26.625 32.789062 L 29.59375 32.789062 C 30.414062 32.789062 31.078125 32.125 31.078125 31.304688 Z M 31.078125 31.304688 "/>
</g>
</svg>
