<?xml version="1.0" encoding="UTF-8"?>
<svg xmlns="http://www.w3.org/2000/svg" xmlns:xlink="http://www.w3.org/1999/xlink" width="50px" height="px" viewBox="0 0 50 50" version="1.1">
<defs>
<filter id="alpha" filterUnits="objectBoundingBox" x="0%" y="0%" width="100%" height="100%">
  <feColorMatrix type="matrix" in="SourceGraphic" values="0 0 0 0 1 0 0 0 0 1 0 0 0 0 1 0 0 0 1 0"/>
</filter>
<mask id="mask0">
  <g filter="url(#alpha)">
<rect x="0" y="0" width="50" height="50" style="fill:rgb(0%,0%,0%);fill-opacity:0.364706;stroke:none;"/>
  </g>
</mask>
<clipPath id="clip1">
  <rect x="0" y="0" width="50" height="50"/>
</clipPath>
<g id="surface6" clip-path="url(#clip1)">
<path style=" stroke:none;fill-rule:nonzero;fill:rgb(47.058824%,47.058824%,47.058824%);fill-opacity:1;" d="M 12.507812 23.113281 C 13.554688 15.996094 20.171875 11.078125 27.289062 12.125 C 29.71875 12.480469 31.996094 13.515625 33.863281 15.113281 L 32.183594 16.792969 C 31.621094 17.355469 31.621094 18.265625 32.183594 18.828125 C 32.453125 19.101562 32.820312 19.25 33.203125 19.25 L 39.8125 19.25 C 40.605469 19.25 41.253906 18.605469 41.253906 17.808594 L 41.253906 11.203125 C 41.25 10.40625 40.605469 9.761719 39.808594 9.761719 C 39.429688 9.761719 39.0625 9.914062 38.792969 10.183594 L 36.917969 12.054688 C 29.773438 5.6875 18.820312 6.316406 12.449219 13.460938 C 10.195312 15.992188 8.730469 19.128906 8.238281 22.484375 C 8.046875 23.671875 8.851562 24.792969 10.042969 24.988281 C 10.148438 25.003906 10.257812 25.015625 10.367188 25.015625 C 11.453125 25.003906 12.367188 24.191406 12.507812 23.113281 Z M 12.507812 23.113281 "/>
<path style=" stroke:none;fill-rule:nonzero;fill:rgb(47.058824%,47.058824%,47.058824%);fill-opacity:1;" d="M 40.433594 25.015625 C 39.34375 25.027344 38.429688 25.839844 38.289062 26.917969 C 37.242188 34.035156 30.625 38.957031 23.507812 37.910156 C 21.078125 37.550781 18.800781 36.515625 16.9375 34.921875 L 18.613281 33.242188 C 19.179688 32.679688 19.175781 31.765625 18.613281 31.203125 C 18.34375 30.933594 17.976562 30.78125 17.597656 30.78125 L 10.988281 30.78125 C 10.191406 30.78125 9.546875 31.425781 9.546875 32.222656 L 9.546875 38.832031 C 9.546875 39.628906 10.191406 40.273438 10.988281 40.273438 C 11.371094 40.273438 11.734375 40.121094 12.007812 39.851562 L 13.878906 37.976562 C 21.023438 44.347656 31.976562 43.71875 38.347656 36.578125 C 40.601562 34.046875 42.066406 30.90625 42.558594 27.550781 C 42.753906 26.359375 41.945312 25.238281 40.757812 25.042969 C 40.648438 25.027344 40.539062 25.019531 40.429688 25.015625 Z M 40.433594 25.015625 "/>
</g>
</defs>
<g id="surface2">
<use xlink:href="#surface6" mask="url(#mask0)"/>
</g>
</svg>
