<?xml version="1.0" encoding="UTF-8"?>
<svg xmlns="http://www.w3.org/2000/svg" xmlns:xlink="http://www.w3.org/1999/xlink" width="50px" height="px" viewBox="0 0 50 50" version="1.1">
<g id="surface2">
<path style="fill:none;stroke-width:3.9505;stroke-linecap:butt;stroke-linejoin:round;stroke:rgb(82.745098%,49.411765%,49.411765%);stroke-opacity:1;stroke-dasharray:9.616,4.808;stroke-miterlimit:4;" d="M 11.488385 46.587833 C 11.488385 46.587833 2.012244 14.665325 20.133381 12.188296 C 38.259985 9.716735 19.26396 50.191282 35.558765 51.580168 C 51.853571 52.974522 41.765008 13.331119 56.058506 15.141046 " transform="matrix(0.714376,0,0,0.714376,0,-0.000000000000002865)"/>
<path style=" stroke:none;fill-rule:nonzero;fill:rgb(45.098039%,79.607843%,54.117647%);fill-opacity:1;" d="M 44.160156 42.007812 C 44.160156 42.65625 43.632812 43.183594 42.980469 43.183594 L 39.453125 43.183594 L 39.453125 46.710938 C 39.449219 47.359375 38.921875 47.878906 38.277344 47.878906 C 37.628906 47.878906 37.105469 47.359375 37.101562 46.710938 L 37.101562 43.183594 L 33.570312 43.183594 C 32.925781 43.179688 32.402344 42.652344 32.402344 42.007812 C 32.402344 41.363281 32.925781 40.835938 33.570312 40.832031 L 37.101562 40.832031 L 37.101562 37.300781 C 37.105469 36.65625 37.628906 36.136719 38.277344 36.136719 C 38.921875 36.136719 39.449219 36.65625 39.453125 37.300781 L 39.453125 40.832031 L 42.980469 40.832031 C 43.632812 40.832031 44.160156 41.359375 44.160156 42.007812 Z M 44.160156 42.007812 "/>
</g>
</svg>
