<?xml version="1.0" encoding="UTF-8"?>
<svg xmlns="http://www.w3.org/2000/svg" xmlns:xlink="http://www.w3.org/1999/xlink" width="50px" height="px" viewBox="0 0 50 50" version="1.1">
<g id="surface2">
<path style=" stroke:none;fill-rule:nonzero;fill:rgb(80.784314%,34.117647%,34.117647%);fill-opacity:1;" d="M 32.683594 29.609375 L 28.3125 25.238281 L 32.683594 20.867188 L 29.320312 17.507812 L 24.953125 21.878906 L 20.582031 17.507812 L 17.21875 20.867188 L 21.589844 25.238281 L 17.21875 29.609375 L 20.582031 32.96875 L 24.953125 28.597656 L 29.320312 32.96875 Z M 32.683594 29.609375 "/>
<path style=" stroke:none;fill-rule:nonzero;fill:rgb(42.352941%,42.352941%,42.352941%);fill-opacity:1;" d="M 24.949219 44.253906 C 14.449219 44.253906 5.9375 35.742188 5.9375 25.238281 C 5.9375 14.738281 14.449219 6.222656 24.949219 6.222656 C 35.453125 6.222656 43.964844 14.738281 43.964844 25.238281 C 43.953125 35.734375 35.449219 44.242188 24.949219 44.253906 Z M 24.949219 10.976562 C 17.074219 10.976562 10.691406 17.363281 10.691406 25.238281 C 10.691406 33.113281 17.074219 39.5 24.949219 39.5 C 32.828125 39.5 39.210938 33.113281 39.210938 25.238281 C 39.203125 17.367188 32.824219 10.988281 24.949219 10.976562 Z M 24.949219 10.976562 "/>
</g>
</svg>
