<?xml version="1.0" encoding="UTF-8"?>
<svg xmlns="http://www.w3.org/2000/svg" xmlns:xlink="http://www.w3.org/1999/xlink" width="50px" height="px" viewBox="0 0 50 50" version="1.1">
<defs>
<filter id="alpha" filterUnits="objectBoundingBox" x="0%" y="0%" width="100%" height="100%">
  <feColorMatrix type="matrix" in="SourceGraphic" values="0 0 0 0 1 0 0 0 0 1 0 0 0 0 1 0 0 0 1 0"/>
</filter>
<mask id="mask0">
  <g filter="url(#alpha)">
<rect x="0" y="0" width="50" height="50" style="fill:rgb(0%,0%,0%);fill-opacity:0.729412;stroke:none;"/>
  </g>
</mask>
<clipPath id="clip1">
  <rect x="0" y="0" width="50" height="50"/>
</clipPath>
<g id="surface6" clip-path="url(#clip1)">
<path style=" stroke:none;fill-rule:nonzero;fill:rgb(83.137255%,38.431373%,38.431373%);fill-opacity:1;" d="M 44.839844 25.5625 C 44.839844 36.53125 35.949219 45.425781 24.976562 45.425781 C 14.007812 45.425781 5.113281 36.53125 5.113281 25.5625 C 5.113281 14.589844 14.007812 5.699219 24.976562 5.699219 C 35.949219 5.699219 44.839844 14.589844 44.839844 25.5625 Z M 44.839844 25.5625 "/>
</g>
</defs>
<g id="surface2">
<use xlink:href="#surface6" mask="url(#mask0)"/>
<path style=" stroke:none;fill-rule:nonzero;fill:rgb(95.686275%,95.686275%,95.686275%);fill-opacity:1;" d="M 34.59375 15.792969 C 33.632812 14.832031 32.078125 14.832031 31.117188 15.792969 L 24.757812 22.152344 L 18.394531 15.792969 C 17.429688 14.859375 15.894531 14.875 14.949219 15.824219 C 14 16.773438 13.984375 18.304688 14.917969 19.269531 L 21.277344 25.632812 L 14.917969 31.992188 C 13.984375 32.957031 14 34.492188 14.949219 35.441406 C 15.894531 36.390625 17.429688 36.402344 18.394531 35.46875 L 24.757812 29.109375 L 31.117188 35.46875 C 32.082031 36.402344 33.617188 36.390625 34.566406 35.441406 C 35.511719 34.492188 35.527344 32.957031 34.59375 31.992188 L 28.234375 25.632812 L 34.59375 19.269531 C 35.554688 18.308594 35.554688 16.753906 34.59375 15.792969 Z M 34.59375 15.792969 "/>
</g>
</svg>
