<?xml version="1.0" encoding="UTF-8"?>
<svg xmlns="http://www.w3.org/2000/svg" xmlns:xlink="http://www.w3.org/1999/xlink" width="50px" height="px" viewBox="0 0 50 50" version="1.1">
<g id="surface1">
<path style=" stroke:none;fill-rule:nonzero;fill:rgb(36.862745%,36.862745%,36.862745%);fill-opacity:1;" d="M 35.585938 19.847656 L 35.585938 17.679688 C 35.585938 11.785156 30.808594 7.007812 24.914062 7.007812 C 19.023438 7.007812 14.246094 11.785156 14.246094 17.679688 L 14.246094 19.847656 C 11.472656 21.058594 9.675781 23.796875 9.671875 26.824219 L 9.671875 35.96875 C 9.679688 40.175781 13.085938 43.585938 17.292969 43.589844 L 32.535156 43.589844 C 36.742188 43.585938 40.152344 40.175781 40.15625 35.96875 L 40.15625 26.824219 C 40.152344 23.796875 38.359375 21.058594 35.585938 19.847656 Z M 26.4375 32.921875 C 26.4375 33.761719 25.757812 34.445312 24.914062 34.445312 C 24.074219 34.445312 23.390625 33.761719 23.390625 32.921875 L 23.390625 29.871094 C 23.390625 29.03125 24.074219 28.347656 24.914062 28.347656 C 25.757812 28.347656 26.4375 29.03125 26.4375 29.871094 Z M 32.535156 19.203125 L 17.292969 19.203125 L 17.292969 17.679688 C 17.292969 13.46875 20.707031 10.058594 24.914062 10.058594 C 29.125 10.058594 32.535156 13.46875 32.535156 17.679688 Z M 32.535156 19.203125 "/>
</g>
</svg>
