<?xml version="1.0" encoding="UTF-8"?>
<svg xmlns="http://www.w3.org/2000/svg" xmlns:xlink="http://www.w3.org/1999/xlink" width="50px" height="px" viewBox="0 0 50 50" version="1.1">
<g id="surface1">
<path style=" stroke:none;fill-rule:nonzero;fill:rgb(100%,100%,100%);fill-opacity:1;" d="M 21.925781 17.019531 L 28.980469 17.019531 C 32.273438 17.019531 34.941406 19.6875 34.941406 22.976562 L 34.941406 28.226562 C 34.941406 31.519531 32.273438 34.1875 28.980469 34.1875 L 21.925781 34.1875 C 18.632812 34.1875 15.964844 31.519531 15.964844 28.226562 L 15.964844 22.976562 C 15.964844 19.6875 18.632812 17.019531 21.925781 17.019531 Z M 21.925781 17.019531 "/>
<path style=" stroke:none;fill-rule:evenodd;fill:rgb(80.784314%,7.45098%,7.058824%);fill-opacity:1;" d="M 20.929688 30.167969 L 20.925781 19.839844 L 30.789062 25.019531 Z M 42.582031 18.050781 C 42.582031 18.050781 42.226562 15.515625 41.132812 14.398438 C 39.746094 12.9375 38.1875 12.929688 37.476562 12.84375 C 32.367188 12.472656 24.707031 12.472656 24.707031 12.472656 L 24.691406 12.472656 C 24.691406 12.472656 17.027344 12.472656 11.921875 12.84375 C 11.207031 12.929688 9.652344 12.9375 8.261719 14.398438 C 7.167969 15.515625 6.8125 18.050781 6.8125 18.050781 C 6.8125 18.050781 6.445312 21.023438 6.445312 24 L 6.445312 26.789062 C 6.445312 29.761719 6.8125 32.738281 6.8125 32.738281 C 6.8125 32.738281 7.167969 35.269531 8.261719 36.386719 C 9.652344 37.851562 11.476562 37.804688 12.289062 37.957031 C 15.207031 38.238281 24.699219 38.328125 24.699219 38.328125 C 24.699219 38.328125 32.367188 38.316406 37.476562 37.945312 C 38.1875 37.859375 39.746094 37.851562 41.132812 36.386719 C 42.226562 35.269531 42.585938 32.738281 42.585938 32.738281 C 42.585938 32.738281 42.949219 29.761719 42.949219 26.789062 L 42.949219 24 C 42.949219 21.023438 42.585938 18.050781 42.585938 18.050781 Z M 42.582031 18.050781 "/>
</g>
</svg>
